<svg width="24" height="24" viewBox="0 0 24 24" fill="none" xmlns="http://www.w3.org/2000/svg">
<path d="M10.5 11.7734C10.5 11.3516 10.1484 11 9.75 11H9.375C8.53125 11 7.875 11.6797 7.875 12.5234V13.625C7.875 14.4688 8.53125 15.125 9.375 15.125H9.75C10.1484 15.125 10.5 14.7969 10.5 14.375V11.7734ZM12 6.5C8.625 6.5 6.09375 9.3125 6 12.5V13.4375C6 13.7656 6.23438 14 6.5625 14C6.86719 14 7.125 13.7656 7.125 13.4375V12.5C7.125 9.82812 9.30469 7.64844 12 7.64844C14.6719 7.64844 16.875 9.82812 16.875 12.5V15.875C16.875 16.4141 16.4531 16.8125 15.9375 16.8125H13.3359C13.1484 16.4844 12.7734 16.25 12.375 16.25H11.6484C11.1094 16.25 10.6172 16.625 10.5 17.1641C10.3828 17.8906 10.9219 18.5 11.625 18.5H12.375C12.7734 18.5 13.1484 18.2891 13.3359 17.9375H15.9375C17.0625 17.9375 18 17.0234 18 15.875V12.5C17.8828 9.3125 15.3516 6.5 12 6.5ZM14.625 15.125C15.4453 15.125 16.125 14.4688 16.125 13.625V12.5234C16.125 11.6797 15.4453 11 14.625 11H14.25C13.8281 11 13.5 11.3516 13.5 11.7734V14.375C13.5 14.7969 13.8281 15.125 14.25 15.125H14.625Z" fill="white"/>
</svg>
