<svg width="139" height="32" viewBox="0 0 139 32" fill="none" xmlns="http://www.w3.org/2000/svg">
<path d="M94.1673 0C93.6386 0.00101526 93.1227 0.16277 92.6881 0.4638C92.2535 0.764829 91.9207 1.1909 91.7339 1.68547L81.5069 28.3841C81.2539 29.0351 81.2666 29.7594 81.5422 30.4012C81.8178 31.043 82.3343 31.5509 82.9805 31.8158C83.2817 31.9362 83.603 31.9987 83.9273 32C84.4553 31.9977 84.9701 31.8352 85.4036 31.5339C85.8372 31.2326 86.169 30.8067 86.3551 30.3127L88.0775 25.8199H100.296L102.022 30.3127C102.207 30.8072 102.539 31.2334 102.973 31.5348C103.406 31.8363 103.921 31.9985 104.45 32C104.773 31.9985 105.094 31.936 105.395 31.8158C106.042 31.5521 106.559 31.0442 106.835 30.4021C107.111 29.7599 107.123 29.035 106.868 28.3841L96.6466 1.68547C96.4629 1.19657 96.1362 0.774334 95.709 0.473716C95.2819 0.173098 94.7742 0.00802817 94.252 0H94.1691H94.1673ZM94.1949 9.88073L98.2713 20.5185H90.1184L94.1949 9.88073ZM0.0111461 11.1831C0.0111461 11.2733 9.37934e-05 11.3673 9.37934e-05 11.4501V29.2259C-0.00282126 29.5708 0.062239 29.913 0.19156 30.2328C0.32088 30.5526 0.511928 30.8438 0.753795 31.0898C0.995662 31.3358 1.28361 31.5317 1.6012 31.6664C1.91878 31.801 2.25979 31.8719 2.60474 31.8747C2.95001 31.8723 3.29141 31.8019 3.60943 31.6674C3.92744 31.5329 4.21582 31.3371 4.45808 31.0911C4.70033 30.8451 4.89171 30.5537 5.02126 30.2336C5.15081 29.9136 5.21599 29.5711 5.21308 29.2259V21.003C7.08049 22.2215 9.26283 22.8687 11.4926 22.8653C17.8219 22.8653 22.9741 17.7463 22.9741 11.4446C22.9741 5.14852 17.8163 0.0239475 11.4926 0.0239475C8.50117 0.0180888 5.62595 1.18185 3.48078 3.2668C1.33561 5.35174 0.0904571 8.19266 0.0111461 11.1831ZM5.22045 11.4501C5.22045 8.07737 8.03141 5.33456 11.4926 5.33456C14.9501 5.33456 17.7556 8.07737 17.7556 11.4501C17.7556 14.8248 14.9446 17.5657 11.4926 17.5657C8.03141 17.5657 5.22966 14.8248 5.22966 11.4501H5.22045ZM27.2624 2.64518C27.2619 3.34186 27.5378 4.01028 28.0295 4.50377C28.5213 4.99726 29.1887 5.27551 29.8854 5.27746C30.2287 5.27602 30.5683 5.20665 30.8847 5.07334C31.201 4.94002 31.4878 4.74539 31.7286 4.50069C31.9693 4.25599 32.1593 3.96605 32.2875 3.64759C32.4156 3.32913 32.4795 2.98844 32.4753 2.64518C32.4758 2.30476 32.4092 1.96758 32.2793 1.65293C32.1493 1.33828 31.9586 1.05233 31.7181 0.811449C31.4775 0.570562 31.1919 0.379462 30.8774 0.249076C30.5629 0.118691 30.2258 0.0515767 29.8854 0.051577C29.1947 0.0510532 28.5316 0.323206 28.0404 0.808874C27.5493 1.29454 27.2696 1.95447 27.2624 2.64518ZM126.401 2.71702V22.5779C126.401 27.7044 130.502 31.8747 135.547 31.8747C135.892 31.8721 136.233 31.8015 136.551 31.6669C136.869 31.5323 137.157 31.3364 137.399 31.0904C137.641 30.8444 137.832 30.5531 137.962 30.2332C138.091 29.9133 138.156 29.571 138.153 29.2259C138.156 28.8809 138.091 28.5388 137.962 28.219C137.833 27.8992 137.642 27.608 137.4 27.362C137.158 27.116 136.87 26.9201 136.552 26.7854C136.235 26.6507 135.894 26.5799 135.549 26.577C134.497 26.5673 133.493 26.1407 132.755 25.391C132.018 24.6412 131.608 23.6295 131.616 22.5779V13.7656H135.549C135.894 13.7627 136.235 13.6918 136.553 13.557C136.87 13.4222 137.159 13.2262 137.4 12.98C137.642 12.7338 137.833 12.4424 137.962 12.1224C138.092 11.8024 138.157 11.46 138.153 11.1149C138.159 10.4185 137.887 9.74856 137.399 9.25219C136.911 8.75583 136.245 8.47372 135.549 8.46788H131.616V2.71702C131.619 2.37182 131.553 2.02948 131.424 1.70954C131.294 1.3896 131.103 1.09833 130.86 0.852362C130.618 0.60639 130.33 0.410535 130.012 0.275981C129.694 0.141426 129.353 0.0708054 129.008 0.0681548C128.663 0.0710454 128.322 0.141858 128.004 0.276543C127.687 0.411227 127.399 0.607149 127.157 0.853121C126.915 1.09909 126.724 1.39029 126.594 1.7101C126.465 2.02991 126.4 2.37206 126.403 2.71702H126.401ZM115.546 9.76836C115.319 9.37454 114.992 9.04721 114.599 8.81902C114.205 8.59083 113.759 8.46976 113.304 8.46788C112.609 8.47566 111.946 8.75862 111.459 9.25477C110.972 9.75093 110.702 10.4198 110.707 11.1149V29.3327C110.702 30.0292 110.974 30.6992 111.463 31.1955C111.951 31.6918 112.617 31.9739 113.313 31.9797C114.01 31.9739 114.676 31.692 115.166 31.1958C115.655 30.6996 115.928 30.0296 115.924 29.3327V18.0797C115.924 15.7016 117.95 13.7656 120.435 13.7656C121.132 13.7593 121.798 13.4766 122.287 12.9796C122.775 12.4826 123.047 11.8119 123.041 11.1149C123.046 10.4184 122.774 9.74839 122.286 9.25208C121.797 8.75577 121.131 8.47372 120.435 8.46788C118.722 8.46471 117.039 8.91329 115.555 9.76836H115.546ZM63.2559 10.7833C62.6235 11.386 62.1176 12.1088 61.7678 12.9093C61.418 13.7098 61.2313 14.572 61.2186 15.4455C61.2186 21.0269 67.1389 22.3643 69.0841 22.8045C72.8659 23.6592 72.8659 24.5931 72.8659 24.9947C72.8358 25.3168 72.6819 25.6146 72.4367 25.8255C71.884 26.3781 70.9391 26.647 69.7694 26.5954C68.736 26.5475 67.4208 26.2805 65.5161 24.6318C65.257 24.4067 64.9556 24.2356 64.6295 24.1285C64.3035 24.0214 63.9593 23.9805 63.6172 24.0081C63.2752 24.0357 62.942 24.1314 62.6374 24.2894C62.3327 24.4474 62.0627 24.6647 61.8431 24.9284C61.3937 25.4649 61.1725 26.1561 61.2269 26.8538C61.2813 27.5515 61.607 28.2 62.1341 28.6604C64.5398 30.7474 66.8958 31.7716 69.5446 31.8858C69.7086 31.8858 69.8688 31.8987 70.0309 31.8987C72.4256 31.8987 74.544 31.1103 76.0397 29.6514C76.6715 29.0493 77.1772 28.3275 77.5273 27.528C77.8774 26.7285 78.0649 25.8674 78.0788 24.9947C78.0788 19.4115 72.1603 18.0723 70.2151 17.6265C66.4316 16.7737 66.4316 15.8361 66.4316 15.44C66.4629 15.1158 66.6172 14.8159 66.8626 14.6019C67.4152 14.0585 68.3694 13.8006 69.5299 13.8374C70.5633 13.8835 71.8767 14.1506 73.785 15.8029C74.0442 16.0276 74.3456 16.1983 74.6715 16.3051C74.9975 16.4119 75.3414 16.4526 75.6833 16.4248C76.0252 16.397 76.3581 16.3013 76.6625 16.1433C76.9669 15.9852 77.2368 15.7681 77.4562 15.5045C77.905 14.9676 78.126 14.2764 78.072 13.5787C78.0179 12.881 77.6931 12.2321 77.167 11.7707C74.7595 9.68547 72.4035 8.6613 69.7528 8.54525C69.587 8.54525 69.4231 8.5342 69.2591 8.5342C66.8755 8.5342 64.7516 9.32628 63.2578 10.7796L63.2559 10.7833ZM40.0885 11.9659C40.0781 11.9764 40.0682 11.9875 40.059 11.9991C37.9259 14.2042 36.7334 17.1521 36.7334 20.2201C36.7334 23.2882 37.9259 26.2361 40.059 28.4412C40.0719 28.4504 40.0775 28.4651 40.0922 28.4743C41.15 29.5547 42.413 30.4128 43.8071 30.9983C45.2011 31.5839 46.6981 31.885 48.2101 31.8839C49.7225 31.8855 51.2199 31.5847 52.6143 30.9991C54.0087 30.4136 55.272 29.5552 56.3298 28.4743C56.8196 27.9741 57.0938 27.3019 57.0938 26.6019C57.0938 25.9018 56.8196 25.2297 56.3298 24.7294C56.0897 24.4844 55.8031 24.2897 55.4868 24.1568C55.1705 24.0239 54.8309 23.9554 54.4878 23.9554C54.1447 23.9554 53.805 24.0239 53.4887 24.1568C53.1724 24.2897 52.8858 24.4844 52.6457 24.7294C52.068 25.32 51.3781 25.7892 50.6166 26.1096C49.855 26.4299 49.0372 26.5949 48.211 26.5949C47.3848 26.5949 46.567 26.4299 45.8055 26.1096C45.0439 25.7892 44.354 25.32 43.7763 24.7294L43.7652 24.7184C42.5965 23.5134 41.9428 21.9007 41.9428 20.222C41.9428 18.5433 42.5965 16.9305 43.7652 15.7255C43.7652 15.7255 43.7652 15.7255 43.7763 15.7163C44.3543 15.1262 45.0443 14.6574 45.8058 14.3373C46.5673 14.0173 47.385 13.8524 48.211 13.8524C49.037 13.8524 49.8548 14.0173 50.6163 14.3373C51.3778 14.6574 52.0677 15.1262 52.6457 15.7163C52.8859 15.9615 53.1725 16.1565 53.4887 16.2899C53.8049 16.4234 54.1445 16.4926 54.4878 16.4937C54.8312 16.493 55.1711 16.4237 55.4874 16.2899C55.8037 16.1561 56.0901 15.9605 56.3298 15.7145C56.8197 15.214 57.094 14.5415 57.094 13.8411C57.094 13.1408 56.8197 12.4683 56.3298 11.9678C55.2717 10.8872 54.0084 10.0288 52.6141 9.44297C51.2198 8.85715 49.7225 8.5557 48.2101 8.5563C46.6979 8.55553 45.2009 8.85691 43.8068 9.44275C42.4128 10.0286 41.1499 10.8871 40.0922 11.9678L40.0885 11.9659ZM27.2624 11.2512V29.2259C27.2597 29.5711 27.325 29.9134 27.4547 30.2334C27.5843 30.5533 27.7757 30.8446 28.0179 31.0905C28.2601 31.3365 28.5484 31.5324 28.8663 31.6669C29.1842 31.8015 29.5255 31.8721 29.8707 31.8747C30.2158 31.8721 30.557 31.8015 30.8748 31.6669C31.1926 31.5323 31.4808 31.3364 31.7228 31.0904C31.9649 30.8444 32.1561 30.5531 32.2855 30.2332C32.415 29.9133 32.4801 29.571 32.4772 29.2259V11.2512C32.4799 10.9063 32.4146 10.5642 32.285 10.2444C32.1555 9.92472 31.9642 9.63366 31.7222 9.38786C31.4801 9.14206 31.1921 8.94634 30.8744 8.81187C30.5567 8.67741 30.2156 8.60684 29.8707 8.60419C29.1739 8.60954 28.5077 8.89138 28.0186 9.38774C27.5294 9.88411 27.2574 10.5544 27.2624 11.2512Z" fill="white"/>
</svg>
