<svg width="24" height="24" viewBox="0 0 24 24" fill="none" xmlns="http://www.w3.org/2000/svg">
<path d="M12 14.7734C11.6016 14.7734 11.2031 14.6328 10.875 14.375L6 10.5781V15.875C6 16.5078 6.49219 17 7.125 17H16.875C17.4844 17 18 16.5078 18 15.875V10.5781L13.1016 14.375C12.7734 14.6328 12.375 14.7734 12 14.7734ZM6.375 9.92188L11.3438 13.7891C11.7188 14.0703 12.2578 14.0703 12.6328 13.7891L17.6016 9.92188C17.8359 9.73438 18 9.45312 18 9.125C18 8.51562 17.4844 8 16.875 8H7.125C6.49219 8 6 8.51562 6 9.125C6 9.45312 6.14062 9.73438 6.375 9.92188Z" fill="white"/>
</svg>
