<svg width="24" height="24" viewBox="0 0 24 24" fill="none" xmlns="http://www.w3.org/2000/svg">
<path d="M17.9766 15.5703C18.0469 15.2422 17.8828 14.8906 17.5547 14.75L15 13.6484C14.6953 13.5312 14.3438 13.6016 14.1562 13.8594L13.125 15.125C11.4844 14.3281 10.1719 13.0156 9.375 11.3984L10.6406 10.3438C10.8984 10.1562 10.9688 9.80469 10.8516 9.5L9.75 6.94531C9.60938 6.64062 9.25781 6.45312 8.90625 6.52344L6.5625 7.08594C6.21094 7.15625 6 7.4375 6 7.78906C6 13.6953 10.8047 18.5234 16.7109 18.5234C17.0625 18.5234 17.3438 18.2891 17.4141 17.9375L17.9766 15.5703Z" fill="white"/>
</svg>
