<svg width="1280" height="511" viewBox="0 0 1280 511" fill="none" xmlns="http://www.w3.org/2000/svg">
<g opacity="0.4" filter="url(#filter0_f_121_6705)">
<line x1="-4.37114e-08" y1="464.502" x2="1280" y2="464.502" stroke="#AD00FF"/>
<line x1="-4.37114e-08" y1="432.502" x2="1280" y2="432.501" stroke="#AD00FF"/>
<line x1="-4.37114e-08" y1="400.501" x2="1280" y2="400.501" stroke="#AD00FF"/>
<line x1="-4.37114e-08" y1="368.501" x2="1280" y2="368.501" stroke="#AD00FF"/>
<line x1="-4.37114e-08" y1="336.501" x2="1280" y2="336.501" stroke="#AD00FF"/>
<line x1="-4.37114e-08" y1="304.501" x2="1280" y2="304.501" stroke="#AD00FF"/>
<line x1="-4.37114e-08" y1="272.501" x2="1280" y2="272.501" stroke="#AD00FF"/>
<line x1="-4.37114e-08" y1="240.501" x2="1280" y2="240.501" stroke="#AD00FF"/>
<line x1="-4.37114e-08" y1="208.501" x2="1280" y2="208.501" stroke="#AD00FF"/>
<line x1="-4.37114e-08" y1="176.501" x2="1280" y2="176.501" stroke="#AD00FF"/>
<line x1="-4.37114e-08" y1="144.5" x2="1280" y2="144.5" stroke="#AD00FF"/>
<line x1="-4.37114e-08" y1="112.5" x2="1280" y2="112.5" stroke="#AD00FF"/>
<line x1="-4.37114e-08" y1="80.5002" x2="1280" y2="80.5001" stroke="#AD00FF"/>
<line x1="-4.37114e-08" y1="48.5001" x2="1280" y2="48.5" stroke="#AD00FF"/>
<line x1="32.5" y1="16" x2="32.5001" y2="495" stroke="#AD00FF"/>
<line x1="64.5" y1="16" x2="64.5001" y2="495" stroke="#AD00FF"/>
<line x1="96.5002" y1="16" x2="96.5003" y2="495" stroke="#AD00FF"/>
<line x1="128.5" y1="16" x2="128.501" y2="495" stroke="#AD00FF"/>
<line x1="160.5" y1="16" x2="160.501" y2="495" stroke="#AD00FF"/>
<line x1="192.5" y1="16" x2="192.501" y2="495" stroke="#AD00FF"/>
<line x1="224.501" y1="16" x2="224.501" y2="495" stroke="#AD00FF"/>
<line x1="256.501" y1="16" x2="256.501" y2="495" stroke="#AD00FF"/>
<line x1="288.501" y1="16" x2="288.501" y2="495" stroke="#AD00FF"/>
<line x1="320.501" y1="16" x2="320.501" y2="495" stroke="#AD00FF"/>
<line x1="352.501" y1="16" x2="352.501" y2="495" stroke="#AD00FF"/>
<line x1="384.501" y1="16" x2="384.502" y2="495" stroke="#AD00FF"/>
<line x1="416.501" y1="16" x2="416.502" y2="495" stroke="#AD00FF"/>
<line x1="448.501" y1="16" x2="448.502" y2="495" stroke="#AD00FF"/>
<line x1="480.5" y1="16" x2="480.5" y2="495" stroke="#AD00FF"/>
<line x1="512.5" y1="16" x2="512.5" y2="495" stroke="#AD00FF"/>
<line x1="544.5" y1="16" x2="544.5" y2="495" stroke="#AD00FF"/>
<line x1="576.5" y1="16" x2="576.501" y2="495" stroke="#AD00FF"/>
<line x1="608.5" y1="16" x2="608.501" y2="495" stroke="#AD00FF"/>
<line x1="640.5" y1="16" x2="640.501" y2="495" stroke="#AD00FF"/>
<line x1="672.501" y1="16" x2="672.501" y2="495" stroke="#AD00FF"/>
<line x1="704.501" y1="16" x2="704.501" y2="495" stroke="#AD00FF"/>
<line x1="736.501" y1="16" x2="736.501" y2="495" stroke="#AD00FF"/>
<line x1="768.501" y1="16" x2="768.501" y2="495" stroke="#AD00FF"/>
<line x1="800.501" y1="16" x2="800.501" y2="495" stroke="#AD00FF"/>
<line x1="832.501" y1="16" x2="832.502" y2="495" stroke="#AD00FF"/>
<line x1="864.501" y1="16" x2="864.502" y2="495" stroke="#AD00FF"/>
<line x1="896.501" y1="16" x2="896.502" y2="495" stroke="#AD00FF"/>
<line x1="928.5" y1="16" x2="928.5" y2="495" stroke="#AD00FF"/>
<line x1="960.5" y1="16" x2="960.5" y2="495" stroke="#AD00FF"/>
<line x1="992.5" y1="16" x2="992.5" y2="495" stroke="#AD00FF"/>
<line x1="1024.5" y1="16" x2="1024.5" y2="495" stroke="#AD00FF"/>
<line x1="1056.5" y1="16" x2="1056.5" y2="495" stroke="#AD00FF"/>
<line x1="1088.5" y1="16" x2="1088.5" y2="495" stroke="#AD00FF"/>
<line x1="1120.5" y1="16" x2="1120.5" y2="495" stroke="#AD00FF"/>
<line x1="1152.5" y1="16" x2="1152.5" y2="495" stroke="#AD00FF"/>
<line x1="1184.5" y1="16" x2="1184.5" y2="495" stroke="#AD00FF"/>
<line x1="1216.5" y1="16" x2="1216.5" y2="495" stroke="#AD00FF"/>
<line x1="1248.5" y1="16" x2="1248.5" y2="495" stroke="#AD00FF"/>
</g>
<g opacity="0.4">
<line x1="-2.18557e-08" y1="464.752" x2="1280" y2="464.752" stroke="url(#paint0_linear_121_6705)" stroke-width="0.5"/>
<line x1="-2.18557e-08" y1="432.752" x2="1280" y2="432.751" stroke="url(#paint1_linear_121_6705)" stroke-width="0.5"/>
<line x1="-2.18557e-08" y1="400.751" x2="1280" y2="400.751" stroke="url(#paint2_linear_121_6705)" stroke-width="0.5"/>
<line x1="-2.18557e-08" y1="368.751" x2="1280" y2="368.751" stroke="url(#paint3_linear_121_6705)" stroke-width="0.5"/>
<line x1="-2.18557e-08" y1="336.751" x2="1280" y2="336.751" stroke="url(#paint4_linear_121_6705)" stroke-width="0.5"/>
<line x1="-2.18557e-08" y1="304.751" x2="1280" y2="304.751" stroke="url(#paint5_linear_121_6705)" stroke-width="0.5"/>
<line x1="-2.18557e-08" y1="272.751" x2="1280" y2="272.751" stroke="url(#paint6_linear_121_6705)" stroke-width="0.5"/>
<line x1="-2.18557e-08" y1="240.751" x2="1280" y2="240.751" stroke="url(#paint7_linear_121_6705)" stroke-width="0.5"/>
<line x1="-2.18557e-08" y1="208.751" x2="1280" y2="208.751" stroke="url(#paint8_linear_121_6705)" stroke-width="0.5"/>
<line x1="-2.18557e-08" y1="176.751" x2="1280" y2="176.751" stroke="url(#paint9_linear_121_6705)" stroke-width="0.5"/>
<line x1="-2.18557e-08" y1="144.75" x2="1280" y2="144.75" stroke="url(#paint10_linear_121_6705)" stroke-width="0.5"/>
<line x1="-2.18557e-08" y1="112.75" x2="1280" y2="112.75" stroke="url(#paint11_linear_121_6705)" stroke-width="0.5"/>
<line x1="-2.18557e-08" y1="80.7502" x2="1280" y2="80.7501" stroke="url(#paint12_linear_121_6705)" stroke-width="0.5"/>
<line x1="-2.18557e-08" y1="48.7501" x2="1280" y2="48.75" stroke="url(#paint13_linear_121_6705)" stroke-width="0.5"/>
<line x1="32.25" y1="16" x2="32.2501" y2="495" stroke="url(#paint14_linear_121_6705)" stroke-width="0.5"/>
<line x1="64.25" y1="16" x2="64.2501" y2="495" stroke="url(#paint15_linear_121_6705)" stroke-width="0.5"/>
<line x1="96.2502" y1="16" x2="96.2503" y2="495" stroke="url(#paint16_linear_121_6705)" stroke-width="0.5"/>
<line x1="128.25" y1="16" x2="128.251" y2="495" stroke="url(#paint17_linear_121_6705)" stroke-width="0.5"/>
<line x1="160.25" y1="16" x2="160.251" y2="495" stroke="url(#paint18_linear_121_6705)" stroke-width="0.5"/>
<line x1="192.25" y1="16" x2="192.251" y2="495" stroke="url(#paint19_linear_121_6705)" stroke-width="0.5"/>
<line x1="224.251" y1="16" x2="224.251" y2="495" stroke="url(#paint20_linear_121_6705)" stroke-width="0.5"/>
<line x1="256.251" y1="16" x2="256.251" y2="495" stroke="url(#paint21_linear_121_6705)" stroke-width="0.5"/>
<line x1="288.251" y1="16" x2="288.251" y2="495" stroke="url(#paint22_linear_121_6705)" stroke-width="0.5"/>
<line x1="320.251" y1="16" x2="320.251" y2="495" stroke="url(#paint23_linear_121_6705)" stroke-width="0.5"/>
<line x1="352.251" y1="16" x2="352.251" y2="495" stroke="url(#paint24_linear_121_6705)" stroke-width="0.5"/>
<line x1="384.251" y1="16" x2="384.252" y2="495" stroke="url(#paint25_linear_121_6705)" stroke-width="0.5"/>
<line x1="416.251" y1="16" x2="416.252" y2="495" stroke="url(#paint26_linear_121_6705)" stroke-width="0.5"/>
<line x1="448.251" y1="16" x2="448.252" y2="495" stroke="url(#paint27_linear_121_6705)" stroke-width="0.5"/>
<line x1="480.25" y1="16" x2="480.25" y2="495" stroke="url(#paint28_linear_121_6705)" stroke-width="0.5"/>
<line x1="512.25" y1="16" x2="512.25" y2="495" stroke="url(#paint29_linear_121_6705)" stroke-width="0.5"/>
<line x1="544.25" y1="16" x2="544.25" y2="495" stroke="url(#paint30_linear_121_6705)" stroke-width="0.5"/>
<line x1="576.25" y1="16" x2="576.251" y2="495" stroke="url(#paint31_linear_121_6705)" stroke-width="0.5"/>
<line x1="608.25" y1="16" x2="608.251" y2="495" stroke="url(#paint32_linear_121_6705)" stroke-width="0.5"/>
<line x1="640.25" y1="16" x2="640.251" y2="495" stroke="url(#paint33_linear_121_6705)" stroke-width="0.5"/>
<line x1="672.251" y1="16" x2="672.251" y2="495" stroke="url(#paint34_linear_121_6705)" stroke-width="0.5"/>
<line x1="704.251" y1="16" x2="704.251" y2="495" stroke="url(#paint35_linear_121_6705)" stroke-width="0.5"/>
<line x1="736.251" y1="16" x2="736.251" y2="495" stroke="url(#paint36_linear_121_6705)" stroke-width="0.5"/>
<line x1="768.251" y1="16" x2="768.251" y2="495" stroke="url(#paint37_linear_121_6705)" stroke-width="0.5"/>
<line x1="800.251" y1="16" x2="800.251" y2="495" stroke="url(#paint38_linear_121_6705)" stroke-width="0.5"/>
<line x1="832.251" y1="16" x2="832.252" y2="495" stroke="url(#paint39_linear_121_6705)" stroke-width="0.5"/>
<line x1="864.251" y1="16" x2="864.252" y2="495" stroke="url(#paint40_linear_121_6705)" stroke-width="0.5"/>
<line x1="896.251" y1="16" x2="896.252" y2="495" stroke="url(#paint41_linear_121_6705)" stroke-width="0.5"/>
<line x1="928.25" y1="16" x2="928.25" y2="495" stroke="url(#paint42_linear_121_6705)" stroke-width="0.5"/>
<line x1="960.25" y1="16" x2="960.25" y2="495" stroke="url(#paint43_linear_121_6705)" stroke-width="0.5"/>
<line x1="992.25" y1="16" x2="992.25" y2="495" stroke="url(#paint44_linear_121_6705)" stroke-width="0.5"/>
<line x1="1024.25" y1="16" x2="1024.25" y2="495" stroke="url(#paint45_linear_121_6705)" stroke-width="0.5"/>
<line x1="1056.25" y1="16" x2="1056.25" y2="495" stroke="url(#paint46_linear_121_6705)" stroke-width="0.5"/>
<line x1="1088.25" y1="16" x2="1088.25" y2="495" stroke="url(#paint47_linear_121_6705)" stroke-width="0.5"/>
<line x1="1120.25" y1="16" x2="1120.25" y2="495" stroke="url(#paint48_linear_121_6705)" stroke-width="0.5"/>
<line x1="1152.25" y1="16" x2="1152.25" y2="495" stroke="url(#paint49_linear_121_6705)" stroke-width="0.5"/>
<line x1="1184.25" y1="16" x2="1184.25" y2="495" stroke="url(#paint50_linear_121_6705)" stroke-width="0.5"/>
<line x1="1216.25" y1="16" x2="1216.25" y2="495" stroke="url(#paint51_linear_121_6705)" stroke-width="0.5"/>
<line x1="1248.25" y1="16" x2="1248.25" y2="495" stroke="url(#paint52_linear_121_6705)" stroke-width="0.5"/>
</g>
<defs>
<filter id="filter0_f_121_6705" x="-16" y="0" width="1312" height="511" filterUnits="userSpaceOnUse" color-interpolation-filters="sRGB">
<feFlood flood-opacity="0" result="BackgroundImageFix"/>
<feBlend mode="normal" in="SourceGraphic" in2="BackgroundImageFix" result="shape"/>
<feGaussianBlur stdDeviation="8" result="effect1_foregroundBlur_121_6705"/>
</filter>
<linearGradient id="paint0_linear_121_6705" x1="640" y1="465.002" x2="640" y2="466.002" gradientUnits="userSpaceOnUse">
<stop stop-color="#AD00FF"/>
<stop offset="1" stop-color="#AD00FF"/>
</linearGradient>
<linearGradient id="paint1_linear_121_6705" x1="640" y1="433.002" x2="640" y2="434.002" gradientUnits="userSpaceOnUse">
<stop stop-color="#AD00FF"/>
<stop offset="1" stop-color="#AD00FF"/>
</linearGradient>
<linearGradient id="paint2_linear_121_6705" x1="640" y1="401.001" x2="640" y2="402.001" gradientUnits="userSpaceOnUse">
<stop stop-color="#AD00FF"/>
<stop offset="1" stop-color="#AD00FF"/>
</linearGradient>
<linearGradient id="paint3_linear_121_6705" x1="640" y1="369.001" x2="640" y2="370.001" gradientUnits="userSpaceOnUse">
<stop stop-color="#AD00FF"/>
<stop offset="1" stop-color="#AD00FF"/>
</linearGradient>
<linearGradient id="paint4_linear_121_6705" x1="640" y1="337.001" x2="640" y2="338.001" gradientUnits="userSpaceOnUse">
<stop stop-color="#AD00FF"/>
<stop offset="1" stop-color="#AD00FF"/>
</linearGradient>
<linearGradient id="paint5_linear_121_6705" x1="640" y1="305.001" x2="640" y2="306.001" gradientUnits="userSpaceOnUse">
<stop stop-color="#AD00FF"/>
<stop offset="1" stop-color="#AD00FF"/>
</linearGradient>
<linearGradient id="paint6_linear_121_6705" x1="640" y1="273.001" x2="640" y2="274.001" gradientUnits="userSpaceOnUse">
<stop stop-color="#AD00FF"/>
<stop offset="1" stop-color="#AD00FF"/>
</linearGradient>
<linearGradient id="paint7_linear_121_6705" x1="640" y1="241.001" x2="640" y2="242.001" gradientUnits="userSpaceOnUse">
<stop stop-color="#AD00FF"/>
<stop offset="1" stop-color="#AD00FF"/>
</linearGradient>
<linearGradient id="paint8_linear_121_6705" x1="640" y1="209.001" x2="640" y2="210.001" gradientUnits="userSpaceOnUse">
<stop stop-color="#AD00FF"/>
<stop offset="1" stop-color="#AD00FF"/>
</linearGradient>
<linearGradient id="paint9_linear_121_6705" x1="640" y1="177.001" x2="640" y2="178.001" gradientUnits="userSpaceOnUse">
<stop stop-color="#AD00FF"/>
<stop offset="1" stop-color="#AD00FF"/>
</linearGradient>
<linearGradient id="paint10_linear_121_6705" x1="640" y1="145" x2="640" y2="146" gradientUnits="userSpaceOnUse">
<stop stop-color="#AD00FF"/>
<stop offset="1" stop-color="#AD00FF"/>
</linearGradient>
<linearGradient id="paint11_linear_121_6705" x1="640" y1="113" x2="640" y2="114" gradientUnits="userSpaceOnUse">
<stop stop-color="#AD00FF"/>
<stop offset="1" stop-color="#AD00FF"/>
</linearGradient>
<linearGradient id="paint12_linear_121_6705" x1="640" y1="81.0002" x2="640" y2="82.0002" gradientUnits="userSpaceOnUse">
<stop stop-color="#AD00FF"/>
<stop offset="1" stop-color="#AD00FF"/>
</linearGradient>
<linearGradient id="paint13_linear_121_6705" x1="640" y1="49.0001" x2="640" y2="50.0001" gradientUnits="userSpaceOnUse">
<stop stop-color="#AD00FF"/>
<stop offset="1" stop-color="#AD00FF"/>
</linearGradient>
<linearGradient id="paint14_linear_121_6705" x1="32" y1="255.5" x2="31" y2="255.5" gradientUnits="userSpaceOnUse">
<stop stop-color="#AD00FF"/>
<stop offset="1" stop-color="#AD00FF"/>
</linearGradient>
<linearGradient id="paint15_linear_121_6705" x1="64" y1="255.5" x2="63" y2="255.5" gradientUnits="userSpaceOnUse">
<stop stop-color="#AD00FF"/>
<stop offset="1" stop-color="#AD00FF"/>
</linearGradient>
<linearGradient id="paint16_linear_121_6705" x1="96.0003" y1="255.5" x2="95.0003" y2="255.5" gradientUnits="userSpaceOnUse">
<stop stop-color="#AD00FF"/>
<stop offset="1" stop-color="#AD00FF"/>
</linearGradient>
<linearGradient id="paint17_linear_121_6705" x1="128.001" y1="255.5" x2="127.001" y2="255.5" gradientUnits="userSpaceOnUse">
<stop stop-color="#AD00FF"/>
<stop offset="1" stop-color="#AD00FF"/>
</linearGradient>
<linearGradient id="paint18_linear_121_6705" x1="160.001" y1="255.5" x2="159.001" y2="255.5" gradientUnits="userSpaceOnUse">
<stop stop-color="#AD00FF"/>
<stop offset="1" stop-color="#AD00FF"/>
</linearGradient>
<linearGradient id="paint19_linear_121_6705" x1="192.001" y1="255.5" x2="191.001" y2="255.5" gradientUnits="userSpaceOnUse">
<stop stop-color="#AD00FF"/>
<stop offset="1" stop-color="#AD00FF"/>
</linearGradient>
<linearGradient id="paint20_linear_121_6705" x1="224.001" y1="255.5" x2="223.001" y2="255.5" gradientUnits="userSpaceOnUse">
<stop stop-color="#AD00FF"/>
<stop offset="1" stop-color="#AD00FF"/>
</linearGradient>
<linearGradient id="paint21_linear_121_6705" x1="256.001" y1="255.5" x2="255.001" y2="255.5" gradientUnits="userSpaceOnUse">
<stop stop-color="#AD00FF"/>
<stop offset="1" stop-color="#AD00FF"/>
</linearGradient>
<linearGradient id="paint22_linear_121_6705" x1="288.001" y1="255.5" x2="287.001" y2="255.5" gradientUnits="userSpaceOnUse">
<stop stop-color="#AD00FF"/>
<stop offset="1" stop-color="#AD00FF"/>
</linearGradient>
<linearGradient id="paint23_linear_121_6705" x1="320.001" y1="255.5" x2="319.001" y2="255.5" gradientUnits="userSpaceOnUse">
<stop stop-color="#AD00FF"/>
<stop offset="1" stop-color="#AD00FF"/>
</linearGradient>
<linearGradient id="paint24_linear_121_6705" x1="352.001" y1="255.5" x2="351.001" y2="255.5" gradientUnits="userSpaceOnUse">
<stop stop-color="#AD00FF"/>
<stop offset="1" stop-color="#AD00FF"/>
</linearGradient>
<linearGradient id="paint25_linear_121_6705" x1="384.001" y1="255.5" x2="383.001" y2="255.5" gradientUnits="userSpaceOnUse">
<stop stop-color="#AD00FF"/>
<stop offset="1" stop-color="#AD00FF"/>
</linearGradient>
<linearGradient id="paint26_linear_121_6705" x1="416.001" y1="255.5" x2="415.001" y2="255.5" gradientUnits="userSpaceOnUse">
<stop stop-color="#AD00FF"/>
<stop offset="1" stop-color="#AD00FF"/>
</linearGradient>
<linearGradient id="paint27_linear_121_6705" x1="448.001" y1="255.5" x2="447.001" y2="255.5" gradientUnits="userSpaceOnUse">
<stop stop-color="#AD00FF"/>
<stop offset="1" stop-color="#AD00FF"/>
</linearGradient>
<linearGradient id="paint28_linear_121_6705" x1="480" y1="255.5" x2="479" y2="255.5" gradientUnits="userSpaceOnUse">
<stop stop-color="#AD00FF"/>
<stop offset="1" stop-color="#AD00FF"/>
</linearGradient>
<linearGradient id="paint29_linear_121_6705" x1="512" y1="255.5" x2="511" y2="255.5" gradientUnits="userSpaceOnUse">
<stop stop-color="#AD00FF"/>
<stop offset="1" stop-color="#AD00FF"/>
</linearGradient>
<linearGradient id="paint30_linear_121_6705" x1="544" y1="255.5" x2="543" y2="255.5" gradientUnits="userSpaceOnUse">
<stop stop-color="#AD00FF"/>
<stop offset="1" stop-color="#AD00FF"/>
</linearGradient>
<linearGradient id="paint31_linear_121_6705" x1="576.001" y1="255.5" x2="575.001" y2="255.5" gradientUnits="userSpaceOnUse">
<stop stop-color="#AD00FF"/>
<stop offset="1" stop-color="#AD00FF"/>
</linearGradient>
<linearGradient id="paint32_linear_121_6705" x1="608.001" y1="255.5" x2="607.001" y2="255.5" gradientUnits="userSpaceOnUse">
<stop stop-color="#AD00FF"/>
<stop offset="1" stop-color="#AD00FF"/>
</linearGradient>
<linearGradient id="paint33_linear_121_6705" x1="640.001" y1="255.5" x2="639.001" y2="255.5" gradientUnits="userSpaceOnUse">
<stop stop-color="#AD00FF"/>
<stop offset="1" stop-color="#AD00FF"/>
</linearGradient>
<linearGradient id="paint34_linear_121_6705" x1="672.001" y1="255.5" x2="671.001" y2="255.5" gradientUnits="userSpaceOnUse">
<stop stop-color="#AD00FF"/>
<stop offset="1" stop-color="#AD00FF"/>
</linearGradient>
<linearGradient id="paint35_linear_121_6705" x1="704.001" y1="255.5" x2="703.001" y2="255.5" gradientUnits="userSpaceOnUse">
<stop stop-color="#AD00FF"/>
<stop offset="1" stop-color="#AD00FF"/>
</linearGradient>
<linearGradient id="paint36_linear_121_6705" x1="736.001" y1="255.5" x2="735.001" y2="255.5" gradientUnits="userSpaceOnUse">
<stop stop-color="#AD00FF"/>
<stop offset="1" stop-color="#AD00FF"/>
</linearGradient>
<linearGradient id="paint37_linear_121_6705" x1="768.001" y1="255.5" x2="767.001" y2="255.5" gradientUnits="userSpaceOnUse">
<stop stop-color="#AD00FF"/>
<stop offset="1" stop-color="#AD00FF"/>
</linearGradient>
<linearGradient id="paint38_linear_121_6705" x1="800.001" y1="255.5" x2="799.001" y2="255.5" gradientUnits="userSpaceOnUse">
<stop stop-color="#AD00FF"/>
<stop offset="1" stop-color="#AD00FF"/>
</linearGradient>
<linearGradient id="paint39_linear_121_6705" x1="832.001" y1="255.5" x2="831.001" y2="255.5" gradientUnits="userSpaceOnUse">
<stop stop-color="#AD00FF"/>
<stop offset="1" stop-color="#AD00FF"/>
</linearGradient>
<linearGradient id="paint40_linear_121_6705" x1="864.001" y1="255.5" x2="863.001" y2="255.5" gradientUnits="userSpaceOnUse">
<stop stop-color="#AD00FF"/>
<stop offset="1" stop-color="#AD00FF"/>
</linearGradient>
<linearGradient id="paint41_linear_121_6705" x1="896.001" y1="255.5" x2="895.001" y2="255.5" gradientUnits="userSpaceOnUse">
<stop stop-color="#AD00FF"/>
<stop offset="1" stop-color="#AD00FF"/>
</linearGradient>
<linearGradient id="paint42_linear_121_6705" x1="928" y1="255.5" x2="927" y2="255.5" gradientUnits="userSpaceOnUse">
<stop stop-color="#AD00FF"/>
<stop offset="1" stop-color="#AD00FF"/>
</linearGradient>
<linearGradient id="paint43_linear_121_6705" x1="960" y1="255.5" x2="959" y2="255.5" gradientUnits="userSpaceOnUse">
<stop stop-color="#AD00FF"/>
<stop offset="1" stop-color="#AD00FF"/>
</linearGradient>
<linearGradient id="paint44_linear_121_6705" x1="992" y1="255.5" x2="991" y2="255.5" gradientUnits="userSpaceOnUse">
<stop stop-color="#AD00FF"/>
<stop offset="1" stop-color="#AD00FF"/>
</linearGradient>
<linearGradient id="paint45_linear_121_6705" x1="1024" y1="255.5" x2="1023" y2="255.5" gradientUnits="userSpaceOnUse">
<stop stop-color="#AD00FF"/>
<stop offset="1" stop-color="#AD00FF"/>
</linearGradient>
<linearGradient id="paint46_linear_121_6705" x1="1056" y1="255.5" x2="1055" y2="255.5" gradientUnits="userSpaceOnUse">
<stop stop-color="#AD00FF"/>
<stop offset="1" stop-color="#AD00FF"/>
</linearGradient>
<linearGradient id="paint47_linear_121_6705" x1="1088" y1="255.5" x2="1087" y2="255.5" gradientUnits="userSpaceOnUse">
<stop stop-color="#AD00FF"/>
<stop offset="1" stop-color="#AD00FF"/>
</linearGradient>
<linearGradient id="paint48_linear_121_6705" x1="1120" y1="255.5" x2="1119" y2="255.5" gradientUnits="userSpaceOnUse">
<stop stop-color="#AD00FF"/>
<stop offset="1" stop-color="#AD00FF"/>
</linearGradient>
<linearGradient id="paint49_linear_121_6705" x1="1152" y1="255.5" x2="1151" y2="255.5" gradientUnits="userSpaceOnUse">
<stop stop-color="#AD00FF"/>
<stop offset="1" stop-color="#AD00FF"/>
</linearGradient>
<linearGradient id="paint50_linear_121_6705" x1="1184" y1="255.5" x2="1183" y2="255.5" gradientUnits="userSpaceOnUse">
<stop stop-color="#AD00FF"/>
<stop offset="1" stop-color="#AD00FF"/>
</linearGradient>
<linearGradient id="paint51_linear_121_6705" x1="1216" y1="255.5" x2="1215" y2="255.5" gradientUnits="userSpaceOnUse">
<stop stop-color="#AD00FF"/>
<stop offset="1" stop-color="#AD00FF"/>
</linearGradient>
<linearGradient id="paint52_linear_121_6705" x1="1248" y1="255.5" x2="1247" y2="255.5" gradientUnits="userSpaceOnUse">
<stop stop-color="#AD00FF"/>
<stop offset="1" stop-color="#AD00FF"/>
</linearGradient>
</defs>
</svg>
