<svg width="127" height="32" viewBox="0 0 127 32" fill="none" xmlns="http://www.w3.org/2000/svg">
<path d="M0 26.8176H13.29V22.4519H4.81114V6.25146H0V26.8176Z" fill="white"/>
<path fill-rule="evenodd" clip-rule="evenodd" d="M20.0018 26.8178V12.3546H15.1906V26.8178H20.0018ZM17.611 10.3797C19.289 10.3797 20.3284 9.26602 20.3284 7.88504C20.2987 6.45952 19.289 5.39038 17.6407 5.39038C15.9925 5.39038 14.9233 6.47437 14.9233 7.88504C14.9233 9.26602 15.9628 10.3797 17.5813 10.3797H17.611Z" fill="white"/>
<path fill-rule="evenodd" clip-rule="evenodd" d="M22.2441 26.8176H27.0553V18.7397C27.0553 18.309 27.085 17.8784 27.2186 17.5666C27.5602 16.7053 28.362 15.8144 29.6836 15.8144C31.4209 15.8144 32.1189 17.136 32.1189 19.0812V26.8176H36.93V18.5318C36.93 14.0919 34.5541 12.0278 31.3912 12.0278C28.7926 12.0278 27.6641 13.4831 27.0256 14.4631H27.0553V12.3694H22.2441C22.3035 13.7206 22.2441 26.8176 22.2441 26.8176Z" fill="white"/>
<path d="M43.6861 6.25146H38.875V26.8176H43.6861V22.1253L44.8889 20.6106L48.6458 26.8027H54.5557L48.23 17.8338L53.7687 11.7308H47.9776C47.9776 11.7308 44.0277 17.1953 43.6713 17.8487V6.25146H43.6861Z" fill="white"/>
<path fill-rule="evenodd" clip-rule="evenodd" d="M67.4153 20.7889C67.4747 20.4177 67.5786 19.7049 67.5786 18.9031C67.5786 15.1611 65.6779 11.3745 60.6886 11.3745C55.3429 11.3745 52.8779 15.6065 52.8779 19.4376C52.8779 24.1745 55.8775 27.1444 61.1341 27.1444C63.2278 27.1444 65.1434 26.8325 66.7322 26.194L66.0937 23.0163C64.8018 23.4469 63.4654 23.6548 61.832 23.6548C59.5898 23.6548 57.6297 22.7341 57.4663 20.774L67.4153 20.7889ZM57.4218 17.5369C57.5554 16.3044 58.3721 14.478 60.4213 14.478C62.6041 14.478 63.109 16.4232 63.109 17.5369H57.4218Z" fill="white"/>
<path fill-rule="evenodd" clip-rule="evenodd" d="M79.4432 6.25146V13.0969H79.3838C78.6859 12.0723 77.2307 11.4041 75.3003 11.4041C71.6028 11.4041 68.3509 14.3591 68.3806 19.4227C68.3806 24.115 71.3207 27.1591 74.9885 27.1591C76.9783 27.1591 78.8789 26.2979 79.8293 24.6348H79.9184L80.1114 26.8176H84.3731C84.3138 25.793 84.2395 24.0408 84.2395 22.3183V6.25146H79.4432ZM79.4432 20.1206C79.4432 20.4918 79.4135 20.8631 79.3541 21.1749C79.072 22.4965 77.9286 23.432 76.5476 23.432C74.5578 23.432 73.266 21.8283 73.266 19.3039C73.266 16.928 74.3796 15.0125 76.5922 15.0125C78.0771 15.0125 79.1165 16.0371 79.4135 17.2993C79.4729 17.5814 79.4729 17.8932 79.4729 18.1605V20.1206H79.4432Z" fill="white"/>
<path fill-rule="evenodd" clip-rule="evenodd" d="M89.0801 2.28677C89.0801 1.02459 90.1344 0 91.4263 0H118.541C119.833 0 120.887 1.02459 120.887 2.28677V29.7132C120.887 30.9754 119.833 32 118.541 32H91.4263C90.1344 32 89.0801 30.9754 89.0801 29.7132V2.28677ZM98.7172 26.8028V12.3397H93.9061V26.8028H98.7172ZM96.3116 10.3648C97.9896 10.3648 99.029 9.25107 99.029 7.87009C98.9993 6.44457 97.9896 5.37543 96.3413 5.37543C94.6931 5.37543 93.6239 6.45942 93.6239 7.87009C93.6239 9.25107 94.6634 10.3648 96.2819 10.3648H96.3116ZM106.186 26.8028H101.375C101.375 26.8028 101.449 13.7058 101.375 12.3545H106.186V14.4029C106.176 14.4181 106.166 14.4332 106.157 14.4483H106.186V14.4029C106.83 13.424 107.964 12.013 110.522 12.013C113.685 12.013 116.061 14.077 116.061 18.5169V26.8028H111.25V19.0664C111.25 17.1211 110.552 15.7995 108.815 15.7995C107.493 15.7995 106.691 16.6905 106.35 17.5517C106.216 17.8636 106.186 18.2942 106.186 18.7248V26.8028Z" fill="white"/>
<path fill-rule="evenodd" clip-rule="evenodd" d="M123.857 26.5503H124.228V25.7187H124.495L125 26.5503H125.386L124.867 25.7039C125.149 25.6742 125.357 25.496 125.357 25.1544C125.357 24.7684 125.134 24.5456 124.644 24.5456H123.872V26.5503H123.857ZM124.228 24.8426H124.495C124.718 24.8426 124.971 24.8575 124.971 25.1248C124.971 25.392 124.718 25.4069 124.495 25.4069H124.228V24.8426ZM122.773 25.5554C122.773 26.5206 123.56 27.3224 124.54 27.3224C125.52 27.3224 126.307 26.5354 126.307 25.5554C126.307 24.5902 125.52 23.7883 124.54 23.7883C123.56 23.7883 122.773 24.5753 122.773 25.5554ZM123.085 25.5554C123.085 24.7535 123.738 24.1002 124.54 24.1002C125.342 24.1002 125.995 24.7535 125.995 25.5554C125.995 26.3572 125.342 27.0106 124.54 27.0106C123.738 26.9957 123.085 26.3572 123.085 25.5554Z" fill="white"/>
</svg>
