<svg width="110" height="34" viewBox="0 0 110 34" fill="none" xmlns="http://www.w3.org/2000/svg">
<path d="M109.629 10.0231C108.631 7.20939 105.909 5.1889 102.713 5.1889H102.647C100.569 5.1889 98.6963 6.04107 97.3635 7.40931C96.0285 6.04107 94.1559 5.1889 92.0804 5.1889H92.0135C90.1871 5.1889 88.5177 5.84809 87.2356 6.93878V6.38411C87.1916 5.83161 86.7305 5.3975 86.1611 5.3975H81.2586C80.6589 5.3975 80.1749 5.87497 80.1749 6.46781V32.7077C80.1749 33.3009 80.6593 33.778 81.2586 33.778H86.1611C86.7076 33.778 87.1573 33.3755 87.229 32.8551L87.2268 14.0181C87.2268 13.9521 87.229 13.891 87.236 13.8294C87.3143 12.9885 87.9391 12.2977 88.9265 12.2109H89.8303C90.243 12.2474 90.5915 12.3905 90.8656 12.6065C91.2924 12.9404 91.5295 13.4543 91.5295 14.0181L91.548 32.7623C91.548 33.3556 92.0347 33.8352 92.6317 33.8352H97.5342C98.1128 33.8352 98.5836 33.3807 98.6113 32.8148L98.6091 13.9933C98.6069 13.3749 98.8973 12.8159 99.4069 12.4842C99.6581 12.325 99.9604 12.2183 100.308 12.1862H101.212C102.273 12.2773 102.914 13.0705 102.912 13.9933L102.93 32.7124C102.93 33.3057 103.417 33.7827 104.014 33.7827H108.917C109.514 33.7827 110 33.3053 110 32.7124V12.58C110 11.207 109.844 10.6228 109.629 10.0231ZM76.4397 5.46602H73.6356V0.974898C73.6356 0.436275 73.193 0 72.6465 0C72.5818 0 72.5198 0.00910714 72.4595 0.0203827C69.3509 0.861275 69.9735 5.10477 64.2988 5.46602H63.7475C63.6643 5.46602 63.586 5.4773 63.5099 5.49334H63.5055L63.5099 5.49551C63.0255 5.60219 62.6611 6.02503 62.6611 6.53416V11.3666C62.6611 11.9551 63.1478 12.4347 63.7471 12.4347H66.7056L66.7012 32.9245C66.7012 33.5086 67.1808 33.9813 67.7735 33.9813H72.6205C73.211 33.9813 73.6906 33.5086 73.6906 32.9245L73.6928 12.4347H76.4393C77.0364 12.4347 77.523 11.9551 77.523 11.3666V6.53459C77.5239 5.94566 77.0373 5.46602 76.4397 5.46602Z" fill="white"/>
<path d="M58.8007 5.46596H53.8982C53.3012 5.46596 52.8167 5.9456 52.8167 6.53409V16.5255C52.8053 17.1439 52.298 17.6392 51.6683 17.6392H49.6162C48.9799 17.6392 48.4656 17.1348 48.4656 16.5073L48.4471 6.53409C48.4471 5.9456 47.9604 5.46596 47.3634 5.46596H42.4604C41.8607 5.46596 41.3767 5.9456 41.3767 6.53409V17.4848C41.3767 21.6441 44.3859 24.61 48.6081 24.61C48.6081 24.61 51.7766 24.61 51.8734 24.6283C52.4454 24.692 52.8902 25.1647 52.8902 25.7467C52.8902 26.3217 52.4542 26.7923 51.8892 26.8625C51.8615 26.8669 51.836 26.8738 51.806 26.8786L44.6367 26.9037C44.037 26.9037 43.553 27.3834 43.553 27.9719V32.8017C43.553 33.3928 44.0374 33.8698 44.6367 33.8698H52.6522C56.8766 33.8698 59.8836 30.9061 59.8836 26.7446V6.53453C59.8844 5.9456 59.4004 5.46596 58.8007 5.46596ZM11.7788 5.46509H1.06304C0.4752 5.46509 0 5.93519 0 6.51284V11.2473C0 11.2564 0.0022 11.2655 0.0022 11.2746C0.0022 11.2971 0 11.3201 0 11.3405V32.7683C0 33.3503 0.44264 33.8252 0.99176 33.8386H5.98664C6.58372 33.8386 7.07036 33.3611 7.07036 32.7705L7.08884 25.4271H11.7792C15.704 25.4271 18.4391 22.7431 18.4391 18.8587V12.0426C18.4386 8.1582 15.7036 5.46509 11.7788 5.46509ZM11.3476 17.3018C11.3476 17.9267 10.8332 18.4358 10.1992 18.4358L7.0884 18.438V12.4628H10.1992C10.8332 12.4628 11.3476 12.9672 11.3476 13.5947V17.3018ZM30.9096 5.49241H24.1072C23.5052 5.49241 23.0186 5.94256 23.0186 6.49463V8.37417C23.0186 8.38545 23.0208 8.39932 23.0208 8.4106C23.0208 8.42404 23.0186 8.43792 23.0186 8.45136V11.0265C23.0186 11.6107 23.5352 12.0877 24.1714 12.0877H30.6491C31.1608 12.1671 31.5669 12.5353 31.6246 13.1103V13.7331C31.5669 14.2808 31.1656 14.6806 30.6768 14.7262H27.4692C23.203 14.7262 20.1639 17.5195 20.1639 21.4425V27.0607C20.1639 30.9607 22.7766 33.7358 27.0125 33.7358H35.9022C37.4981 33.7358 38.7917 32.545 38.7917 31.0787V12.7452C38.7917 8.29958 36.4672 5.49241 30.9096 5.49241ZM31.6892 26.4185C31.6892 26.48 31.68 26.539 31.6708 26.5958C31.6592 26.6492 31.6438 26.7017 31.6246 26.7528C31.4723 27.1756 31.0433 27.4823 30.5338 27.4823H28.4931C27.8568 27.4823 27.3376 27.0048 27.3376 26.4185V25.5069C27.3376 25.4956 27.3354 25.4843 27.3354 25.4726L27.3376 23.0475V22.2886L27.3398 22.2816C27.342 21.6975 27.8564 21.2248 28.4926 21.2248H30.5334C31.1722 21.2248 31.6888 21.6997 31.6888 22.2886L31.6892 26.4185Z" fill="white"/>
</svg>
