<svg width="103" height="32" viewBox="0 0 103 32" fill="none" xmlns="http://www.w3.org/2000/svg">
<path d="M18.2095 3.11288C16.7165 1.62522 14.8163 0.612849 12.7488 0.203394C10.6812 -0.20606 8.53876 0.00563054 6.59133 0.811879C4.64393 1.61813 2.97879 2.98272 1.8058 4.73398C0.632819 6.48524 0.00448197 8.54442 0 10.652H10.6748V21.3269C12.783 21.3234 14.8427 20.6956 16.5947 19.523C18.3465 18.3503 19.7118 16.6851 20.5186 14.7376C21.3256 12.7899 21.5375 10.6471 21.1281 8.57911C20.7189 6.51133 19.7062 4.61067 18.2183 3.11744L18.2095 3.11288Z" fill="white"/>
<path d="M3.12462 28.866C4.11465 29.8561 5.29053 30.6408 6.58468 31.1751C7.87885 31.7094 9.2658 31.9829 10.6659 31.9796V21.3269H4.17394e-06C-0.0012366 22.7275 0.274164 24.1143 0.810354 25.4083C1.34657 26.702 2.13304 27.8772 3.12462 28.866Z" fill="white"/>
<path d="M31.6955 28.5101C30.4499 27.9601 29.5345 27.301 28.9488 26.533C28.3262 25.8014 28.0327 25.1788 28.0327 24.6293C28.0243 24.5181 28.0433 24.4067 28.0884 24.3047C28.1335 24.2026 28.2028 24.1132 28.2907 24.0446C28.3619 23.9717 28.4475 23.9142 28.5422 23.876C28.6366 23.8377 28.7379 23.8195 28.8399 23.822H31.8421C31.9439 23.8296 32.0427 23.86 32.1313 23.9109C32.2199 23.9615 32.2959 24.0317 32.3536 24.1158C32.4627 24.2246 32.7562 24.4449 33.1966 24.8119C33.6215 25.1894 34.1196 25.4755 34.6599 25.6523C35.2312 25.8774 35.8407 25.9891 36.4547 25.9815C37.442 25.9815 38.2116 25.7992 38.8342 25.3965C39.1216 25.24 39.3597 25.0063 39.5215 24.722C39.6833 24.4376 39.7625 24.1135 39.7504 23.7866C39.7575 23.349 39.6146 22.9221 39.3457 22.5767C38.9077 22.1974 38.3969 21.9115 37.8446 21.736C37.1128 21.4782 36.0144 21.2222 34.5865 20.8933C32.5005 20.4484 30.9994 19.7946 30.0098 18.8805C29.02 17.9666 28.5085 16.7924 28.5085 15.2911C28.5148 14.2949 28.8253 13.3241 29.398 12.509C30.0708 11.5824 30.9771 10.8504 32.0247 10.3875C33.1588 9.83802 34.551 9.58227 36.161 9.58227C37.6261 9.54834 39.0829 9.80991 40.4444 10.3518C41.6541 10.901 42.5682 11.524 43.1909 12.2555C43.8135 12.9871 44.107 13.6454 44.107 14.1946C44.1095 14.2967 44.091 14.398 44.0528 14.4924C44.0146 14.5869 43.9573 14.6725 43.8847 14.7441C43.8107 14.8264 43.7203 14.8918 43.619 14.9363C43.5178 14.9809 43.4081 15.0032 43.2977 15.0022H40.5556C40.4363 15.0034 40.3183 14.9779 40.2105 14.927C40.1026 14.8761 40.0076 14.8014 39.9329 14.7084C39.6493 14.4947 39.3804 14.262 39.1277 14.0123C38.3053 13.3023 37.2476 12.924 36.161 12.9516C35.2471 12.9516 34.551 13.1339 34.075 13.5365C33.8446 13.7204 33.6587 13.9543 33.5321 14.2205C33.4052 14.4869 33.3406 14.7783 33.3434 15.0733C33.3229 15.4721 33.4531 15.8641 33.7081 16.1718C33.9304 16.4655 34.4042 16.7213 35.1003 16.977C36.1372 17.3351 37.2025 17.605 38.285 17.7843C42.6794 18.6247 44.8743 20.5664 44.8743 23.5308C44.8743 25.2522 44.1427 26.6798 42.6505 27.7429C41.1583 28.8059 39.0254 29.3531 36.3545 29.3531C34.4708 29.3531 32.9385 29.0593 31.6955 28.5101Z" fill="white"/>
<path d="M48.0787 28.7306C47.9929 28.6518 47.9252 28.5553 47.8807 28.4477C47.8361 28.3401 47.8156 28.2241 47.8207 28.1079V3.86702C47.8153 3.74396 47.8354 3.62115 47.8797 3.50644C47.9242 3.39148 47.9918 3.28715 48.0787 3.19979C48.2514 3.05217 48.4722 2.97316 48.6993 2.97747H51.7749C51.8944 2.95999 52.0162 2.97038 52.1309 3.00836C52.2454 3.04634 52.3495 3.11066 52.4351 3.19599C52.5204 3.28133 52.5845 3.3854 52.6224 3.50011C52.6604 3.61456 52.6711 3.73662 52.6533 3.85588V28.0968C52.6582 28.3244 52.5791 28.5462 52.431 28.7194C52.3434 28.8058 52.2391 28.8731 52.1241 28.9172C52.0094 28.9612 51.8866 28.981 51.7638 28.9752H48.7036C48.5879 28.982 48.4722 28.9638 48.3643 28.9215C48.2564 28.8792 48.159 28.8141 48.0787 28.7306Z" fill="white"/>
<path d="M56.2651 28.7305C56.18 28.6512 56.1129 28.5548 56.0688 28.4471C56.0247 28.3395 56.0042 28.2238 56.0093 28.1076V11.4506C56.0035 11.3278 56.0232 11.205 56.0673 11.09C56.1113 10.9753 56.1787 10.8707 56.2651 10.7834C56.438 10.635 56.6598 10.5557 56.8877 10.561H60.0013C60.1185 10.5593 60.235 10.581 60.3439 10.6251C60.4525 10.6692 60.5513 10.7345 60.6343 10.8176C60.7171 10.9004 60.7827 10.9994 60.8268 11.108C60.8708 11.2166 60.8926 11.3331 60.8908 11.4506V28.1076C60.8913 28.2241 60.8688 28.3395 60.8242 28.4471C60.7794 28.5548 60.7138 28.6522 60.631 28.734C60.548 28.8161 60.4497 28.8804 60.3416 28.9237C60.2335 28.967 60.1178 28.9883 60.0013 28.9862H56.8877C56.7717 28.9911 56.6558 28.9705 56.5484 28.9265C56.4408 28.8824 56.3443 28.8153 56.2651 28.7305Z" fill="white"/>
<path d="M66.4642 27.1204C64.854 25.6193 64.0179 23.5621 63.9022 20.9335L63.8667 19.4678L63.9022 18.0022C64.0113 15.367 64.854 13.3164 66.4642 11.8153C68.0387 10.3142 70.2005 9.59131 72.8714 9.59131C74.8128 9.59131 76.4296 9.92049 77.7795 10.6166C79.096 11.3127 80.0859 12.1177 80.744 13.1052C81.3666 14.0948 81.7336 15.0466 81.7693 15.963C81.789 16.0767 81.7791 16.1937 81.7401 16.3026C81.7011 16.4112 81.6345 16.5082 81.5469 16.5834C81.4601 16.6711 81.3558 16.7392 81.2408 16.7835C81.1258 16.828 81.0028 16.8478 80.8797 16.8415H77.6327C77.421 16.8546 77.2118 16.789 77.0457 16.6569C76.8829 16.4908 76.7583 16.2912 76.6808 16.0719C76.3139 15.1558 75.8381 14.4617 75.2532 14.0571C74.5616 13.6263 73.7592 13.4076 72.9448 13.4276C71.7015 13.4276 70.7497 13.8302 70.0536 14.5974C69.3575 15.3647 68.9551 16.5746 68.9171 18.1868L68.8817 19.5413L68.9171 20.7489C69.064 23.9334 70.4185 25.5081 72.9448 25.5081C73.7597 25.5405 74.5652 25.3233 75.2532 24.8852C75.8381 24.4806 76.3139 23.8222 76.6808 22.8703C76.7535 22.649 76.8786 22.4482 77.0457 22.2857C77.2118 22.1535 77.421 22.0876 77.6327 22.1011H80.8908C81.0139 22.0947 81.137 22.1142 81.2519 22.1588C81.3669 22.2031 81.4712 22.2715 81.5581 22.3588C81.6457 22.4343 81.7123 22.531 81.751 22.6399C81.79 22.7486 81.8002 22.8655 81.7804 22.9795C81.7447 23.8222 81.3778 24.7386 80.7551 25.7259C80.1325 26.7134 79.1449 27.5941 77.8261 28.2902C76.5074 28.9863 74.8594 29.351 72.8826 29.351C70.2005 29.3533 68.0387 28.6215 66.4642 27.1204Z" fill="white"/>
<path d="M86.7773 27.0091C85.165 25.4346 84.3312 23.2394 84.2132 20.3373L84.1777 19.4232C84.1777 16.3833 84.9827 13.9681 86.5927 12.209C88.1674 10.4519 90.4024 9.57349 93.2202 9.57349C96.1112 9.57349 98.3818 10.4519 99.9563 12.209C101.531 13.9658 102.3 16.3187 102.3 19.2477V20.017C102.305 20.1332 102.285 20.2489 102.241 20.3566C102.197 20.4639 102.13 20.5606 102.045 20.6399C101.957 20.7262 101.853 20.7936 101.738 20.8377C101.623 20.8817 101.5 20.9012 101.377 20.8957H89.2305V21.1891C89.2287 22.4056 89.6273 23.5886 90.3646 24.5562C91.0607 25.4723 92.0126 25.9104 93.2202 25.9104C93.8821 25.9251 94.5379 25.7785 95.131 25.4837C95.724 25.189 96.2368 24.7547 96.625 24.2181C96.7764 24.0287 96.9486 23.857 97.1387 23.7066C97.3413 23.6514 97.5512 23.6266 97.7614 23.6332H100.982C101.19 23.6375 101.394 23.7008 101.569 23.8155C101.644 23.8773 101.703 23.9563 101.742 24.0457C101.78 24.1348 101.797 24.2321 101.791 24.3293C101.791 24.9142 101.46 25.6103 100.766 26.3796C100.07 27.1848 99.0445 27.8787 97.7637 28.4659C96.3429 29.0787 94.8068 29.3782 93.2602 29.3443C90.5135 29.3532 88.352 28.5836 86.7773 27.0091ZM97.2476 17.7109C97.2476 16.283 96.8807 15.1111 96.1869 14.2327C95.8192 13.8111 95.3621 13.4774 94.8486 13.2558C94.3353 13.034 93.7788 12.9302 93.2202 12.9517C91.9746 12.9517 90.9962 13.3966 90.2912 14.2327C89.5951 15.1111 89.2305 16.283 89.2305 17.7109V17.7844H97.2365L97.2476 17.7109Z" fill="white"/>
<path d="M57.3772 6.64914C57.8561 7.12924 58.4248 7.51008 59.051 7.76963C59.6774 8.02918 60.3487 8.16237 61.0269 8.16136V2.99316H55.8584C55.8574 3.67255 55.9913 4.3456 56.2519 4.97308C56.5127 5.60056 56.8951 6.1703 57.3772 6.64914Z" fill="white"/>
</svg>
