<svg width="70" height="72" viewBox="0 0 70 72" fill="none" xmlns="http://www.w3.org/2000/svg">
<g filter="url(#filter0_d_324_896)">
<path d="M38.7653 36.9688L41.1655 37.4452C41.1903 38.6225 42.1649 39.5567 43.3422 39.5318C44.5194 39.507 45.4537 38.5324 45.4288 37.3551C45.4039 36.1779 44.4294 35.2436 43.2521 35.2685C42.8471 35.2771 42.4529 35.4008 42.1157 35.6253C41.7785 35.8498 41.5122 36.1656 41.348 36.536L38.8856 36.0472C38.883 35.1461 38.5323 34.2809 37.9068 33.6323L41.094 29.1299C42.4383 29.7691 44.0462 29.1975 44.6854 27.8532C45.3246 26.5089 44.753 24.901 43.4087 24.2618C42.0643 23.6226 40.4564 24.1942 39.8172 25.5385C39.3293 26.5647 39.5373 27.7867 40.3374 28.5936L37.1811 33.0524C35.7295 32.1806 33.8619 32.4736 32.747 33.7479L28.6032 30.5298C29.1471 29.4829 28.7394 28.1932 27.6924 27.6492C26.6454 27.1053 25.3557 27.5131 24.8118 28.5601C24.2679 29.607 24.6757 30.8967 25.7226 31.4407C26.083 31.6279 26.4892 31.7085 26.8937 31.6731C27.2983 31.6377 27.6843 31.4878 28.0067 31.2408L32.2304 34.5209C31.5286 35.9547 31.8862 37.6818 33.0998 38.7189L30.5329 42.348C29.174 41.5234 27.4038 41.9564 26.5791 43.3154C25.7544 44.6743 26.1875 46.4446 27.5465 47.2692C28.9054 48.0939 30.6756 47.6608 31.5003 46.3019C32.1412 45.2457 32.0367 43.8984 31.2405 42.9538L33.8766 39.2257C34.3225 39.4377 34.8082 39.553 35.3018 39.5641C35.7954 39.5752 36.2858 39.4818 36.7408 39.29L39.8686 43.9105C38.9487 44.8831 38.9914 46.4173 39.964 47.3372C40.9366 48.2571 42.4708 48.2144 43.3907 47.2418C44.3106 46.2692 44.2679 44.735 43.2953 43.8151C42.9447 43.4835 42.5031 43.264 42.0271 43.1849C41.5511 43.1058 41.0622 43.1706 40.6232 43.371L37.5405 38.817C38.1375 38.3492 38.5672 37.7009 38.7653 36.9688Z" fill="white"/>
</g>
<defs>
<filter id="filter0_d_324_896" x="0.570801" y="0" width="68.8584" height="72" filterUnits="userSpaceOnUse" color-interpolation-filters="sRGB">
<feFlood flood-opacity="0" result="BackgroundImageFix"/>
<feColorMatrix in="SourceAlpha" type="matrix" values="0 0 0 0 0 0 0 0 0 0 0 0 0 0 0 0 0 0 127 0" result="hardAlpha"/>
<feOffset/>
<feGaussianBlur stdDeviation="12"/>
<feComposite in2="hardAlpha" operator="out"/>
<feColorMatrix type="matrix" values="0 0 0 0 1 0 0 0 0 1 0 0 0 0 1 0 0 0 0.48 0"/>
<feBlend mode="normal" in2="BackgroundImageFix" result="effect1_dropShadow_324_896"/>
<feBlend mode="normal" in="SourceGraphic" in2="effect1_dropShadow_324_896" result="shape"/>
</filter>
</defs>
</svg>
