<svg width="46" height="20" viewBox="0 0 46 20" fill="none" xmlns="http://www.w3.org/2000/svg">
<path fill-rule="evenodd" clip-rule="evenodd" d="M45.3077 10.2706C45.3077 7.04899 43.771 4.50697 40.8338 4.50697C37.8842 4.50697 36.0996 7.04899 36.0996 10.2454C36.0996 14.0333 38.2064 15.9461 41.2304 15.9461C42.7052 15.9461 43.8205 15.6063 44.6633 15.1281V12.6112C43.8205 13.0391 42.8539 13.3034 41.627 13.3034C40.4248 13.3034 39.359 12.8755 39.2227 11.3906H45.2829C45.2829 11.227 45.3077 10.5726 45.3077 10.2706ZM39.1855 9.07506C39.1855 7.65303 40.0406 7.06157 40.8214 7.06157C41.5774 7.06157 42.3829 7.65303 42.3829 9.07506H39.1855Z" fill="white"/>
<path fill-rule="evenodd" clip-rule="evenodd" d="M31.3157 4.50697C30.1012 4.50697 29.3204 5.08584 28.8866 5.48854L28.7255 4.70831H25.999V19.3816L29.0973 18.7146L29.1097 15.1533C29.5559 15.4804 30.2127 15.9461 31.3033 15.9461C33.5217 15.9461 35.5418 14.1339 35.5418 10.1447C35.5294 6.49528 33.4845 4.50697 31.3157 4.50697ZM30.5721 13.1775C29.8409 13.1775 29.4071 12.9133 29.1097 12.5861L29.0973 7.9173C29.4195 7.55236 29.8657 7.30067 30.5721 7.30067C31.6999 7.30067 32.4806 8.58427 32.4806 10.2328C32.4806 11.9191 31.7123 13.1775 30.5721 13.1775Z" fill="white"/>
<path fill-rule="evenodd" clip-rule="evenodd" d="M21.7358 3.76449L24.8465 3.08494V0.530334L21.7358 1.1973V3.76449Z" fill="white"/>
<path d="M24.8465 4.72089H21.7358V15.7321H24.8465V4.72089Z" fill="white"/>
<path fill-rule="evenodd" clip-rule="evenodd" d="M18.4021 5.65213L18.2038 4.7209H15.5269V15.7321H18.6251V8.26966C19.3563 7.30067 20.5957 7.47685 20.9798 7.61528V4.7209C20.5833 4.56989 19.1333 4.29303 18.4021 5.65213Z" fill="white"/>
<path fill-rule="evenodd" clip-rule="evenodd" d="M12.2058 1.99011L9.18183 2.64449L9.16943 12.7245C9.16943 14.587 10.5451 15.9587 12.3793 15.9587C13.3955 15.9587 14.1391 15.7699 14.5481 15.5434V12.9888C14.1515 13.1524 12.1934 13.7312 12.1934 11.8688V7.40135H14.5481V4.7209H12.1934L12.2058 1.99011Z" fill="white"/>
<path fill-rule="evenodd" clip-rule="evenodd" d="M3.82785 7.9173C3.82785 7.42652 4.22443 7.23775 4.88127 7.23775C5.82315 7.23775 7.0129 7.52719 7.95478 8.04314V5.08584C6.92614 4.67056 5.9099 4.50697 4.88127 4.50697C2.36546 4.50697 0.692383 5.8409 0.692383 8.06831C0.692383 11.5416 5.40178 10.9879 5.40178 12.4854C5.40178 13.0643 4.90606 13.253 4.21204 13.253C3.18341 13.253 1.86973 12.8252 0.828707 12.2463V15.2413C1.98127 15.7447 3.14623 15.9587 4.21204 15.9587C6.78982 15.9587 8.56204 14.6625 8.56204 12.4099C8.54965 8.65977 3.82785 9.32674 3.82785 7.9173Z" fill="white"/>
</svg>
