<svg width="92" height="19" viewBox="0 0 92 19" fill="none" xmlns="http://www.w3.org/2000/svg">
<path fill-rule="evenodd" clip-rule="evenodd" d="M21.9283 7.17801C21.7833 7.7066 21.5021 8.09456 21.0847 8.34227C20.6669 8.58993 20.0809 8.71402 19.325 8.71402H16.9235L17.7665 5.64223H20.168C20.9233 5.64223 21.4419 5.76608 21.7236 6.01375C22.0048 6.2617 22.0734 6.6497 21.9283 7.17801ZM24.4153 7.11181C24.7207 6.00029 24.5941 5.1469 24.0357 4.55241C23.4772 3.95791 22.4986 3.66083 21.101 3.66083H15.7402L12.5137 15.4181H15.1182L16.419 10.6787H18.127C18.51 10.6787 18.8115 10.7394 19.032 10.8605C19.253 10.9818 19.3823 11.1966 19.4223 11.5044L19.8868 15.4181H22.6774L22.2247 11.7689C22.1325 10.9541 21.7506 10.4752 21.0797 10.3322C21.9351 10.0903 22.6516 9.688 23.2286 9.12648C23.8051 8.56524 24.201 7.89385 24.4153 7.11181Z" fill="white"/>
<path fill-rule="evenodd" clip-rule="evenodd" d="M30.7455 11.2073C30.5279 11.9997 30.1926 12.6055 29.7399 13.0237C29.2867 13.4421 28.7445 13.6511 28.1135 13.6511C27.4701 13.6511 27.0336 13.4449 26.8036 13.0319C26.5724 12.6192 26.5646 12.0223 26.7794 11.2402C26.9937 10.4588 27.3356 9.84782 27.8064 9.40707C28.2765 8.96718 28.8272 8.74672 29.4587 8.74672C30.0897 8.74672 30.5172 8.95899 30.7387 9.38267C30.9604 9.80636 30.9631 10.4145 30.7455 11.2073ZM31.8872 7.04591L31.561 8.2349C31.4198 7.80544 31.1471 7.46438 30.7432 7.21122C30.3389 6.95807 29.8378 6.83118 29.2405 6.83118C28.5077 6.83118 27.803 7.01573 27.127 7.3845C26.451 7.75351 25.8599 8.27361 25.3543 8.94496C24.8487 9.6166 24.4781 10.3816 24.2424 11.2402C24.0068 12.0992 23.9595 12.8559 24.1012 13.5108C24.243 14.166 24.55 14.6696 25.023 15.0218C25.4955 15.3744 26.104 15.5501 26.848 15.5501C27.4453 15.5501 28.0145 15.4291 28.5544 15.1869C29.0943 14.945 29.5526 14.6089 29.93 14.1797L29.5898 15.4181H32.1093L34.4068 7.04591H31.8872Z" fill="white"/>
<path fill-rule="evenodd" clip-rule="evenodd" d="M43.4664 7.04591H36.1438L35.632 8.91204H39.8934L34.2592 13.6676L33.7783 15.4181H41.3377L41.85 13.5523H37.2844L43.0041 8.73023L43.4664 7.04591Z" fill="white"/>
<path fill-rule="evenodd" clip-rule="evenodd" d="M49.9132 11.1908C49.6865 12.0162 49.3507 12.6332 48.9065 13.0404C48.4622 13.4476 47.9245 13.6511 47.2935 13.6511C45.9741 13.6511 45.5399 12.8314 45.9898 11.1908C46.2137 10.3761 46.5511 9.7624 47.0022 9.34971C47.4537 8.93673 48.0004 8.73024 48.6433 8.73024C49.2743 8.73024 49.7 8.93673 49.9194 9.34971C50.1387 9.7624 50.137 10.3761 49.9132 11.1908ZM51.3873 7.3595C50.8074 7.00745 50.0667 6.83119 49.1646 6.83119C48.2512 6.83119 47.4054 7.00745 46.6265 7.3595C45.8476 7.71206 45.1844 8.21843 44.6372 8.87879C44.0894 9.53943 43.6946 10.3099 43.4528 11.1908C43.2109 12.0717 43.1829 12.8419 43.3685 13.5026C43.5535 14.1632 43.9382 14.6696 44.5242 15.0219C45.1097 15.3744 45.8588 15.5502 46.7722 15.5502C47.6742 15.5502 48.5116 15.3744 49.285 15.0219C50.0571 14.6696 50.718 14.1632 51.2658 13.5026C51.8129 12.8419 52.2078 12.0717 52.4496 11.1908C52.6915 10.3099 52.7196 9.53943 52.5345 8.87879C52.3489 8.21843 51.9665 7.71206 51.3873 7.3595Z" fill="white"/>
<path fill-rule="evenodd" clip-rule="evenodd" d="M77.7409 11.2073C77.5233 11.9997 77.188 12.6055 76.7353 13.0237C76.2825 13.4421 75.7393 13.6511 75.1083 13.6511C74.466 13.6511 74.029 13.4449 73.799 13.0319C73.5678 12.6192 73.5599 12.0223 73.7748 11.2402C73.9891 10.4588 74.331 9.84782 74.8017 9.40707C75.2719 8.96718 75.8225 8.74672 76.4541 8.74672C77.0851 8.74672 77.5125 8.95899 77.7341 9.38267C77.9558 9.80636 77.9585 10.4145 77.7409 11.2073ZM78.8825 7.04591L78.5564 8.2349C78.4152 7.80544 78.1424 7.46438 77.7386 7.21122C77.3343 6.95807 76.8332 6.83118 76.2358 6.83118C75.5031 6.83118 74.7983 7.01573 74.1224 7.3845C73.4463 7.75351 72.8552 8.27361 72.3497 8.94496C71.8441 9.6166 71.4734 10.3816 71.2378 11.2402C71.0021 12.0992 70.9554 12.8559 71.0966 13.5108C71.2383 14.166 71.5449 14.6696 72.0184 15.0218C72.4908 15.3744 73.0994 15.5501 73.8434 15.5501C74.4406 15.5501 75.0099 15.4291 75.5497 15.1869C76.0896 14.945 76.548 14.6089 76.9254 14.1797L76.5852 15.4181H79.1047L81.4022 7.04591H78.8825Z" fill="white"/>
<path fill-rule="evenodd" clip-rule="evenodd" d="M60.3708 9.29178L61.0131 7.01297C60.7949 6.90285 60.5058 6.8477 60.1453 6.8477C59.5699 6.8477 59.0159 6.988 58.4822 7.26888C58.0239 7.50986 57.6336 7.84812 57.304 8.27194L57.6381 7.04476L56.9086 7.04595H55.1193L52.8042 15.4181H55.3586L56.5594 11.0423C56.7343 10.4039 57.0481 9.90575 57.502 9.54798C57.9547 9.1902 58.5199 9.01114 59.1965 9.01114C59.6137 9.01114 60.0047 9.10477 60.3708 9.29178Z" fill="white"/>
<path fill-rule="evenodd" clip-rule="evenodd" d="M67.481 11.2401C67.2661 12.0222 66.9332 12.6191 66.4822 13.0318C66.03 13.4448 65.4889 13.651 64.8579 13.651C64.2264 13.651 63.7961 13.442 63.5672 13.0236C63.3377 12.6054 63.3321 11.9999 63.5497 11.2071C63.7674 10.4144 64.106 9.80621 64.5661 9.38252C65.0261 8.95884 65.5722 8.74657 66.2038 8.74657C66.8235 8.74657 67.2448 8.96708 67.468 9.40726C67.6908 9.84767 67.6953 10.4589 67.481 11.2401ZM69.2661 7.38435C68.792 7.01558 68.1885 6.83136 67.4563 6.83136C66.8134 6.83136 66.2015 6.9744 65.6222 7.26054C65.0413 7.5472 64.5706 7.93739 64.2095 8.433L64.2176 8.37808L64.6468 7.04462H64.1529V7.04581H62.1533L61.5184 9.36097C61.511 9.38788 61.5049 9.41299 61.4975 9.44019L58.8784 18.9849H61.4323L62.7512 14.1799C62.8805 14.6088 63.1493 14.9448 63.5565 15.1868C63.9637 15.4289 64.4659 15.55 65.0638 15.55C65.8079 15.55 66.5153 15.3743 67.1874 15.0217C67.8589 14.6697 68.4427 14.1658 68.9377 13.5107C69.4331 12.8561 69.7987 12.099 70.0343 11.2401C70.27 10.3815 70.3189 9.61649 70.1822 8.94486C70.0456 8.27346 69.7396 7.75341 69.2661 7.38435Z" fill="white"/>
<path fill-rule="evenodd" clip-rule="evenodd" d="M91.9773 7.04825L91.979 7.04593H90.4321C90.3826 7.04593 90.339 7.0473 90.2938 7.04825H89.4909L89.0804 7.60678C89.0475 7.64886 89.0146 7.69122 88.9791 7.74035L88.9344 7.80503L85.6716 12.2422L84.995 7.04593H82.3225L83.6759 14.942L80.687 18.985H80.7722H82.2983H83.3497L84.0741 17.9831C84.0954 17.9532 84.1137 17.9288 84.1365 17.8972L84.9818 16.727L85.006 16.6935L88.7882 11.4581L91.9748 7.05171L91.979 7.04825H91.9773Z" fill="white"/>
<path fill-rule="evenodd" clip-rule="evenodd" d="M5.95057 5.00776L5.18604 7.75508L9.56069 4.99231L6.69981 15.4155L9.60504 15.4181L13.8313 0.0228424L5.95057 5.00776Z" fill="#3395FF"/>
<path fill-rule="evenodd" clip-rule="evenodd" d="M1.24181 11.0363L0.0390625 15.4181H5.99412C5.99412 15.4181 8.42989 6.5064 8.43057 6.50385C8.42829 6.50527 1.24181 11.0363 1.24181 11.0363Z" fill="white"/>
</svg>
