<svg width="72" height="70" viewBox="0 0 72 70" fill="none" xmlns="http://www.w3.org/2000/svg">
<g filter="url(#filter0_d_323_891)">
<path d="M47.5307 29.0166L36.2338 25.0308C36.0825 24.9774 35.9174 24.9774 35.766 25.0308L24.4691 29.0166C24.3321 29.065 24.2134 29.1547 24.1294 29.2732C24.0454 29.3918 24.0002 29.5335 24 29.6789C23.9998 29.8242 24.0447 29.966 24.1284 30.0848C24.2121 30.2036 24.3306 30.2935 24.4675 30.3422L35.7644 34.3583C35.9167 34.4125 36.0831 34.4125 36.2354 34.3583L47.5323 30.3422C47.6692 30.2935 47.7877 30.2036 47.8714 30.0848C47.9552 29.966 48.0001 29.8242 47.9999 29.6789C47.9997 29.5335 47.9545 29.3918 47.8705 29.2732C47.7865 29.1546 47.6678 29.065 47.5307 29.0166ZM46.3111 38.4019V32.2688L44.9049 32.7687V38.4019C44.4813 38.6457 44.1959 39.1025 44.1959 39.6264C44.1959 40.1501 44.4813 40.607 44.9049 40.8508V44.3062C44.9049 44.6945 45.2197 45.0093 45.608 45.0093C45.9963 45.0093 46.3111 44.6945 46.3111 44.3062V40.8508C46.7347 40.6071 47.0201 40.1502 47.0201 39.6264C47.0201 39.1026 46.7347 38.6457 46.3111 38.4019Z" fill="white"/>
<path d="M35.9999 35.8054C35.7586 35.8054 35.5209 35.7644 35.2934 35.6835L28.9426 33.4258V36.5199C28.9426 37.2769 29.7323 37.9171 31.2898 38.4226C32.6473 38.8632 34.3201 39.1059 35.9999 39.1059C37.6798 39.1059 39.3525 38.8632 40.7101 38.4226C42.2675 37.9171 43.0573 37.2769 43.0573 36.5199V33.4258L36.7065 35.6835C36.4797 35.7643 36.2407 35.8055 35.9999 35.8054Z" fill="white"/>
</g>
<defs>
<filter id="filter0_d_323_891" x="0" y="0.990723" width="72" height="68.0186" filterUnits="userSpaceOnUse" color-interpolation-filters="sRGB">
<feFlood flood-opacity="0" result="BackgroundImageFix"/>
<feColorMatrix in="SourceAlpha" type="matrix" values="0 0 0 0 0 0 0 0 0 0 0 0 0 0 0 0 0 0 127 0" result="hardAlpha"/>
<feOffset/>
<feGaussianBlur stdDeviation="12"/>
<feComposite in2="hardAlpha" operator="out"/>
<feColorMatrix type="matrix" values="0 0 0 0 1 0 0 0 0 1 0 0 0 0 1 0 0 0 0.48 0"/>
<feBlend mode="normal" in2="BackgroundImageFix" result="effect1_dropShadow_323_891"/>
<feBlend mode="normal" in="SourceGraphic" in2="effect1_dropShadow_323_891" result="shape"/>
</filter>
</defs>
</svg>
