<svg width="133" height="32" viewBox="0 0 133 32" fill="none" xmlns="http://www.w3.org/2000/svg">
<path d="M132.217 25.9991C132.217 24.4421 130.952 23.177 129.395 23.177C127.838 23.177 126.573 24.4421 126.573 25.9991C126.573 27.5561 127.838 28.8212 129.395 28.8212C130.968 28.8212 132.217 27.5723 132.217 25.9991ZM131.163 27.767C130.709 28.2211 130.092 28.4968 129.395 28.4968C128.697 28.4968 128.081 28.2211 127.627 27.767C127.173 27.3128 126.897 26.6965 126.897 25.9991C126.897 25.3179 127.173 24.6854 127.627 24.2475C128.081 23.7933 128.697 23.5176 129.395 23.5176C130.076 23.5176 130.709 23.7933 131.163 24.2475C131.617 24.6854 131.893 25.3179 131.893 25.9991C131.893 26.6965 131.617 27.3128 131.163 27.767Z" fill="white"/>
<path fill-rule="evenodd" clip-rule="evenodd" d="M42.7368 8.77441H47.6836V27.6695H42.7368V8.77441Z" fill="white"/>
<path d="M119.209 15.927L110.24 8.20679V27.5884L115.219 27.6047V19.6249L124.156 28.3832V8.77445H119.209V15.927Z" fill="white"/>
<path d="M27.5399 23.031C24.8637 23.031 22.6742 20.8577 22.6742 18.1816C22.6742 15.5054 24.8475 13.3159 27.5399 13.3159C28.7238 13.3159 29.8105 13.7376 30.6539 14.4512L33.8653 10.8019C32.1623 9.34224 29.9565 8.4502 27.5399 8.4502C22.1714 8.4502 17.8247 12.7969 17.8247 18.1654C17.8247 23.5338 22.1714 27.8805 27.5399 27.8805C29.9889 27.8805 32.2109 26.9885 33.9139 25.4963L30.7026 21.8471C29.843 22.5931 28.7401 23.031 27.5399 23.031Z" fill="white"/>
<path d="M87.3717 2.14087H62.8324L57.1071 17.0623L51.398 2.14087H26.064L23.4365 7.10387H34.7898V27.7506H39.915V7.10387H47.7487L57.1233 32L66.4979 7.10387H90.0802L87.3717 2.14087Z" fill="white"/>
<path d="M78.1589 13.1698C78.4184 12.7968 79.3267 12.7968 79.3267 12.7968H82.5056V8.69336H77.348C75.6612 8.69336 73.1635 9.71515 73.1635 13.1536C73.1635 17.6949 78.759 20.663 78.2238 22.4957C77.9643 23.3715 76.9101 23.4202 76.3586 23.4202H72.9526V27.5884H78.5157C80.8837 27.5884 83.2679 26.1287 83.2679 23.3391C83.2841 18.0517 76.7641 15.1485 78.1589 13.1698Z" fill="white"/>
<path fill-rule="evenodd" clip-rule="evenodd" d="M66.5625 8.70947H71.5255V27.6046H66.5625V8.70947Z" fill="white"/>
<path fill-rule="evenodd" clip-rule="evenodd" d="M84.0791 8.70947H89.0421V27.6046H84.0791V8.70947Z" fill="white"/>
<path d="M130.238 25.9666C130.595 25.8206 130.741 25.5449 130.741 25.1719C130.741 24.7015 130.384 24.3123 129.817 24.3123H128.13V27.4425H128.811V26.2099H129.508C129.849 26.2099 129.979 26.3558 130.028 26.6802C130.06 26.9397 130.06 27.2317 130.141 27.4263H130.838C130.725 27.2479 130.725 26.8911 130.709 26.6802C130.676 26.3883 130.579 26.0477 130.238 25.9666ZM129.573 25.7233H128.811V24.8475H129.573C129.882 24.8475 130.044 24.9772 130.044 25.2854C130.044 25.5936 129.882 25.7233 129.573 25.7233Z" fill="white"/>
<path d="M0 27.6858H5.27116L6.5849 24.1662H12.7319L14.0456 27.6858H19.3168L9.6665 0L0 27.6858ZM8.09326 19.1059L9.55297 14.2727L11.0127 19.1059H8.09326Z" fill="white"/>
<path d="M99.6816 8.4502C94.3131 8.4502 89.9502 12.8131 89.9502 18.1816C89.9502 23.55 94.3131 27.9129 99.6816 27.9129C105.05 27.9129 109.413 23.55 109.413 18.1816C109.413 12.7969 105.05 8.4502 99.6816 8.4502ZM99.6816 23.0148C97.0054 23.0148 94.8483 20.8577 94.8483 18.1816C94.8483 15.5217 97.0054 13.3483 99.6816 13.3483C102.341 13.3483 104.515 15.5054 104.515 18.1816C104.515 20.8415 102.341 23.0148 99.6816 23.0148Z" fill="white"/>
</svg>
