<svg width="78" height="32" viewBox="0 0 78 32" fill="none" xmlns="http://www.w3.org/2000/svg">
<path fill-rule="evenodd" clip-rule="evenodd" d="M0 30.3931L0.0578912 0H0.979334L2.25295 2.17576V10.9319C8.34122 4.74229 15.2786 9.16618 17.8692 12.4708C20.4599 15.7755 20.0257 25.1346 16.1373 28.8252C12.2489 32.5158 5.89048 32.9211 0.0048235 30.3931H0ZM15.4812 25.6798C12.9822 29.4041 8.35087 30.5475 2.4025 28.6853V13.4791C8.78024 6.46457 15.2738 10.8547 16.5715 14.6804C17.8692 18.506 17.985 21.9554 15.4812 25.6798Z" fill="white"/>
<path fill-rule="evenodd" clip-rule="evenodd" d="M30.7403 7.82495C36.4957 7.82495 41.1608 13.233 41.1608 19.8857C41.1608 26.5384 36.4957 31.9465 30.7403 31.9465C24.9849 31.9465 20.3198 26.5384 20.3198 19.8857C20.3198 13.233 24.9849 7.82495 30.7403 7.82495ZM30.7403 10.1503C35.2752 10.1503 38.9416 14.5163 38.9416 19.9002C38.9416 25.2841 35.2655 29.6549 30.7403 29.6549C26.2151 29.6549 22.539 25.3131 22.539 19.9002C22.539 14.4873 26.2151 10.1503 30.7403 10.1503Z" fill="white"/>
<path fill-rule="evenodd" clip-rule="evenodd" d="M46.6607 31.9129H38.7344L48.2141 7.92163H55.0984L64.5782 31.6813H56.9944L59.4065 27.5276H44.2244L46.6366 31.9081L46.6607 31.9129ZM47.2348 27.2478L51.7214 14.2801L55.3927 24.0831L47.2348 27.2478Z" fill="white"/>
<path fill-rule="evenodd" clip-rule="evenodd" d="M66.0929 2.22391C66.0929 4.11503 66.0929 5.94344 66.0929 7.76703H60.873L58.813 9.82701H65.9337V26.4902C66.3051 29.7273 67.7428 31.3145 70.4733 31.7004C73.2039 32.0864 75.1336 32.2359 77.8352 30.8562V28.3379C76.1612 29.3317 74.0867 29.7852 71.5636 29.5632C69.6339 29.3703 68.7704 28.0725 68.7704 25.8437V9.87043H76.5471V7.94071H68.9633V0.0722656H68.177C67.434 0.810384 66.831 1.41825 66.0929 2.22391Z" fill="white"/>
</svg>
