<svg width="43" height="22" viewBox="0 0 43 22" fill="none" xmlns="http://www.w3.org/2000/svg">
<path d="M39.8377 4.60855L37.2766 4.60764C36.9973 4.60764 36.7708 4.83982 36.7707 5.12627L36.7705 5.49261H36.9482C38.1046 5.49261 38.5347 5.6882 38.5347 6.7683V8.30378L39.8364 8.30424C40.1158 8.30439 40.3422 8.07236 40.3423 7.78591L40.3432 5.12734C40.3432 4.84089 40.1169 4.60871 39.8377 4.60855ZM25.8601 8.73613C25.7419 8.58398 25.5185 8.56294 25.2944 8.56294H25.1264C24.5681 8.56294 24.3491 8.73948 24.2256 9.28876L22.6743 15.9005C22.4807 16.7131 22.2087 16.8615 21.7431 16.8615C21.1731 16.8615 20.9449 16.722 20.7177 15.8973L18.9607 9.28556C18.8153 8.73186 18.6007 8.56294 18.0423 8.56294H17.8927C17.6673 8.56294 17.4429 8.58428 17.3276 8.73841C17.2123 8.89269 17.2512 9.12304 17.3107 9.34943L19.0863 16.0185C19.4193 17.2948 19.8153 18.3513 21.2946 18.3513C21.5707 18.3513 21.8261 18.3119 22.0386 18.2385C21.5899 19.6854 21.1334 20.3235 19.7875 20.4653C19.5144 20.4886 19.3368 20.5287 19.238 20.6647C19.1352 20.8057 19.1586 21.0077 19.1953 21.1881L19.2323 21.3591C19.3126 21.7546 19.4495 21.9997 19.8825 21.9997C19.928 21.9997 19.9769 21.9973 20.0294 21.9927C22.0392 21.8578 23.116 20.7482 23.7461 18.1631L25.8963 9.34471C25.9473 9.11847 25.978 8.88812 25.8601 8.73613ZM15.0452 13.8159V15.1506C15.0452 16.2386 14.6518 16.8685 12.6408 16.8685C11.3122 16.8685 10.6664 16.3755 10.6664 15.3614C10.6664 14.2493 11.3143 13.8159 12.9772 13.8159H15.0452ZM12.6408 8.28228C11.5444 8.28228 10.8574 8.4233 10.5968 8.47681C10.1354 8.57956 9.94246 8.70945 9.94246 9.24744V9.4008C9.94246 9.61164 9.97293 9.75769 10.0382 9.86044C10.1142 9.98011 10.2367 10.0408 10.4023 10.0408C10.483 10.0408 10.5767 10.0269 10.6884 9.99826C10.952 9.93072 11.7942 9.79107 12.7156 9.79107C14.3703 9.79107 15.0452 10.2611 15.0452 11.4131V12.4413H12.9585C10.2761 12.4413 9.02662 13.3691 9.02662 15.3614C9.02662 17.2939 10.3168 18.3581 12.6595 18.3581C15.4435 18.3581 16.6849 17.3867 16.6849 15.2081V11.4131C16.6849 9.30644 15.3621 8.28228 12.6408 8.28228ZM7.38211 9.56042C7.38211 11.147 6.98708 12.0068 4.90294 12.0068H1.69482V7.91214C1.69482 7.34441 1.90073 7.13327 2.4544 7.13327H4.90294C6.47311 7.13327 7.38211 7.53055 7.38211 9.56042ZM4.90294 5.49032H2.13653C0.658249 5.49032 -0.000976562 6.16628 -0.000976562 7.68224V17.4184C-0.000976562 18.004 0.182338 18.192 0.75355 18.192H0.940438C1.5115 18.192 1.69482 18.004 1.69482 17.4184V13.6305H4.90294C7.75127 13.6305 9.07791 12.3371 9.07791 9.56042C9.07791 6.78355 7.75127 5.49032 4.90294 5.49032ZM40.0871 1.86477L38.7952 1.86431C38.6543 1.86415 38.5401 1.74708 38.5401 1.60255L38.5405 0.261455C38.5407 0.116933 38.655 0 38.7958 0L40.0877 0.000460587C40.2286 0.000460587 40.3428 0.117695 40.3428 0.262065L40.3423 1.60316C40.3422 1.74769 40.228 1.86477 40.0871 1.86477ZM42.6217 4.61023L40.7195 4.60947C40.5121 4.60947 40.344 4.43689 40.3441 4.22423L40.3447 2.2497C40.3449 2.03688 40.5132 1.86446 40.7206 1.86446L42.6226 1.86522C42.8301 1.86522 42.9983 2.0378 42.9983 2.25046L42.9975 4.22514C42.9975 4.43781 42.8292 4.61023 42.6217 4.61023ZM37.2753 8.30347C36.9959 8.30347 36.7697 8.07129 36.7698 7.78484L36.7705 5.49261H36.5841C35.4277 5.49261 34.9976 5.68835 34.9976 6.76846V9.29592C34.9974 9.30126 34.9968 9.30659 34.9968 9.31192V9.86593C34.9966 9.88514 34.9954 9.90298 34.9954 9.92279V13.4543C34.9954 13.8856 34.9143 14.229 34.7471 14.4958C34.4317 14.994 33.8074 15.2204 32.8086 15.2218C31.8103 15.2204 31.1861 14.9942 30.8708 14.4964C30.7031 14.2295 30.6219 13.8859 30.6219 13.4543V9.92279C30.6219 9.90298 30.6209 9.88514 30.6206 9.86593V9.31192C30.6206 9.30659 30.62 9.30126 30.6198 9.29592V6.76846C30.6198 5.68835 30.1897 5.49261 29.0333 5.49261H28.6692C27.5127 5.49261 27.0827 5.68835 27.0827 6.76846V13.4543C27.0827 14.5298 27.3192 15.4404 27.7763 16.1744C28.6589 17.5968 30.3689 18.3543 32.7997 18.3543C32.8027 18.3543 32.8057 18.3542 32.8086 18.3542C32.8118 18.3542 32.8146 18.3543 32.8177 18.3543C35.2486 18.3543 36.9585 17.5968 37.8412 16.1744C38.2982 15.4404 38.5347 14.5298 38.5347 13.4543V8.30378L37.2753 8.30347Z" fill="white"/>
</svg>
