<svg width="72" height="66" viewBox="0 0 72 66" fill="none" xmlns="http://www.w3.org/2000/svg">
<g filter="url(#filter0_d_321_843)">
<path d="M28 30C29.6569 30 31 28.6569 31 27C31 25.3431 29.6569 24 28 24C26.3431 24 25 25.3431 25 27C25 28.6569 26.3431 30 28 30Z" fill="white"/>
<path d="M31.29 32.07C30.2835 32.6981 29.4534 33.5719 28.8778 34.6094C28.3023 35.6468 28.0002 36.8136 28 38H26C25.4701 37.9984 24.9623 37.7872 24.5875 37.4125C24.2128 37.0377 24.0016 36.5299 24 36V34C24.0024 33.2051 24.3192 32.4434 24.8813 31.8813C25.4434 31.3192 26.2051 31.0024 27 31H29C29.4366 31.001 29.8677 31.0972 30.2632 31.2821C30.6587 31.4669 31.0091 31.7358 31.29 32.07Z" fill="white"/>
<path d="M44 30C45.6569 30 47 28.6569 47 27C47 25.3431 45.6569 24 44 24C42.3431 24 41 25.3431 41 27C41 28.6569 42.3431 30 44 30Z" fill="white"/>
<path d="M48 34V36C47.9984 36.5299 47.7872 37.0377 47.4124 37.4125C47.0377 37.7872 46.5299 37.9984 46 38H44C43.9998 36.8136 43.6977 35.6468 43.1221 34.6094C42.5466 33.5719 41.7165 32.6981 40.71 32.07C40.9908 31.7358 41.3412 31.4669 41.7368 31.2821C42.1323 31.0972 42.5634 31.001 43 31H45C45.7949 31.0024 46.5566 31.3192 47.1187 31.8813C47.6808 32.4434 47.9976 33.2051 48 34Z" fill="white"/>
<path d="M36 32C38.2091 32 40 30.2091 40 28C40 25.7909 38.2091 24 36 24C33.7909 24 32 25.7909 32 28C32 30.2091 33.7909 32 36 32Z" fill="white"/>
<path d="M42 38V39C41.9976 39.7949 41.6808 40.5566 41.1187 41.1187C40.5566 41.6808 39.7949 41.9976 39 42H33C32.2051 41.9976 31.4434 41.6808 30.8813 41.1187C30.3192 40.5566 30.0024 39.7949 30 39V38C30 36.6739 30.5268 35.4021 31.4645 34.4645C32.4021 33.5268 33.6739 33 35 33H37C38.3261 33 39.5979 33.5268 40.5355 34.4645C41.4732 35.4021 42 36.6739 42 38Z" fill="white"/>
</g>
<defs>
<filter id="filter0_d_321_843" x="0" y="0" width="72" height="66" filterUnits="userSpaceOnUse" color-interpolation-filters="sRGB">
<feFlood flood-opacity="0" result="BackgroundImageFix"/>
<feColorMatrix in="SourceAlpha" type="matrix" values="0 0 0 0 0 0 0 0 0 0 0 0 0 0 0 0 0 0 127 0" result="hardAlpha"/>
<feOffset/>
<feGaussianBlur stdDeviation="12"/>
<feComposite in2="hardAlpha" operator="out"/>
<feColorMatrix type="matrix" values="0 0 0 0 1 0 0 0 0 1 0 0 0 0 1 0 0 0 0.48 0"/>
<feBlend mode="normal" in2="BackgroundImageFix" result="effect1_dropShadow_321_843"/>
<feBlend mode="normal" in="SourceGraphic" in2="effect1_dropShadow_321_843" result="shape"/>
</filter>
</defs>
</svg>
