<svg width="355" height="261" viewBox="0 0 355 261" fill="none" xmlns="http://www.w3.org/2000/svg">
<g opacity="0.24">
<mask id="mask0_408_1422" style="mask-type:alpha" maskUnits="userSpaceOnUse" x="0" y="0" width="355" height="261">
<g clip-path="url(#clip0_408_1422)">
<g opacity="0.2">
<g opacity="0.8">
<rect x="36" y="-19" width="48.5" height="366" fill="#36F097"/>
</g>
<g opacity="0.6">
<rect width="48.5" height="366" transform="matrix(-1 0 0 1 133 -19)" fill="#36F097"/>
</g>
</g>
<g opacity="0.8">
<rect x="36" y="126" width="48.5" height="221" fill="#36F097"/>
</g>
<g opacity="0.6">
<rect width="48.5" height="221" transform="matrix(-1 0 0 1 133 126)" fill="#36F097"/>
</g>
<rect width="49.1554" height="49.1554" transform="matrix(0.986667 0.162749 -0.986667 0.162749 84.5 118)" fill="#36F097"/>
<path d="M67.144 36.8V35.184H59.288V37.648H64.088L60.344 46H63.288L67.144 36.8ZM73.1661 46V35.184H68.3981V37.568H70.3981V46H73.1661ZM78.1388 41.808C80.1868 41.808 81.7708 40.288 81.7708 38.448C81.7708 36.592 80.1868 35.088 78.1388 35.088C76.0908 35.088 74.5068 36.592 74.5068 38.448C74.5068 40.288 76.0908 41.808 78.1388 41.808ZM81.1148 46L87.2908 35.184H85.1308L78.9548 46H81.1148ZM78.1388 39.872C77.4028 39.872 76.7148 39.424 76.7148 38.448C76.7148 37.472 77.4028 37.024 78.1388 37.024C78.8908 37.024 79.5468 37.472 79.5468 38.448C79.5468 39.424 78.8908 39.872 78.1388 39.872ZM88.4428 46.144C90.4908 46.144 92.0748 44.624 92.0748 42.784C92.0748 40.928 90.4908 39.424 88.4428 39.424C86.3948 39.424 84.8108 40.928 84.8108 42.784C84.8108 44.624 86.3948 46.144 88.4428 46.144ZM88.4428 44.208C87.7068 44.208 87.0188 43.76 87.0188 42.784C87.0188 41.808 87.7068 41.36 88.4428 41.36C89.1948 41.36 89.8508 41.808 89.8508 42.784C89.8508 43.76 89.1948 44.208 88.4428 44.208Z" fill="white" fill-opacity="0.6"/>
<path d="M62.136 58.12C63.648 58.12 64.832 57.12 65.032 55.632H63.744C63.6 56.456 62.968 57.032 62.152 57.032C61.168 57.032 60.504 56.248 60.504 55.12C60.504 54 61.168 53.224 62.152 53.224C62.968 53.224 63.608 53.792 63.744 54.616H65.032C64.832 53.144 63.648 52.136 62.136 52.136C60.52 52.136 59.256 53.44 59.256 55.12C59.256 56.808 60.52 58.12 62.136 58.12ZM69.3611 58.12C71.0251 58.12 72.3131 56.84 72.3131 55.12C72.3131 53.4 71.0251 52.136 69.3611 52.136C67.7051 52.136 66.4251 53.4 66.4251 55.12C66.4251 56.84 67.7051 58.12 69.3611 58.12ZM69.3611 57.032C68.3131 57.032 67.6731 56.176 67.6731 55.12C67.6731 54.064 68.3131 53.224 69.3611 53.224C70.4171 53.224 71.0571 54.064 71.0571 55.12C71.0571 56.176 70.4171 57.032 69.3611 57.032ZM75.2477 58V55.568H77.7357V58H78.9517V52.256H77.7357V54.52H75.2477V52.256H74.0317V58H75.2477ZM83.6132 58.12C85.2772 58.12 86.5652 56.84 86.5652 55.12C86.5652 53.4 85.2772 52.136 83.6132 52.136C81.9572 52.136 80.6772 53.4 80.6772 55.12C80.6772 56.84 81.9572 58.12 83.6132 58.12ZM83.6132 57.032C82.5652 57.032 81.9252 56.176 81.9252 55.12C81.9252 54.064 82.5652 53.224 83.6132 53.224C84.6692 53.224 85.3092 54.064 85.3092 55.12C85.3092 56.176 84.6692 57.032 83.6132 57.032ZM89.4999 58V55.968H90.2599L91.5559 58H93.0039L91.5239 55.784C92.3399 55.512 92.8199 54.896 92.8199 54.12C92.8199 52.928 91.9799 52.256 90.5319 52.256H88.2839V58H89.4999ZM89.4999 53.264H90.4759C91.2119 53.264 91.6039 53.552 91.6039 54.12C91.6039 54.68 91.2119 54.968 90.4759 54.968H89.4999V53.264ZM97.1147 58V53.352H98.9307V52.256H94.0907V53.352H95.8987V58H97.1147ZM104.784 58V52.592H102.648V53.552H103.672V58H104.784Z" fill="white" fill-opacity="0.6"/>
<g opacity="0.2">
<g opacity="0.8">
<rect x="149" y="-19" width="48.5" height="366" fill="#36F097"/>
</g>
<g opacity="0.6">
<rect width="48.5" height="366" transform="matrix(-1 0 0 1 246 -19)" fill="#36F097"/>
</g>
</g>
<g opacity="0.8">
<rect x="149" y="86.05" width="48.5" height="261" fill="#36F097"/>
</g>
<g opacity="0.6">
<rect width="48.5" height="261" transform="matrix(-1 0 0 1 246 86.05)" fill="#36F097"/>
</g>
<rect width="49.1554" height="49.1554" transform="matrix(0.986667 0.162749 -0.986667 0.162749 197.5 78.05)" fill="#36F097"/>
<g opacity="0.8">
<rect x="149" y="86.0498" width="48.5" height="261" fill="#36F097"/>
</g>
<g opacity="0.6">
<rect width="48.5" height="261" transform="matrix(-1 0 0 1 246 86.0498)" fill="#36F097"/>
</g>
<rect width="49.1554" height="49.1554" transform="matrix(0.986667 0.162749 -0.986667 0.162749 197.5 78.0498)" fill="#36F097"/>
<path d="M187.463 40.784C187.463 39.696 186.775 38.896 185.815 38.384C186.599 37.888 187.143 37.2 187.143 36.224C187.143 34.416 185.559 33.024 183.143 33.024C180.679 33.024 179.111 34.416 179.111 36.224C179.111 37.2 179.655 37.888 180.439 38.384C179.463 38.896 178.775 39.696 178.775 40.784C178.775 42.72 180.487 44.144 183.143 44.144C185.751 44.144 187.463 42.72 187.463 40.784ZM181.943 36.32C181.943 35.616 182.375 35.184 183.143 35.184C183.879 35.184 184.311 35.616 184.311 36.32C184.311 36.944 183.879 37.344 183.143 37.344C182.375 37.344 181.943 36.944 181.943 36.32ZM181.623 40.72C181.623 40.016 182.151 39.504 183.143 39.504C184.087 39.504 184.647 40.016 184.647 40.72C184.647 41.504 184.087 41.984 183.143 41.984C182.151 41.984 181.623 41.504 181.623 40.72ZM192.72 44.128C195.344 44.128 197.12 42.416 197.12 40.32C197.12 38.304 195.568 36.816 193.264 36.816H193.088L196.128 33.184H193.024L189.76 37.024C188.672 38.304 188.352 39.184 188.352 40.512C188.352 42.432 190.128 44.128 192.72 44.128ZM192.752 41.824C191.984 41.824 191.232 41.408 191.232 40.416C191.232 39.376 191.984 38.976 192.752 38.976C193.52 38.976 194.256 39.376 194.256 40.416C194.256 41.408 193.52 41.824 192.752 41.824ZM201.389 39.808C203.437 39.808 205.021 38.288 205.021 36.448C205.021 34.592 203.437 33.088 201.389 33.088C199.341 33.088 197.757 34.592 197.757 36.448C197.757 38.288 199.341 39.808 201.389 39.808ZM204.365 44L210.541 33.184H208.381L202.205 44H204.365ZM201.389 37.872C200.653 37.872 199.965 37.424 199.965 36.448C199.965 35.472 200.653 35.024 201.389 35.024C202.141 35.024 202.797 35.472 202.797 36.448C202.797 37.424 202.141 37.872 201.389 37.872ZM211.693 44.144C213.741 44.144 215.325 42.624 215.325 40.784C215.325 38.928 213.741 37.424 211.693 37.424C209.645 37.424 208.061 38.928 208.061 40.784C208.061 42.624 209.645 44.144 211.693 44.144ZM211.693 42.208C210.957 42.208 210.269 41.76 210.269 40.784C210.269 39.808 210.957 39.36 211.693 39.36C212.445 39.36 213.101 39.808 213.101 40.784C213.101 41.76 212.445 42.208 211.693 42.208Z" fill="white"/>
<path d="M187.463 40.784C187.463 39.696 186.775 38.896 185.815 38.384C186.599 37.888 187.143 37.2 187.143 36.224C187.143 34.416 185.559 33.024 183.143 33.024C180.679 33.024 179.111 34.416 179.111 36.224C179.111 37.2 179.655 37.888 180.439 38.384C179.463 38.896 178.775 39.696 178.775 40.784C178.775 42.72 180.487 44.144 183.143 44.144C185.751 44.144 187.463 42.72 187.463 40.784ZM181.943 36.32C181.943 35.616 182.375 35.184 183.143 35.184C183.879 35.184 184.311 35.616 184.311 36.32C184.311 36.944 183.879 37.344 183.143 37.344C182.375 37.344 181.943 36.944 181.943 36.32ZM181.623 40.72C181.623 40.016 182.151 39.504 183.143 39.504C184.087 39.504 184.647 40.016 184.647 40.72C184.647 41.504 184.087 41.984 183.143 41.984C182.151 41.984 181.623 41.504 181.623 40.72ZM192.72 44.128C195.344 44.128 197.12 42.416 197.12 40.32C197.12 38.304 195.568 36.816 193.264 36.816H193.088L196.128 33.184H193.024L189.76 37.024C188.672 38.304 188.352 39.184 188.352 40.512C188.352 42.432 190.128 44.128 192.72 44.128ZM192.752 41.824C191.984 41.824 191.232 41.408 191.232 40.416C191.232 39.376 191.984 38.976 192.752 38.976C193.52 38.976 194.256 39.376 194.256 40.416C194.256 41.408 193.52 41.824 192.752 41.824ZM201.389 39.808C203.437 39.808 205.021 38.288 205.021 36.448C205.021 34.592 203.437 33.088 201.389 33.088C199.341 33.088 197.757 34.592 197.757 36.448C197.757 38.288 199.341 39.808 201.389 39.808ZM204.365 44L210.541 33.184H208.381L202.205 44H204.365ZM201.389 37.872C200.653 37.872 199.965 37.424 199.965 36.448C199.965 35.472 200.653 35.024 201.389 35.024C202.141 35.024 202.797 35.472 202.797 36.448C202.797 37.424 202.141 37.872 201.389 37.872ZM211.693 44.144C213.741 44.144 215.325 42.624 215.325 40.784C215.325 38.928 213.741 37.424 211.693 37.424C209.645 37.424 208.061 38.928 208.061 40.784C208.061 42.624 209.645 44.144 211.693 44.144ZM211.693 42.208C210.957 42.208 210.269 41.76 210.269 40.784C210.269 39.808 210.957 39.36 211.693 39.36C212.445 39.36 213.101 39.808 213.101 40.784C213.101 41.76 212.445 42.208 211.693 42.208Z" fill="white"/>
<path d="M181.136 58.12C182.648 58.12 183.832 57.12 184.032 55.632H182.744C182.6 56.456 181.968 57.032 181.152 57.032C180.168 57.032 179.504 56.248 179.504 55.12C179.504 54 180.168 53.224 181.152 53.224C181.968 53.224 182.608 53.792 182.744 54.616H184.032C183.832 53.144 182.648 52.136 181.136 52.136C179.52 52.136 178.256 53.44 178.256 55.12C178.256 56.808 179.52 58.12 181.136 58.12ZM188.361 58.12C190.025 58.12 191.313 56.84 191.313 55.12C191.313 53.4 190.025 52.136 188.361 52.136C186.705 52.136 185.425 53.4 185.425 55.12C185.425 56.84 186.705 58.12 188.361 58.12ZM188.361 57.032C187.313 57.032 186.673 56.176 186.673 55.12C186.673 54.064 187.313 53.224 188.361 53.224C189.417 53.224 190.057 54.064 190.057 55.12C190.057 56.176 189.417 57.032 188.361 57.032ZM194.248 58V55.568H196.736V58H197.952V52.256H196.736V54.52H194.248V52.256H193.032V58H194.248ZM202.613 58.12C204.277 58.12 205.565 56.84 205.565 55.12C205.565 53.4 204.277 52.136 202.613 52.136C200.957 52.136 199.677 53.4 199.677 55.12C199.677 56.84 200.957 58.12 202.613 58.12ZM202.613 57.032C201.565 57.032 200.925 56.176 200.925 55.12C200.925 54.064 201.565 53.224 202.613 53.224C203.669 53.224 204.309 54.064 204.309 55.12C204.309 56.176 203.669 57.032 202.613 57.032ZM208.5 58V55.968H209.26L210.556 58H212.004L210.524 55.784C211.34 55.512 211.82 54.896 211.82 54.12C211.82 52.928 210.98 52.256 209.532 52.256H207.284V58H208.5ZM208.5 53.264H209.476C210.212 53.264 210.604 53.552 210.604 54.12C210.604 54.68 210.212 54.968 209.476 54.968H208.5V53.264ZM216.115 58V53.352H217.931V52.256H213.091V53.352H214.899V58H216.115ZM225.656 57.008H223.568L224.384 56.128C225.328 55.176 225.568 54.76 225.568 54.104C225.568 53.192 224.776 52.512 223.696 52.512C222.536 52.512 221.72 53.28 221.72 54.36H222.8C222.8 53.832 223.12 53.504 223.64 53.504C224.112 53.504 224.408 53.8 224.408 54.24C224.408 54.712 224.144 55.048 223.52 55.688L221.88 57.368V58H225.656V57.008Z" fill="white"/>
</g>
</mask>
<g mask="url(#mask0_408_1422)">
<g filter="url(#filter0_b_408_1422)">
<rect width="341" height="300" rx="32" fill="#FFFDFD"/>
<rect x="0.5" y="0.5" width="340" height="299" rx="31.5" stroke="url(#paint0_radial_408_1422)" stroke-opacity="0.1"/>
</g>
<g filter="url(#filter1_f_408_1422)">
<path d="M0 126H341V268C341 285.673 326.673 300 309 300H32C14.3269 300 0 285.673 0 268V126Z" fill="black"/>
</g>
</g>
</g>
<defs>
<filter id="filter0_b_408_1422" x="-60" y="-60" width="461" height="420" filterUnits="userSpaceOnUse" color-interpolation-filters="sRGB">
<feFlood flood-opacity="0" result="BackgroundImageFix"/>
<feGaussianBlur in="BackgroundImageFix" stdDeviation="30"/>
<feComposite in2="SourceAlpha" operator="in" result="effect1_backgroundBlur_408_1422"/>
<feBlend mode="normal" in="SourceGraphic" in2="effect1_backgroundBlur_408_1422" result="shape"/>
</filter>
<filter id="filter1_f_408_1422" x="-48" y="78" width="437" height="270" filterUnits="userSpaceOnUse" color-interpolation-filters="sRGB">
<feFlood flood-opacity="0" result="BackgroundImageFix"/>
<feBlend mode="normal" in="SourceGraphic" in2="BackgroundImageFix" result="shape"/>
<feGaussianBlur stdDeviation="24" result="effect1_foregroundBlur_408_1422"/>
</filter>
<radialGradient id="paint0_radial_408_1422" cx="0" cy="0" r="1" gradientUnits="userSpaceOnUse" gradientTransform="translate(164.978 182.912) rotate(-145.927) scale(208.995 652.566)">
<stop stop-color="#9D9D9D"/>
<stop offset="1" stop-color="#AEAEAE" stop-opacity="0"/>
</radialGradient>
<clipPath id="clip0_408_1422">
<rect width="355" height="261" fill="white"/>
</clipPath>
</defs>
</svg>
