<svg width="280" height="295" viewBox="0 0 280 295" fill="none" xmlns="http://www.w3.org/2000/svg">
<g opacity="0.2">
<mask id="mask0_13_32627" style="mask-type:alpha" maskUnits="userSpaceOnUse" x="0" y="0" width="280" height="295">
<g clip-path="url(#clip0_13_32627)">
<g opacity="0.62" clip-path="url(#clip1_13_32627)">
<path d="M73.0406 22.5322C72.8895 23.136 70.9478 22.4567 70.4038 22.5322C69.8598 22.6077 69.1647 21.8303 68.6207 21.7775C68.0767 21.7246 68.0767 22.7963 67.5327 22.6756C67.0478 22.5658 66.5444 22.5658 66.0594 22.6756C65.591 22.7813 65.9839 23.7851 65.591 24.0945C65.1981 24.4039 63.3243 26.8115 63.0297 26.9625C62.735 27.1134 61.7906 26.6531 61.5564 26.9625C61.3244 27.6994 61.3244 28.4898 61.5564 29.2267C61.7906 29.6946 61.4808 31.3928 61.8661 31.3928C62.4367 31.2186 62.9661 30.9311 63.4226 30.5475C63.7323 30.3135 63.8079 31.0834 64.3519 31.0834C64.8959 31.0834 65.591 30.389 66.0594 30.623C66.5279 30.8569 65.9839 32.1324 66.3692 32.6381C66.7545 33.1438 67.6914 33.491 68.1523 33.8004C68.6131 34.1098 68.6963 35.3099 69.2402 35.3099C69.7842 35.3099 71.0989 34.5551 71.3331 34.6155C71.5673 34.6759 70.2527 36.9401 70.638 37.325C71.0233 37.7099 71.8771 37.559 72.4966 37.8684C73.1162 38.1779 73.8944 38.4873 74.053 39.0307C74.2117 39.5741 73.4335 40.4647 73.1993 40.8119C72.9651 41.1591 73.0406 41.9365 72.9273 42.1327C72.814 42.3289 70.6607 42.2836 70.4038 42.5554C70.1469 42.8271 70.3282 44.2611 70.0185 44.4195C69.7087 44.578 68.462 44.2233 68.2354 44.5705C68.0178 45.4459 67.9388 46.35 68.0012 47.2498C68.0389 47.7102 68.462 47.6347 68.6207 47.9064C68.72 48.8338 68.7579 49.7666 68.734 50.699C68.7718 51.1971 69.1647 51.9745 69.2402 52.4424C69.1999 53.5278 69.0428 54.6057 68.7718 55.6576C68.6736 56.7314 68.727 57.8138 68.9305 58.8728C69.1269 59.2199 70.7891 59.4916 71.2953 59.6879C71.8015 59.8841 71.4162 60.7747 71.8771 61.0011C72.6638 61.281 73.466 61.5153 74.2797 61.703C74.7104 61.8162 75.0353 62.5936 75.6397 62.7898C76.2441 62.9861 77.1508 61.854 77.5814 62.0351C78.0121 62.2162 77.1508 63.1597 77.1961 63.4691C77.2414 63.7785 77.7779 64.3597 77.9516 64.8276C78.1254 65.2956 79.1152 65.3635 79.5836 65.5824C80.0521 65.8012 80.8983 65.2352 81.0947 65.3484C81.5106 65.7931 81.8872 66.2729 82.2205 66.7824C82.5302 67.1749 83.1876 66.9409 83.4218 67.4088C83.656 67.8768 83.1498 68.0655 82.8778 68.4126C82.6058 68.7598 82.4925 69.4617 81.6387 69.7712C80.7849 70.0806 79.3116 69.5372 78.8054 69.7712C78.2992 70.0051 78.2614 70.6995 77.7628 70.9335C77.2641 71.1674 76.4028 71.3561 76.0552 72.0957C75.7077 72.8354 75.549 73.7184 75.7001 73.8392C76.0285 74.2576 76.3791 74.6582 76.7503 75.0392C76.9846 75.1524 76.909 75.9675 76.6748 76.277C76.4406 76.5864 75.6246 76.36 75.549 76.9034C75.4735 77.4468 75.277 78.7978 75.5868 78.8355C76.097 78.8334 76.6052 78.8994 77.0979 79.0318C77.2943 79.1827 77.2188 79.8469 76.7126 79.9601C76.0162 80.0785 75.3381 80.2866 74.6953 80.579C74.461 80.813 73.7659 81.9752 73.4939 82.2847C72.9387 82.7847 72.3247 83.2155 71.6655 83.5677C71.3558 83.6809 71.4389 84.6923 71.2802 85.0017C71.1216 85.3112 70.2753 85.2282 70.1922 85.4999C70.1091 85.7716 70.0033 86.7075 69.9656 87.0546C69.9278 87.4018 70.502 87.8094 70.4264 88.1414C70.2998 88.3498 70.1308 88.5294 69.9304 88.6685C69.73 88.8076 69.5026 88.9031 69.2629 88.949C68.6642 88.8657 68.0544 88.9199 67.4798 89.1075C66.684 89.2898 65.92 89.5899 65.2132 89.9981C65.0621 90.2321 65.0999 92.3604 64.8656 92.7906C64.6314 93.2208 64.0119 93.1001 63.8155 93.5454C63.619 93.9907 63.8986 95.1001 63.7021 95.3265C63.5057 95.553 62.8861 96.836 62.6519 97.0322C62.4177 97.2285 62.7728 98.1945 62.5386 98.353C62.3044 98.5115 61.0275 99.2059 60.6724 99.4021C60.3173 99.5984 60.2115 100.157 59.3955 100.444C58.5795 100.73 57.1818 100.836 56.9476 101.025C56.7134 101.213 55.784 102.851 55.5574 103.04C55.3171 103.62 55.184 104.239 55.1645 104.866C55.1267 105.214 54.4089 105.365 54.0841 105.485C53.6023 105.77 53.2118 106.187 52.9583 106.685C52.7996 107.07 51.8703 107.44 51.6739 107.689C51.4774 107.938 51.6361 109.553 51.2508 109.742C50.8654 109.931 49.9286 109.591 49.4677 109.553C49.0068 109.516 48.5686 109.976 47.8357 110.059C47.1029 110.142 45.6598 110.059 45.1989 110.059C44.738 110.059 43.4536 111.221 42.8718 111.335C42.2318 111.471 41.5701 111.471 40.9301 111.335C40.5447 111.176 40.8545 110.285 40.6203 109.825C40.3861 109.365 40.1518 108.625 39.7665 108.504C39.3812 108.383 38.331 107.689 37.8626 107.75C37.3941 107.81 36.3892 109.765 36.2004 110.014C35.8191 110.343 35.4007 110.627 34.9537 110.859C34.4928 111.176 34.3342 112.799 33.7524 112.995C33.1706 113.191 31.8107 114.504 31.4253 114.542C31.04 114.58 30.4205 115.863 30.4583 116.444C30.496 117.025 29.3703 117.259 29.4836 118.188C29.6145 118.908 29.8922 119.594 30.2996 120.203C30.5338 120.625 31.2667 120.399 31.6218 120.708C31.9965 121.101 32.4857 121.365 33.0195 121.463C33.4049 121.425 34.0622 121.003 34.5306 120.92C34.9991 120.837 35.2862 121.622 35.4222 121.931C35.6214 122.586 35.5647 123.293 35.2635 123.908C35.016 124.483 34.9759 125.126 35.1502 125.727C35.2257 126.195 34.3946 126.814 34.1831 127.161C34.1091 127.483 34.1242 127.819 34.2267 128.132C34.3292 128.446 34.5152 128.726 34.7648 128.943C35.2668 129.137 35.6896 129.493 35.9661 129.954C36.2004 130.452 36.8577 131.154 37.4772 131.033C38.0968 130.912 38.7163 130.535 39.2225 130.686C39.7287 130.837 39.0261 133.403 39.1848 133.788C39.6689 134.397 40.186 134.979 40.7336 135.531C41.0056 135.916 40.4616 136.928 40.507 137.313C40.7033 137.932 41.0334 138.502 41.4741 138.981C41.746 139.214 41.2398 139.871 41.1265 140.218C41.0132 140.565 41.8821 141.539 41.8821 141.728C41.8821 141.916 41.3456 142.188 41.1869 142.482C41.0283 142.777 41.9425 143.841 41.9425 144.113C41.9425 144.384 40.3483 144.347 40.1972 144.46C40.0461 144.573 39.7288 145.584 39.1848 145.584C38.5003 145.486 37.8254 145.329 37.1675 145.117C36.7821 145.041 37.2052 143.569 36.7821 143.569C36.1875 143.722 35.6042 143.916 35.0368 144.15C34.7648 144.15 33.6769 143.841 33.2915 143.992C32.9062 144.143 32.7475 145.237 32.4755 145.35C31.7443 145.482 31.0044 145.561 30.2618 145.584C30.0276 145.584 29.1738 143.992 28.864 143.841C28.0273 143.762 27.1849 143.762 26.3481 143.841C25.993 143.841 25.5926 144.596 25.1392 144.596C24.6859 144.596 24.3308 143.901 23.9757 143.705C23.2802 143.449 22.5481 143.306 21.8073 143.283C21.3766 143.32 20.878 145.758 20.6437 145.841C20.4095 145.924 20.7571 146.92 21.0668 147.313C21.3766 147.705 20.9158 148.068 20.5682 148.241C20.2207 148.415 18.7776 149.056 18.3922 149.207C18.0069 149.358 17.2287 149.788 17.2665 150.369C17.3265 151.168 17.51 151.952 17.8105 152.694C18.0069 152.89 18.702 152.468 18.8607 152.694C19.0193 152.921 18.6264 154.324 18.7398 154.596C19.3586 155.182 20.0845 155.643 20.878 155.955C21.4875 156.109 22.0742 156.343 22.6233 156.649C22.8121 156.845 23.4317 158.355 23.7037 158.475C24.9005 158.648 26.1064 158.751 27.3152 158.785C27.897 158.785 28.2823 157.736 28.6752 157.66C29.068 157.585 30.3374 157.811 30.8436 157.66C31.4874 157.337 32.1107 156.974 32.7098 156.573C33.0195 156.415 32.8231 155.139 33.3671 154.981C33.9111 154.822 34.8782 154.755 35.1124 154.709C35.3466 154.664 35.4977 155.562 35.9661 155.607C36.4346 155.653 37.7115 155.253 37.9835 155.373C38.2554 155.494 36.2004 156.649 36.0039 156.883C35.8075 157.117 36.1626 158.317 35.9284 158.551C35.2964 158.812 34.6477 159.032 33.9866 159.207C33.7146 159.366 32.7098 161.381 32.3169 161.691C31.924 162 30.6925 161.766 30.1862 161.887C29.68 162.008 28.2445 163.396 27.7383 163.396C26.9132 163.453 26.0852 163.453 25.2601 163.396C24.8672 163.313 23.6281 164.151 23.2806 164.249C23.1239 164.28 22.9614 164.253 22.8226 164.174C22.6839 164.096 22.5783 163.969 22.5251 163.819C22.4873 163.547 23.2806 162.928 22.8726 162.619C22.4646 162.309 21.5957 161.57 21.3993 161.924C21.2028 162.279 21.5202 164.128 21.558 164.438C22.0961 165.367 22.7625 166.215 23.5375 166.959C24.0361 167.389 24.4668 167.034 24.701 167.268C24.9352 167.502 26.9676 170.332 27.3001 170.838C27.6325 171.344 28.2672 171.729 28.5769 172.151C28.8867 172.574 29.5063 174.551 29.9369 174.906C30.3676 175.261 32.3018 177.17 32.6871 177.344C33.0724 177.517 33.7373 177.344 34.0093 177.54C34.8821 178.368 35.8029 179.144 36.767 179.865C37.1523 179.978 37.3866 179.208 37.7341 179.163C38.0817 179.117 38.1194 180 38.5879 179.872C39.2926 179.762 39.9912 179.616 40.6807 179.434C41.1492 179.246 41.1114 178.393 41.4967 178.393C42.1266 178.489 42.7639 178.527 43.4007 178.506C43.7104 178.393 43.4385 176.921 43.7482 176.883C44.058 176.846 45.1007 177.344 45.4935 177.306C45.8864 177.268 47.1633 176.378 47.6997 176.181C48.2362 175.985 48.9086 175.91 49.1353 175.638C49.3619 175.366 49.2939 174.438 49.5659 174.166C50.0241 173.675 50.4387 173.145 50.805 172.581C51.0525 172.146 51.1229 171.633 51.0015 171.147C50.9273 170.912 50.7837 170.705 50.5896 170.553C50.3954 170.401 50.1598 170.311 49.9135 170.295C49.3794 170.186 48.8596 170.017 48.3646 169.789C48.1682 169.751 48.3268 169.034 48.3646 168.823C48.4024 168.611 49.0219 169.17 49.2939 168.861C49.5659 168.551 50.261 167.774 50.6539 167.268C51.0468 166.762 50.7294 165.759 50.9637 165.487C51.4714 165.048 52.001 164.635 52.5503 164.249C52.7467 164.091 52.5503 165.328 52.709 165.562C52.8676 165.796 53.4645 165.796 53.9103 165.91C54.356 166.023 54.4165 165.215 54.7263 165.155C55.4824 165.104 56.2418 165.129 56.9929 165.23C57.3405 165.351 57.144 166.279 56.872 166.664C56.6 167.049 55.9427 166.513 55.7085 166.317C55.4743 166.121 55.0134 166.513 54.5827 166.702C54.3782 166.867 54.2205 167.083 54.1251 167.328C54.0296 167.573 53.9999 167.838 54.0387 168.098C54.1218 168.483 55.3987 168.023 55.7085 168.098C56.0182 168.174 54.9529 169.653 54.6658 169.804C54.3787 169.955 54.5072 170.891 54.5449 171.238C54.5827 171.585 56.1769 171.313 56.5622 171.434C56.9476 171.555 55.5952 172.868 55.3232 173.14C55.0512 173.412 55.3609 174.612 55.2023 174.921C55.0436 175.231 54.545 175.502 54.7792 175.849C55.0134 176.197 55.9427 176.702 55.9805 177.012C56.0183 177.321 55.5952 177.902 55.4365 178.136C55.2778 178.37 56.5245 179.917 56.7965 180.227C57.0685 180.536 56.2525 182.167 56.2525 182.589C55.939 183.477 55.496 184.314 54.9378 185.072C54.7414 185.269 54.8169 186.544 54.7792 187.05C54.5603 187.678 54.2872 188.287 53.9632 188.869C53.8876 189.178 53.9632 191.737 54.2729 191.933C54.5827 192.129 55.1645 192.28 55.3609 192.439C55.5574 192.597 54.4694 192.982 54.4316 193.367C54.3938 193.752 54.6205 195.495 54.6658 196.001C54.7112 196.507 54.9378 197.012 55.3232 197.012C55.7085 197.012 56.1769 196.507 56.5245 196.657C56.872 196.808 56.9929 198.054 56.6378 198.288C56.2827 198.522 55.7085 198.756 55.784 199.042C55.8596 199.329 56.3658 200.393 56.4111 200.627C56.4565 200.861 55.3609 200.084 55.2476 200.476C55.1343 200.869 55.6707 203.11 55.5574 203.654C55.5092 203.909 55.53 204.172 55.6177 204.416C55.7053 204.66 55.8567 204.876 56.056 205.043C56.4111 205.314 56.1014 205.978 55.9427 206.288C55.8537 206.921 55.9901 207.564 56.328 208.107C56.6879 208.403 56.9792 208.774 57.1818 209.194C57.3335 210.064 57.3462 210.953 57.2196 211.828C57.1818 212.25 57.9222 212.915 57.9751 213.458C58.028 214.001 57.8995 216.477 57.9751 217.451C58.0507 218.424 58.6778 219.851 58.5191 220.817C58.3604 221.783 58.3227 223.994 58.5569 224.424C58.7911 224.854 59.1764 226.009 59.4937 226.515C59.7565 227.182 59.8997 227.889 59.9169 228.605C59.9546 229.036 61.511 230.658 61.7377 231.051C61.9644 231.443 62.1684 233.76 62.3195 234.191C62.4706 234.621 63.075 235.081 63.2941 235.542C63.5132 236.002 63.3697 237.64 63.6795 238.062C63.9892 238.485 64.8808 239.3 65.1528 239.262C65.4248 239.225 65.9083 239.036 66.0821 239.262C66.2559 239.489 65.8101 240.349 65.8932 240.772C65.9763 241.195 66.7092 241.353 66.8981 241.859C67.0869 242.364 67.4798 243.413 67.6007 243.874C67.7216 244.334 68.0616 247.134 68.1825 247.557C68.3034 247.98 69.4216 248.991 69.6936 249.459C69.9656 249.927 69.7691 251.391 69.6936 251.723C69.618 252.055 70.5473 252.38 70.6984 252.614C70.8495 252.848 70.162 253.112 70.0789 253.368C69.9958 253.625 70.0411 254.455 70.0033 254.878C70.1051 255.465 70.3152 256.028 70.6229 256.538C70.8193 256.968 70.7438 259.331 70.8193 259.837C70.8949 260.342 71.7864 261.037 72.0962 261.271C72.406 261.504 72.0962 262.274 72.0962 262.584C72.0962 262.893 73.1842 263.867 73.8793 265.489C74.5744 267.112 74.3477 268.32 74.6348 268.554C74.9219 268.788 75.4508 269.097 75.7983 269.369C76.1459 269.641 75.7984 270.222 76.3046 270.878C76.8108 271.535 77.7023 273.361 77.8912 273.633C78.0801 273.905 78.7827 273.784 79.0547 274.214C79.3267 274.644 80.1427 276.192 80.3769 276.652C80.6403 277.573 80.7825 278.525 80.8 279.482C80.8 280.063 81.5556 279.988 81.7747 280.101C81.9938 280.214 81.3063 281.263 81.3063 281.46C81.553 282.317 81.8507 283.159 82.1978 283.981C82.432 284.516 83.3689 285.105 83.4218 285.452C83.4955 286.111 83.6451 286.76 83.8676 287.384C84.1751 287.833 84.5107 288.261 84.8724 288.667C85.126 289.244 85.2842 289.859 85.3409 290.486C85.4164 290.992 86.1946 290.834 86.3911 291.068C86.5875 291.301 86.1191 292.041 86.1946 292.502C86.2702 292.962 87.0862 293.785 87.1239 294.132C87.1617 294.479 85.5373 294.517 85.1898 294.713C84.8422 294.909 85.8471 297.77 86.0435 298.2C86.3196 298.668 86.687 299.076 87.1239 299.4C87.4337 299.634 87.4337 300.562 87.7057 300.992C87.9777 301.422 88.8315 301.687 89.2621 302.502C89.6928 303.317 89.5341 304.132 90.2292 304.713C90.9243 305.294 91.7403 305.641 92.0501 306.223C92.3598 306.804 92.715 306.608 93.0247 306.766C93.5162 307.056 93.9597 307.42 94.3394 307.845C94.9024 308.32 95.5476 308.689 96.2433 308.932C96.6287 309.045 97.7544 308.351 98.7669 307.845C99.6562 307.358 100.59 306.956 101.555 306.645C101.886 306.53 102.175 306.316 102.383 306.033C102.59 305.75 102.707 305.411 102.718 305.06C102.801 304.434 102.22 302.736 102.718 301.921C103.217 301.105 103.806 299.656 104.313 299.204C104.971 298.657 105.785 298.332 106.64 298.275C107.395 298.275 108.151 298.471 108.581 298.079C109.012 297.687 108.77 297.188 109.39 297C110.009 296.811 111.876 297.151 112.148 296.879C112.42 296.607 111.022 295.717 111.06 295.294C111.164 294.44 111.42 293.612 111.815 292.849C112.135 292.235 112.636 291.734 113.251 291.415C113.757 291.264 114.452 289.792 114.376 289.483C114.175 288.831 114.096 288.148 114.142 287.467C114.301 286.999 116.235 286.033 116.545 285.724C116.855 285.415 117.3 286.479 117.671 286.652C118.041 286.826 118.683 286.418 119.03 286.456C119.378 286.494 119.922 287.271 120.194 287.211C120.466 287.15 120.617 282.245 120.662 281.747C120.708 281.248 120.035 280.35 120.035 279.807C120.035 279.263 120.897 278.335 120.662 277.867C120.428 277.399 119.907 276.048 119.612 275.603C119.275 274.938 119.064 274.216 118.993 273.475C118.993 273.127 119.884 271.965 119.884 271.573C119.773 270.88 119.84 270.171 120.078 269.511C120.316 268.851 120.717 268.262 121.244 267.799C121.942 267.131 122.542 266.369 123.027 265.535C123.141 265.112 121.977 264.372 121.977 264.063C121.977 263.754 122.99 264.184 123.337 264.184C123.685 264.184 124.093 263.021 124.266 262.357C124.44 261.693 123.994 260.689 124.266 260.153C124.538 259.618 124.969 258.523 125.12 258.176C125.181 257.375 125.181 256.57 125.12 255.768C125.158 255.346 124.115 254.802 123.534 254.531C122.952 254.259 122.37 253.776 122.408 253.444C122.508 253.024 122.694 252.628 122.952 252.282C123.103 252.093 124.153 252.282 124.342 252.093C124.531 251.904 123.178 248.682 122.99 248.138C122.801 247.595 122.234 247.632 122.015 247.481C121.796 247.331 122.906 246.319 123.027 246.047C123.148 245.776 123.413 242.945 123.103 242.515C122.679 241.687 122.303 240.836 121.977 239.964C121.824 239.01 121.931 238.033 122.287 237.134C122.68 236.553 122.99 236.704 123.488 235.775C123.86 234.995 124.185 234.194 124.463 233.375C124.735 232.757 124.07 232.621 124.697 232.055C125.574 231.439 126.507 230.908 127.485 230.47C128.105 230.16 129.155 230.077 129.502 230.424C129.85 230.772 130.515 231.979 130.825 232.168C131.134 232.357 131.678 230.93 132.139 230.311C132.6 229.692 133.575 228.953 133.696 228.221C133.924 227.327 134.319 226.485 134.859 225.737C135.207 225.315 135.902 225.738 136.756 225.775C137.609 225.813 138.501 226.439 139.128 226.009C139.755 225.579 141.024 224.613 141.606 224.303C142.188 223.994 143.782 223.881 144.016 223.549C144.251 223.217 144.205 221.224 144.326 220.952C144.447 220.681 143.163 220.198 143.276 219.707C143.846 218.763 144.496 217.87 145.218 217.035C145.452 216.726 146.494 217.035 147.076 216.567C147.658 216.1 150.098 214.303 150.725 213.933C151.353 213.564 152.743 213.239 153.166 212.93C153.589 212.62 153.869 210.914 154.254 210.409C154.639 209.903 156.392 208.318 156.974 207.737C157.647 207.057 158.511 206.596 159.452 206.416C160.155 206.416 160.888 206.182 161.084 205.76C161.304 204.999 161.643 204.278 162.089 203.624C162.595 203.126 165.935 199.85 166.123 199.556C166.312 199.261 166.516 197.774 167.015 197.231C167.514 196.688 167.68 196.476 168.375 195.797C169.592 194.955 170.853 194.179 172.153 193.472C172.462 193.239 172.5 192.122 172.855 191.888C173.21 191.654 174.48 191.035 175.024 190.688C175.584 190.346 176.235 190.183 176.89 190.22C177.472 190.257 178.907 190.023 179.217 189.465C179.527 188.906 180.879 189.389 181.385 189.004C181.892 188.62 182.141 187.299 182.353 186.952C182.564 186.604 182.587 185.94 183.055 185.518C183.524 185.095 184.763 185.05 184.914 184.763C185.065 184.476 184.219 183.329 184.37 183.019C184.521 182.71 186.198 181.857 186.349 181.548C186.5 181.238 187.052 180.657 186.976 180.272C186.901 179.887 186.221 179.691 186.123 179.517C186.024 179.344 186.621 178.816 186.508 178.544C186.395 178.272 185.307 177.155 185.072 176.612C184.838 176.068 185.458 174.944 185.768 174.559C186.077 174.174 187.709 172.77 187.981 172.461C188.253 172.151 189.341 172.853 189.764 172.732C190.193 172.591 190.571 172.329 190.852 171.978C191.124 171.668 192.363 171.63 192.983 171.51C193.689 171.258 194.281 170.763 194.653 170.113C195.235 169.359 195.703 168.332 196.164 167.849C196.541 167.486 196.821 167.035 196.98 166.536C196.98 166.264 195.703 165.494 195.892 165.336C196.081 165.177 196.708 164.793 196.98 165.064C197.252 165.336 197.524 166.649 197.871 166.959C198.219 167.268 197.29 168.627 197.41 169.223C197.531 169.819 198.166 170.076 198.846 170.076C199.526 170.076 200.395 169.072 200.818 168.989C201.241 168.906 201.09 167.479 201.128 167.17C201.166 166.86 201.883 166.974 202.065 166.936C202.246 166.898 202.488 167.827 202.881 168.098C203.273 168.37 204.12 168.219 204.701 168.37C205.283 168.521 205.457 166.785 205.125 166.159C204.792 165.532 204.369 163.562 203.999 163.291C203.629 163.019 203.923 162.128 203.923 161.509C203.718 160.593 203.393 159.707 202.956 158.875C202.77 158.554 202.665 158.192 202.652 157.821C202.639 157.449 202.717 157.081 202.881 156.747C203.044 156.441 203.125 156.099 203.118 155.752C203.11 155.406 203.012 155.068 202.835 154.77C202.646 154.536 201.445 154.649 201.249 154.573C201.052 154.498 201.944 153.449 201.868 153.139C201.793 152.83 199.428 151.471 199.345 151.124C199.336 150.464 199.363 149.804 199.428 149.147C199.428 148.762 200.939 148.022 201.052 147.637C201.166 147.252 200.433 146.317 200.433 145.932C200.433 145.547 200.705 144.732 200.433 144.422C200.161 144.113 198.106 144.656 197.562 144.498C196.714 144.02 195.931 143.434 195.235 142.754C194.849 142.407 193.875 141.32 193.958 141.086C194.154 140.721 194.468 140.434 194.849 140.271C195.197 140.158 194.849 138.837 195 138.414C195.151 137.992 195.892 137.833 196.126 137.66C196.36 137.486 197.093 138.241 197.365 137.856C197.611 137.323 197.718 136.736 197.675 136.15C197.637 135.879 198.687 135.879 199.269 135.765C199.851 135.652 200.863 136.188 201.286 136.15C201.71 136.113 202.102 134.912 202.216 134.641C202.329 134.369 201.09 133.75 200.939 133.592C200.788 133.433 200.78 132.55 200.508 132.354C200.236 132.158 198.997 133.169 198.612 133.109C198.226 133.048 197.796 132.294 197.524 132.097C197.252 131.901 197.448 131.048 197.214 130.822C196.98 130.595 196.398 130.973 196.088 130.777C195.779 130.58 196.088 129.848 195.779 129.773C195.469 129.697 194.691 130.241 194.419 130.044C194.147 129.848 194.494 127.486 194.419 127.139C194.343 126.792 195.507 126.052 196.013 125.705C196.513 125.375 196.881 124.881 197.055 124.308C197.055 123.961 196.202 123.418 196.126 123.146C196.051 122.874 196.632 122.391 196.783 122.18C196.934 121.969 197.72 123.108 197.947 123.38C198.174 123.652 198.959 123.222 199.194 123.456C199.428 123.69 198.959 125.199 199.269 125.32C199.821 125.324 200.366 125.203 200.863 124.965C201.249 124.814 200.977 123.305 201.249 123.071C201.521 122.837 202.337 122.988 202.684 123.108C203.032 123.229 202.881 125.161 203.266 125.546C203.974 126.152 204.733 126.697 205.533 127.176C206.052 127.376 206.621 127.402 207.157 127.252C207.429 127.139 206.885 124.988 207.157 124.814C207.65 124.624 208.154 124.468 208.668 124.346C208.781 124.271 208.819 125.856 208.933 126.052C209.046 126.248 209.749 126.671 209.869 127.101C209.99 127.531 209.749 129.773 209.869 130.12C209.99 130.467 210.625 131.169 210.625 131.441C210.625 131.712 209.869 133.418 209.968 133.765C210.066 134.112 210.935 134.309 211.6 134.346C212.264 134.384 213.534 134.188 213.806 134.384C214.167 134.674 214.557 134.927 214.969 135.139C216.007 135.03 217.024 134.776 217.991 134.384C218.301 134.15 219.314 134.807 219.699 134.731C220.084 134.656 221.867 133.803 222.139 133.765C222.411 133.728 224.406 134.271 225.162 134.384C225.917 134.497 227.103 133.878 227.489 133.765C227.874 133.652 228.305 133.146 228.728 133.146C229.328 133.193 229.924 133.284 230.511 133.418C230.904 133.494 230.556 134.037 231.093 134.271C231.666 134.454 232.249 134.608 232.838 134.731C233.344 134.89 233.231 135.584 233.465 135.78C233.699 135.977 233.85 136.535 234.009 136.784C234.168 137.033 233.072 136.98 232.959 137.018C232.845 137.056 232.377 136.437 232.029 136.437C231.682 136.437 231.909 137.796 232.029 138.256C232.15 138.716 231.561 139.539 231.41 139.848C231.259 140.158 231.448 141.011 231.41 141.358C231.372 141.705 229.899 141.554 229.619 141.788C229.34 142.022 229.891 143.532 229.619 143.766C229.347 144 228.577 143.841 228.108 143.803C227.64 143.766 227.141 144.422 226.748 144.558C226.355 144.694 226.476 145.222 225.894 145.313C225.599 145.343 225.316 145.447 225.071 145.616C224.827 145.785 224.629 146.013 224.497 146.279C224.27 146.86 224.036 149.23 223.567 149.577C223.099 149.924 223.688 150.702 224.111 151.245C224.534 151.788 224.927 153.026 225.313 153.139C225.698 153.253 226.068 153.139 226.438 153.373C226.809 153.607 227.413 155.773 227.798 155.894C228.184 156.015 229 155.079 229.43 154.921C229.834 154.741 230.163 154.426 230.36 154.03C230.435 153.796 229.038 152.596 229.075 152.287C229.37 151.714 229.735 151.182 230.163 150.702C230.397 150.392 229.695 149.192 229.891 148.8C230.088 148.407 229.967 147.985 230.549 148.181C231.13 148.377 231.757 148.837 232.105 148.762C232.453 148.686 232.861 148.452 233.231 148.603C233.601 148.754 233.42 150.196 233.729 150.468C234.075 150.824 234.401 151.199 234.704 151.592C235.052 151.977 234.273 153.298 234.311 153.645C234.349 153.992 235.165 155.97 235.324 156.392C235.624 157.084 235.988 157.746 236.412 158.37C236.759 158.875 236.291 160.543 236.412 161.124C236.533 161.706 237.069 162.128 237.379 162.558C237.688 162.989 237.726 163.872 238.195 163.909C238.663 163.947 240.325 164.725 240.832 164.574C241.338 164.423 241.179 162.166 241.451 162.053C241.723 161.94 242.343 161.743 242.464 161.298C242.584 160.853 241.995 159.517 241.844 158.973C241.693 158.43 240.794 158.317 240.945 157.464C241.096 156.611 241.338 155.411 241.413 155.064C241.489 154.717 240.907 153.743 240.907 153.554C240.907 153.366 243.121 153.675 243.234 153.479C243.283 152.544 243.219 151.606 243.045 150.686C242.924 150.339 243.544 149.72 243.506 149.177C243.468 148.634 243.317 147.434 243.279 146.777C243.195 146.012 242.956 145.273 242.577 144.603C242.305 144.256 241.92 143.849 242.071 143.441C242.222 143.033 242.826 143.215 243.159 143.562C243.491 143.909 243.627 145.034 244.171 144.837C244.715 144.641 245.025 144.083 245.682 143.984C246.339 143.886 247.08 144.739 247.503 144.8C247.926 144.86 249.52 145.033 249.868 145.033C250.215 145.033 250.45 142.709 250.533 142.165C250.753 141.207 251.064 140.272 251.462 139.373C251.696 138.95 253.132 136.588 253.358 136.082C253.585 135.577 253.479 134.49 253.63 133.909C253.782 133.328 254.295 132.241 254.099 132.052C253.902 131.863 252.588 131.705 252.467 131.35C252.346 130.995 252.701 129.569 252.588 129.222C252.474 128.875 254.099 128.097 254.333 127.863C254.567 127.629 256.003 127.109 256.154 126.739C256.305 126.369 255.648 124.474 255.648 124.029C255.648 123.584 256.585 122.829 256.698 122.557C256.811 122.286 256.003 121.433 256.003 121.274C256.003 121.116 256.501 120.346 256.464 120.15C256.426 119.954 255.61 118.761 255.572 118.452C255.556 117.945 255.723 117.45 256.041 117.055C256.388 116.663 257.748 116.474 258.02 116.301C258.292 116.127 259.531 114.557 259.917 114.172C260.302 113.787 261.586 112.036 262.009 112.036C262.432 112.036 262.863 110.293 263.445 109.946C264.534 109.585 265.651 109.312 266.784 109.131C267.208 109.017 267.872 107.855 268.296 107.621C268.719 107.387 269.232 108.127 269.58 108.316C269.927 108.504 270.471 109.825 271.015 110.059C271.559 110.293 273.033 110.368 273.222 110.142C273.411 109.916 271.167 107.621 270.857 107.387C270.547 107.153 270.101 105.448 270.041 105.221C269.98 104.995 271.869 103.432 272.179 103.123C272.489 102.814 272.564 101.923 272.836 101.847C273.108 101.772 273.887 101.613 273.962 101.417C274.038 101.221 273.305 100.255 273.305 99.9078C273.305 99.5606 273.652 98.7078 273.222 98.4738C272.791 98.2398 271.831 98.5493 271.401 98.3606C270.812 98.1118 270.181 97.9786 269.542 97.9681C269.232 98.0511 268.643 98.4738 268.416 98.3606C267.834 98.0323 267.205 97.7956 266.55 97.6587C266.165 97.6964 265.198 99.3644 264.88 99.3266C264.418 99.1394 263.996 98.8624 263.641 98.5115C263.445 98.3228 264.397 96.3832 264.495 96.1115C264.593 95.8398 265.621 95.1831 265.78 94.9492C265.938 94.7152 265.024 91.8095 264.729 91.6963C264.435 91.583 262.788 93.3567 262.516 93.3189C262.244 93.2812 261.7 91.8095 261.549 91.6963C261.397 91.583 263.369 90.6472 263.18 90.3C262.676 89.7932 262.144 89.3144 261.586 88.866C261.314 88.5565 260.619 88.1113 260.309 88.1641C260 88.2169 259.101 89.7188 258.64 89.8321C258.179 89.9453 256.97 90.4887 256.66 90.5868C256.35 90.6849 256.501 92.9114 256.275 93.0623C255.524 93.1704 254.765 93.1982 254.008 93.1453C253.615 93.1453 252.92 92.1717 252.497 92.134C252.074 92.0963 250.397 92.0208 250.125 91.9831C249.853 91.9453 248.999 90.5491 248.689 90.5868C248.379 90.6245 247.934 92.134 247.722 92.1717C247.009 92.4171 246.311 92.7018 245.629 93.0246C245.357 93.1831 245.591 94.768 245.282 95.0397C244.972 95.3114 243.959 95.5831 243.687 95.8549C243.415 96.1266 243.846 97.87 243.529 97.9455C243.211 98.021 241.202 97.9455 240.779 98.0285C240.356 98.1115 240.084 98.5266 239.615 98.6096C239.069 98.5858 238.521 98.6238 237.983 98.7229C237.56 98.9191 237.749 101.629 237.288 101.9C236.635 102.138 235.959 102.308 235.271 102.406C234.999 102.481 234.568 103.493 234.296 103.606C234.024 103.719 233.329 103.41 233.057 103.802C232.848 104.383 232.875 105.022 233.133 105.583C233.329 105.855 232.634 106.549 232.377 106.67C232.12 106.791 232.143 107.561 231.757 107.599C230.968 107.63 230.178 107.604 229.393 107.523C228.962 107.44 227.882 108.919 227.375 108.957C226.781 109.024 226.181 109.036 225.585 108.995C225.358 108.919 224.829 107.87 224.308 107.908C223.786 107.946 224.074 109.5 223.877 109.765C223.681 110.029 223.258 110.618 223.416 110.927C223.575 111.236 224.89 111.199 225.434 111.244C225.978 111.289 227.33 110.663 227.7 110.776C228.07 110.889 228.199 112.633 228.357 113.04C228.516 113.448 228.123 114.082 227.972 114.512C227.821 114.942 228.939 116.452 229.09 116.678C229.242 116.904 228.335 117.304 228.123 117.304C227.912 117.304 227.156 116.723 226.612 116.837C226.068 116.95 225.018 117.999 224.474 118.112C223.93 118.225 222.774 117.727 222.306 117.765C221.837 117.803 221.452 118.693 221.067 118.693C220.681 118.693 219.51 118.421 219.125 118.467C218.739 118.512 218.075 118.889 217.417 119.003C216.661 119.042 215.903 119.017 215.151 118.927C214.803 118.927 214.221 117.961 213.715 117.923C213.209 117.886 212.476 119.667 212.008 119.818C210.601 120.084 209.17 120.201 207.739 120.165C207.429 120.014 207.353 119.41 206.923 119.161C206.188 118.846 205.395 118.687 204.596 118.693C204.248 118.776 204.248 119.629 203.901 119.705C203.439 119.728 202.977 119.661 202.541 119.508C202.39 119.433 199.632 116.678 199.556 116.527C199.481 116.376 200.523 115.018 200.486 114.859C200.448 114.701 199.209 113.463 199.209 113.153C199.209 112.844 199.866 111.448 199.866 111.259C199.866 111.07 200.448 111.335 200.448 110.633C200.438 109.662 200.295 108.697 200.025 107.765C199.31 107.523 198.565 107.381 197.811 107.342C197.501 107.342 195.794 109.123 195.446 109.123C195.099 109.123 193.542 108.889 193.391 109.048C193.24 109.206 194.434 110.942 194.245 111.214C194.056 111.485 193.232 112.919 193.157 113.116C193.081 113.312 193.701 116.603 193.58 116.837C193.459 117.07 192.764 117.259 192.764 117.531C192.764 117.803 194.668 119.584 194.743 119.938C194.697 120.595 194.528 121.238 194.245 121.833C194.086 122.105 194.396 123.154 194.245 123.229C194.094 123.305 193.655 124.316 193.489 124.354C193.323 124.391 193.217 123.659 192.734 123.599C192.25 123.539 191.109 124.354 190.875 124.497C190.641 124.641 189.712 124.225 189.364 124.18C188.754 124.153 188.143 124.168 187.536 124.225C187.226 124.225 186.878 125.033 186.568 125.033C186.259 125.033 184.899 123.486 184.513 123.448C184.128 123.41 182.337 124.686 182.028 124.769C181.718 124.852 179.761 123.259 179.353 123.176C178.628 123.139 177.902 123.139 177.177 123.176C176.867 123.176 176.641 123.644 176.331 123.644C176.021 123.644 175.666 122.89 175.356 122.791C175.046 122.693 174.389 123.795 174.155 123.795C173.57 123.411 173.023 122.971 172.523 122.482C172.372 122.361 172.644 121.048 172.372 120.889C172.1 120.731 170.158 121.818 169.735 121.976C169.203 122.12 168.649 122.158 168.103 122.09C167.907 122.014 167.944 121.274 167.718 121.161C167.491 121.048 166.592 121.048 166.282 120.965C165.972 120.882 166.01 120.074 165.738 119.923C165.466 119.772 163.373 119.614 163.215 119.455C163.056 119.297 163.449 116.784 163.064 116.55C162.678 116.316 160.381 116.354 160.041 116.127C159.563 115.742 159.058 115.392 158.53 115.078C157.926 115.195 157.339 115.391 156.785 115.659C156.785 115.659 156.279 116.859 156.12 116.897C155.961 116.935 155.191 115.697 154.843 115.659C154.496 115.621 152.901 115.463 152.478 115.463C152.055 115.463 152.123 117.018 151.723 117.055C151.322 117.093 150.907 115.969 150.559 115.855C150.212 115.742 147.537 115.659 147.106 115.463C146.676 115.267 146.139 114.572 145.943 114.376C145.747 114.18 145.83 113.335 145.633 113.214C145.437 113.093 143.775 113.448 143.306 113.335C142.838 113.221 140.359 111.161 139.967 111.244C139.574 111.327 139 111.999 138.531 111.999C138.063 111.999 137.33 111.244 137.02 111.07C136.71 110.897 136.015 109.636 135.35 109.168C134.685 108.7 133.492 108.67 133.22 108.414C132.948 108.157 132.948 107.131 132.366 106.746C131.715 106.411 131.003 106.214 130.273 106.165C129.729 106.089 127.515 104.383 127.13 104.3C126.745 104.217 126.238 104.882 125.891 104.882C125.543 104.882 123.133 102.617 122.869 102.406C122.604 102.195 122.99 99.9984 123.027 99.7719C123.065 99.5455 124.463 98.8813 124.538 98.6096C124.614 98.3379 124.304 96.3454 124.425 96.0511C124.546 95.7567 125.354 95.4699 125.43 95.1982C125.505 94.9265 125.506 93.1453 125.589 92.8359C125.672 92.5265 126.593 91.4019 126.752 91.0094C126.911 90.617 127.953 90.9717 128.263 90.6623C128.797 90.19 129.302 89.6859 129.774 89.1528C129.895 88.9566 131.013 88.8811 131.172 88.6849C131.331 88.4886 129.895 88.066 129.465 87.832C129.034 87.598 127.953 86.3225 127.757 86.2848C127.124 86.2938 126.491 86.2686 125.861 86.2093C125.105 85.9185 124.407 85.4969 123.798 84.964C123.609 84.6546 124.614 83.4545 124.191 83.1828C123.581 83.0005 122.957 82.8718 122.325 82.7979C121.939 82.6772 121.282 81.3639 120.7 81.1677C120.152 81.066 119.587 81.121 119.068 81.3262C118.759 81.4016 118.524 81.7866 118.411 81.7488C118.298 81.7111 117.323 80.1639 117.089 80.0809C116.57 79.7769 116.099 79.398 115.691 78.9563C115.502 78.6846 115.963 77.4468 115.774 77.3336C115.585 77.2204 114.837 76.5789 114.565 76.443C114.293 76.3072 113.439 77.9525 113.092 78.0657C112.744 78.1789 112.336 77.6808 112.2 77.4846C112.064 77.2883 111.445 76.36 111.309 76.0883C111.173 75.8166 112.125 75.5072 112.2 75.3336C112.074 74.7059 111.816 74.1119 111.445 73.5901C111.213 73.1206 111.172 72.5795 111.332 72.0806C111.332 71.9599 112.034 71.8844 112.034 71.7259C112.034 71.5674 110.092 68.7447 109.896 68.473C109.7 68.2013 109.314 68.473 109.239 68.1636C109.163 67.8541 109.662 66.2616 109.473 66.1107C109.292 66.0226 109.093 65.9768 108.891 65.9768C108.69 65.9768 108.491 66.0226 108.309 66.1107C108.125 66.1875 107.927 66.227 107.728 66.227C107.528 66.227 107.33 66.1875 107.146 66.1107C107.063 65.9899 107.954 65.2956 108 65.0993C108.045 64.9031 108.891 65.5295 109.352 65.1371C110.015 64.5651 110.762 64.0969 111.566 63.7484C111.913 63.7484 111.989 65.5295 111.989 65.839C111.989 66.1484 113.273 66.5937 113.5 66.805C113.629 66.9066 113.782 66.9742 113.944 67.0019C114.107 67.0296 114.273 67.0164 114.429 66.9635C114.739 66.8428 116.696 64.7522 116.907 64.6993C117.119 64.6465 117.376 64.9333 117.61 64.8956C118.097 64.6772 118.532 64.3583 118.887 63.9597C118.97 63.771 117.376 61.6955 117.263 61.3634C117.189 60.7067 117.215 60.0427 117.338 59.3935C117.393 59.1897 117.394 58.9749 117.339 58.7708C117.285 58.5667 117.178 58.3806 117.028 58.2312C116.681 57.9595 115.472 58.2312 115.011 58.1859C114.296 57.9283 113.618 57.5782 112.994 57.1444C112.933 56.3909 112.933 55.6337 112.994 54.8802C112.994 54.6085 114.505 54.8802 114.58 54.6462C114.656 54.4123 112.956 52.1254 112.956 51.9367C112.956 51.748 113.183 50.6159 113.183 50.5027C113.183 50.3895 116.87 50.8499 117.066 50.7744C117.263 50.699 117.61 49.4914 117.822 49.265C118.033 49.0385 118.826 48.6083 118.985 48.4121C119.144 48.2159 118.32 46.4422 118.403 46.2838C118.487 46.1253 120.375 46.2837 120.572 46.0875C120.768 45.8913 120.844 44.1554 121.04 44.0724C121.237 43.9894 122.279 44.1554 122.514 44.0724C122.894 43.3051 123.149 42.4821 123.269 41.6346C123.269 41.3629 123.851 40.0798 124.025 39.3704C124.198 38.6609 123.828 38.3213 123.911 38.0496C123.994 37.7779 124.803 36.6156 124.803 36.3816C124.783 35.8611 124.665 35.349 124.455 34.8721C124.221 34.525 123.171 34.6004 122.899 34.4117C122.627 34.2231 122.702 33.0155 122.393 32.857C122.083 32.6985 120.957 33.5589 120.61 33.5136C120.262 33.4683 118.751 32.3513 118.283 32.3136C117.814 32.2758 117.391 31.3098 117.043 31.189C116.781 31.1672 116.517 31.2085 116.274 31.3097C116.031 31.4108 115.815 31.5687 115.646 31.7702C115.374 32.1626 115.26 33.0155 114.988 32.8947C114.716 32.774 114.172 32.5098 113.591 32.3136C112.681 32.1241 111.742 32.1241 110.833 32.3136C110.485 32.5098 110.251 33.5589 109.866 33.6721C109.48 33.7853 108.936 33.2872 108.544 33.6721C108.151 34.057 107.108 35.8382 106.76 35.9967C106.413 36.1552 106.216 35.1816 105.831 35.242C105.446 35.3023 105.174 36.1703 104.864 36.2533C104.554 36.3363 104.109 35.9061 103.738 35.8231C102.985 35.8703 102.241 36.0149 101.525 36.2533C100.997 36.3617 100.448 36.2787 99.9757 36.0193C99.7793 35.8608 100.671 35.325 100.633 35.0533C100.595 34.7816 101.638 34.2985 101.177 33.9665C100.716 33.6344 99.5828 33.8457 99.1975 33.6947C98.8122 33.5438 97.8375 32.7287 97.5655 32.5702C97.2935 32.4117 96.9082 32.9174 96.5984 32.8042C96.2066 32.5261 95.8644 32.1842 95.586 31.7928C95.4349 31.6041 95.9789 29.7022 95.5482 29.5286C95.1176 29.355 94.2714 28.9475 93.8029 28.7739C93.3345 28.6003 92.7981 27.3399 92.6394 27.1814C92.1187 27.0558 91.5876 26.9774 91.0527 26.9474C90.7052 26.8719 90.5088 25.5964 90.2972 25.5209C90.0857 25.4455 88.8995 25.3625 88.6652 25.287C88.0666 24.9011 87.563 24.3851 87.1919 23.7775C87.1533 23.4602 87.0435 23.1556 86.8709 22.8865C86.6982 22.6173 86.4671 22.3904 86.1946 22.2227C85.6532 21.9852 85.1935 21.5942 84.8724 21.0982C84.7213 20.751 84.4115 19.083 84.0187 19.0076C83.6258 18.9321 82.7418 20.6303 82.3111 20.668C81.8805 20.7057 81.0343 20.668 80.7623 20.751C80.4903 20.834 79.6743 19.2415 79.0547 19.2415C78.4352 19.2415 78.201 20.434 77.8837 20.517C77.5663 20.6001 76.6823 20.2831 76.3726 20.3585C76.0628 20.434 75.1259 21.2491 74.5441 21.3699C73.9624 21.4907 72.8442 20.9397 72.3757 20.8642C71.9073 20.7887 73.1162 22.2227 73.0406 22.5322Z" fill="#CCCCCC"/>
<path d="M20.1831 147.154C20.5004 147.026 18.264 146.928 17.9165 146.868C17.5689 146.807 16.8134 145.939 16.4054 146.052C15.8246 146.413 15.344 146.914 15.0076 147.509C14.8943 147.796 15.8236 149.252 15.7632 149.479C15.7027 149.705 15.7632 150.468 15.9974 150.415C16.2316 150.362 16.8663 149.305 17.3347 148.845C18.2259 148.189 19.18 147.622 20.1831 147.154Z" fill="#CCCCCC"/>
<path d="M52.2483 168.43C51.7723 168.762 51.1452 169.072 51.2586 169.419C51.3719 169.766 51.7799 170.702 52.2483 170.702C52.5565 170.622 52.8449 170.479 53.0958 170.283C53.3466 170.087 53.5545 169.842 53.7065 169.562C53.8198 169.185 52.5505 168.219 52.2483 168.43Z" fill="#CCCCCC"/>
<path d="M84.3661 291.385C84.0715 291.596 84.3132 293.769 84.6608 293.83C85.0083 293.89 85.8243 294.177 85.8848 293.83C85.9452 293.483 84.9479 290.969 84.3661 291.385Z" fill="#CCCCCC"/>
<path d="M202.465 168.46C202.278 168.536 202.126 168.681 202.04 168.864C201.955 169.048 201.942 169.257 202.005 169.449C202.118 169.857 201.536 171.977 201.823 172.008C202.11 172.038 203.191 171.253 203.372 171.11C203.553 170.966 204.619 171.11 204.944 171.11C205.268 171.11 205.291 169.857 205.261 169.713C205.231 169.57 204.709 168.868 204.505 168.898C204.045 169.063 203.565 169.17 203.077 169.215C202.904 169.117 202.745 168.362 202.465 168.46Z" fill="#CCCCCC"/>
<path d="M200.433 170.234C199.989 170.491 199.56 170.773 199.148 171.079C198.861 171.223 199.148 172.038 199.322 172.151C199.496 172.264 200.342 172.672 200.576 172.559C200.811 172.446 201.015 170.906 200.984 170.642C200.957 170.519 200.887 170.409 200.785 170.335C200.684 170.26 200.559 170.224 200.433 170.234Z" fill="#CCCCCC"/>
<path d="M198.249 170.672C198.053 170.559 197.139 169.97 196.965 169.917C196.861 169.851 196.74 169.817 196.617 169.817C196.494 169.817 196.374 169.851 196.27 169.917C195.952 170.091 195.514 171.427 195.688 171.57C195.862 171.713 196.715 171.57 196.942 171.691C197.169 171.812 198.128 172.589 198.249 172.498C198.37 172.408 198.657 170.913 198.249 170.672Z" fill="#CCCCCC"/>
<path d="M108.71 65.1748C108.71 65.1748 108.574 63.22 108.113 63.1446C107.652 63.0691 107.411 64.4578 106.95 64.5408C106.489 64.6238 106.02 64.088 105.628 64.1559C105.235 64.2238 104.774 65.2654 104.54 65.1748C104.305 65.0842 104.464 63.6653 104.313 63.137C104.162 62.6087 102.756 60.82 102.296 60.8728C101.835 60.9256 101.132 62.2691 100.664 62.2691C100.195 62.2691 99.2659 62.654 98.7219 62.503C97.7096 62.1637 96.7838 61.6073 96.0095 60.8728C95.4655 60.1785 95.7753 58.5482 95.1557 58.5482C94.5362 58.5482 94.302 59.1671 93.758 59.0916C92.9635 58.9664 92.1594 58.9134 91.3553 58.9331C90.8869 59.0162 90.7358 60.1784 90.2674 60.4049C89.7989 60.6313 88.6354 61.7483 88.1745 61.854C87.7136 61.9596 86.6181 61.2577 86.3839 61.4917C86.1497 61.7257 87.4719 63.8918 87.3963 64.2087C87.3208 64.5257 86.6408 64.5635 86.7012 65.1597C86.7617 65.756 87.1621 66.6088 87.011 66.8428C86.5398 67.2459 86.0341 67.607 85.4999 67.922C85.2182 68.5159 85.0102 69.142 84.8804 69.7862C84.8048 70.0202 86.5123 70.4806 86.8221 70.6391C87.1319 70.7976 87.4416 72.3448 87.3661 72.8052C87.2905 73.2656 87.9101 74.2015 88.2954 74.6694C88.6807 75.1373 89.051 77.4619 89.4589 77.6129C89.8427 77.6928 90.2388 77.6928 90.6225 77.6129C90.8567 77.6129 90.8567 76.6091 91.1665 76.6091C91.4762 76.6091 91.6349 77.9978 91.922 78.0808C92.2091 78.1638 93.01 78.1563 93.2367 78.3902C93.4633 78.6242 92.7002 80.1714 92.7758 80.4809C93.0704 80.959 93.5021 81.3377 94.0149 81.5677C94.3246 81.6432 94.9442 80.9488 95.4126 81.5677C95.7256 82.0932 96.0106 82.6348 96.2664 83.1904C96.5006 83.5074 97.3544 83.4243 97.581 83.8168C97.8077 84.2093 97.3544 85.6735 97.4299 85.9074C97.5055 86.1414 98.7446 86.5263 99.5228 86.6622C100.444 86.6656 101.36 86.5334 102.243 86.2697C102.515 86.1367 102.733 85.9138 102.86 85.6387C102.986 85.3637 103.014 85.0533 102.938 84.7602C102.704 84.2168 102.243 83.0545 102.394 82.8206C102.545 82.5866 103.406 82.2771 103.482 81.8168C103.469 81.2722 103.495 80.7275 103.557 80.1865C103.716 79.7186 104.645 79.5676 105.189 79.2582C105.733 78.9488 105.884 79.7186 106.504 79.4091C107.124 79.0997 108.015 78.1714 108.212 78.0959C108.408 78.0204 108.604 78.6393 109.224 79.0997C109.843 79.5601 110.931 79.1752 111.491 79.4091C111.992 79.5668 112.514 79.6457 113.039 79.6431L113.515 77.5751" stroke="#F2F2F2" stroke-width="0.5" stroke-miterlimit="10"/>
<path d="M83.437 67.4088C83.437 67.4088 84.6761 67.9447 84.9103 67.4088C85.1445 66.873 86.1721 65.4012 86.8218 65.7409" stroke="#F2F2F2" stroke-width="0.5" stroke-miterlimit="10"/>
<path d="M94.0675 81.5676C94.4858 81.8991 94.8524 82.2908 95.1554 82.7299C95.3065 83.1148 94.9212 83.7337 95.1554 84.2394C95.3897 84.7451 95.8505 87.0319 95.6163 87.2583C95.3821 87.4848 94.1053 86.5489 94.0675 86.7527C93.6332 87.2369 93.1662 87.6908 92.6697 88.1112C92.4355 88.3452 92.8284 89.5075 92.6697 89.6659C92.5111 89.8244 91.9142 90.2094 91.6648 90.1263C91.4155 90.0433 91.3551 89.0471 91.0453 89.0471C90.3752 88.9678 89.6981 88.9678 89.028 89.0471C88.6351 89.198 89.6475 89.5301 89.4889 90.1414C89.3302 90.7528 89.8818 92.1415 89.4889 92.4056C89.096 92.6698 88.7333 91.7868 88.2498 92.0962C87.7662 92.4056 86.9502 93.417 86.8218 93.334C86.6934 93.2509 86.0663 92.2547 85.6885 92.1717C85.3107 92.0887 84.1396 93.5 83.8299 93.3415C83.5201 93.183 82.5077 92.4811 82.5077 92.4811C82.5077 92.4811 81.8126 95.0397 81.2686 94.9642C80.7246 94.8887 80.2561 93.8019 80.0219 93.6434C79.7877 93.4849 80.649 92.0207 80.4148 91.8622C80.1806 91.7037 79.3268 91.7868 78.8584 91.6358C78.39 91.4849 78.1029 90.6245 77.6949 90.3905C77.2869 90.1565 76.9998 91.0924 76.2971 91.0094C75.5944 90.9264 73.8189 90.6999 73.1163 90.549C72.4136 90.398 70.6381 91.0924 70.1697 90.6999C69.7012 90.3075 69.9203 88.7301 69.9203 88.7301" stroke="#F2F2F2" stroke-width="0.5" stroke-miterlimit="10"/>
<path d="M122.929 102.323C122.929 102.323 122.468 103.523 121.924 103.448C121.38 103.372 120.602 102.051 120.217 101.938C119.831 101.825 119.514 102.693 119.129 102.693C118.345 102.6 117.568 102.458 116.802 102.27C116.333 102.112 116.877 101.259 116.492 101.025C116.107 100.791 115.404 101.334 115.17 101.025C114.842 100.435 114.478 99.8653 114.082 99.3191C113.855 99.1682 113.077 99.4021 112.843 99.3191C112.37 98.8683 111.954 98.3613 111.604 97.8096C111.445 97.5757 112.767 96.8058 112.692 96.6473C112.616 96.4888 109.896 95.5605 109.586 95.3265C109.277 95.0926 109.042 93.8548 108.657 93.8171C108.272 93.7793 107.101 94.436 106.791 94.436C106.481 94.436 106.171 95.9077 105.703 95.8322C105.234 95.7567 104.849 94.6699 104.539 94.5945C104.229 94.519 103.225 94.3605 103.066 94.1265C102.907 93.8926 103.225 91.651 103.066 91.2585C102.907 90.8661 104.154 90.3302 104.313 90.0962C104.471 89.8623 104.849 89.4019 104.698 89.1679C104.547 88.9339 101.91 86.481 101.358 86.5943C100.807 86.7075 101.283 87.6962 100.973 88.0056C100.663 88.315 99.5074 90.6396 99.2278 90.7981C98.9483 90.9566 98.0265 90.7981 97.7923 90.8736C97.5581 90.9491 98.4118 93.1982 97.7923 93.5076C97.1727 93.8171 96.5532 94.1265 96.4701 94.6699C96.387 95.2133 96.6287 96.9341 96.4701 97.2285C96.3114 97.5228 97.6336 97.8474 97.4825 98.0813C97.1903 98.6506 96.9549 99.2472 96.7799 99.8625C96.7043 100.247 97.6336 100.874 97.7167 101.372C97.7998 101.87 96.9612 102.534 97.3238 103.002C97.6865 103.47 98.9634 104.006 99.2278 104.315C99.4922 104.625 98.4118 104.942 98.3363 105.251C98.2607 105.561 97.5807 106.414 97.5807 106.723C97.5807 107.033 98.8274 106.565 99.2505 106.723C99.6736 106.882 100.006 107.727 100.301 108.036C100.595 108.346 100.376 109.742 100.066 110.21C99.7567 110.678 100.066 111.606 99.7567 112.067C99.4469 112.527 98.51 112.301 98.3589 112.769C98.2651 113.774 98.2904 114.788 98.4345 115.787C98.51 116.097 99.5225 116.489 99.9078 116.799C100.293 117.108 101.381 117.803 101.381 117.803C101.381 117.803 101.23 119.199 100.996 119.357C100.762 119.516 99.9078 119.433 99.7567 119.667C99.6056 119.901 99.9909 120.203 100.142 120.52C100.293 120.837 101.154 120.437 101.54 120.52C101.925 120.603 101.071 121.448 100.784 121.599C100.497 121.75 99.1598 122.452 99.2731 122.92C99.3036 123.024 99.3582 123.12 99.4325 123.199C99.5068 123.279 99.5988 123.34 99.701 123.377C99.8031 123.414 99.9127 123.427 100.021 123.415C100.129 123.402 100.233 123.365 100.323 123.305C100.709 123.071 102.258 121.599 102.65 121.599C103.043 121.599 103.504 122.535 103.965 122.535C104.426 122.535 104.977 121.289 105.597 121.289C106.217 121.289 107.07 121.682 107.539 121.599C108.007 121.516 108 122.535 108.468 122.686C109.297 122.717 110.127 122.666 110.946 122.535C111.339 122.535 111.959 123.131 112.344 123.41C112.81 123.702 113.232 124.058 113.598 124.467C114.052 125.01 112.986 125.939 113.598 126.482C114.21 127.025 113.757 128.112 113.598 128.497C113.44 128.882 113.356 130.671 113.122 131.214C112.888 131.758 112.503 132.294 112.117 132.377C111.732 132.46 112.268 134.082 111.724 134.392C111.084 134.614 110.415 134.743 109.737 134.777C109.397 134.852 108.468 134.158 108 134.777C107.531 135.396 107.305 136.286 106.912 136.482C106.519 136.679 106.761 137.645 107.07 137.992C107.38 138.339 108.702 138.694 108.393 139.079C108.083 139.464 107.456 140.709 107.07 140.935C106.685 141.162 106.141 141.169 105.907 141.479C105.673 141.788 106.292 142.799 106.602 143.343C106.912 143.886 106.179 145.139 106.179 145.434C106.179 145.728 106.995 146.128 107.108 146.362C107.221 146.596 107.577 147.585 107.924 147.585C108.272 147.585 108.853 146.709 109.088 146.709C109.322 146.709 109.904 148.452 110.251 148.4C110.599 148.347 111.475 148.105 111.883 148.052C112.463 147.861 112.97 147.494 113.334 147.003C113.508 146.656 112.873 145.841 112.812 145.494C112.804 145.027 112.766 144.56 112.699 144.098C112.578 143.803 111.883 143.924 111.649 143.69C111.415 143.456 111.475 142.467 111.301 142.12C111.128 141.773 110.546 141.305 110.251 140.898C109.957 140.49 110.251 139.856 110.077 139.448C109.904 139.041 108.853 137.705 108.914 137.411C108.974 137.116 109.397 136.188 109.737 136.075C110.077 135.962 110.425 137.003 110.72 136.89C111.014 136.777 112.231 136.309 112.578 136.188C112.926 136.067 112.344 138.165 112.578 138.452C112.812 138.739 113.394 138.565 113.863 138.799C114.331 139.033 114.966 139.962 115.434 139.615C115.903 139.267 116.069 137.697 116.416 137.697C116.814 137.776 117.204 137.892 117.58 138.045C117.875 138.105 117.64 139.207 118.109 139.32C118.577 139.433 119.62 139.086 120.315 139.207C121.01 139.328 121.539 138.392 121.713 138.158C121.887 137.924 122.468 136.935 122.975 136.935C123.537 136.836 124.089 136.682 124.622 136.475C124.916 136.414 125.09 137.697 125.438 137.924C125.785 138.15 126.254 138.218 126.254 138.565C126.254 138.913 124.795 139.788 124.916 140.135C125.037 140.482 125.672 140.309 126.254 140.43C126.835 140.55 127.53 140.309 127.651 140.022C127.772 139.735 127.53 138.913 127.999 138.913C128.467 138.913 130.152 138.331 130.5 138.505C130.847 138.679 129.744 140.43 129.978 140.83C130.213 141.23 130.968 141.124 131.376 141.298C131.784 141.471 132.071 141.999 132.6 141.939C133.129 141.879 133.409 140.43 133.409 139.901C133.409 139.373 133.469 139.086 133.937 138.86C134.406 138.633 135.275 139.615 135.562 139.32C135.849 139.026 135.449 138.279 135.856 138.158C136.29 138.095 136.732 138.155 137.133 138.331C137.428 138.452 137.08 139.841 137.428 139.901C138.011 139.968 138.579 140.126 139.113 140.369C139.408 140.603 139.234 142.113 139.755 142.226C140.276 142.339 141.5 142.113 141.961 142.399C142.422 142.686 142.43 143.562 142.717 143.856C143.004 144.15 143.525 143.683 143.88 143.449C144.449 143.174 145.103 143.133 145.701 143.335C146.207 143.562 147.076 143.449 147.371 143.743C147.666 144.037 147.371 144.671 147.076 145.018C146.844 145.486 146.745 146.008 146.789 146.528C146.789 146.875 147.787 147.056 147.492 147.456C147.197 147.856 146.615 147.924 146.207 148.392C145.799 148.86 146.26 149.32 146.668 149.554C147.208 149.8 147.643 150.231 147.892 150.77C147.931 150.948 148.007 151.115 148.116 151.261C148.225 151.408 148.364 151.529 148.523 151.618C148.682 151.706 148.859 151.76 149.041 151.775C149.222 151.79 149.405 151.766 149.577 151.705C150.418 151.292 151.184 150.741 151.844 150.075C152.191 149.728 153.068 148.913 153.007 148.445C152.947 147.977 152.713 146.528 152.713 146.068C152.713 145.607 153.763 145.426 154.05 145.079C154.337 144.732 154.05 144.03 154.05 143.569C154.05 143.109 153.355 142.354 153.007 142.06C152.511 141.604 152.148 141.022 151.957 140.377C151.989 139.658 152.148 138.95 152.426 138.286C152.713 137.705 152.426 137.237 152.713 136.943C153 136.648 154.405 137.063 154.866 136.716C155.329 136.269 155.887 135.931 156.498 135.728C157.019 135.667 157.661 134.852 157.835 134.271C158.087 133.624 158.462 133.032 158.938 132.528C159.173 132.354 160.684 132.701 161.152 132.588C161.621 132.475 162.489 133.229 162.897 133.048C163.108 132.89 163.268 132.676 163.36 132.43C163.453 132.184 163.473 131.917 163.419 131.66C163.305 131.252 162.142 130.671 161.56 130.61C160.978 130.55 159.928 130.671 159.701 130.437C159.113 129.962 158.567 129.437 158.069 128.867C157.999 128.773 157.951 128.663 157.93 128.547C157.91 128.431 157.916 128.311 157.95 128.198C157.984 128.085 158.044 127.982 158.125 127.896C158.206 127.81 158.306 127.745 158.417 127.705C158.712 127.644 159.754 127.063 159.641 126.603C159.528 126.142 158.477 125.961 158.009 125.848C157.541 125.735 156.846 125.267 156.906 125.041C156.966 124.814 158.183 123.697 158.357 123.41C158.53 123.124 159.293 123.818 159.641 123.991C159.989 124.165 160.57 124.339 160.918 123.991C161.265 123.644 161.734 122.829 161.5 122.482C161.265 122.135 160.102 122.769 159.754 122.482C159.407 122.195 159.928 121.373 159.52 121.259C159.001 121.187 158.494 121.05 158.009 120.852C157.661 120.618 157.488 119.78 157.314 119.244C156.974 118.468 156.591 117.712 156.165 116.98" stroke="#F2F2F2" stroke-width="0.5" stroke-miterlimit="10"/>
<path d="M97.5279 106.625C97.1426 106.874 96.8177 105.87 96.4248 105.712C96.032 105.553 94.468 105.599 94.2867 105.304C94.1053 105.01 95.1026 104.202 95.1631 103.855C95.2235 103.508 94.5209 102.285 94.6946 102.112C95.048 101.694 95.4515 101.321 95.896 101.002C96.2662 100.829 97.5279 101.802 97.5279 101.802" stroke="#F2F2F2" stroke-width="0.5" stroke-miterlimit="10"/>
<path d="M75.0733 90.8132C75.0733 90.8132 73.9551 92.1114 74.0155 92.3982C74.076 92.685 74.7711 92.7529 75.0733 92.8661C75.3755 92.9793 75.1942 94.1416 75.0733 94.4964C74.9524 94.8511 75.2773 95.1907 75.2244 95.5983C75.1715 96.0058 74.5898 95.9454 74.62 96.2926C74.6502 96.6398 74.9977 97.6889 75.4662 97.6889C75.9346 97.6889 76.8639 96.4662 77.151 96.4662C77.7825 96.6373 78.3631 96.9584 78.8435 97.4021C79.1306 97.7493 79.191 98.27 79.7728 98.27C80.3545 98.27 81.5181 97.4549 81.8128 97.5757C82.1074 97.6964 81.7523 98.9116 81.8128 99.3191C81.8732 99.7267 82.9763 100.361 83.2634 100.655C83.5505 100.949 82.5079 103.674 82.7798 103.825C83.0518 103.976 83.7847 105.825 84.1398 106.006C84.4949 106.187 85.1296 106.006 85.3562 106.006C85.9849 106.311 86.5257 106.771 86.9278 107.342C87.075 107.734 87.075 108.165 86.9278 108.557C86.754 108.912 87.094 110.014 87.0411 110.361C86.9882 110.708 86.4669 111.757 86.7011 111.931C86.9353 112.104 87.978 112.806 88.2651 112.685C88.5522 112.565 88.6202 111.116 88.9677 110.882C89.3153 110.648 90.0179 110.708 90.1917 110.535C90.3655 110.361 89.7837 109.259 90.1917 109.199C90.5997 109.138 91.3553 110.942 91.7028 110.829C92.185 110.597 92.6346 110.302 93.0401 109.953C93.2139 109.78 93.2743 108.912 93.5614 108.738C93.8485 108.565 94.6721 108.912 95.0725 109.138C95.473 109.365 94.7174 110.829 94.7174 111.236C94.8107 111.743 94.9708 112.236 95.1934 112.701C95.2463 112.859 94.6645 113.908 94.9516 114.082C95.4397 114.259 95.9746 114.259 96.4627 114.082C96.712 113.908 96.7121 112.633 96.9463 112.633L98.344 112.67" stroke="#F2F2F2" stroke-width="0.5" stroke-miterlimit="10"/>
<path d="M107.985 122.022C107.397 122.077 106.816 122.183 106.247 122.339C105.839 122.512 105.378 124.316 105.083 124.429C104.789 124.542 103.686 124.082 103.398 124.135C103.111 124.188 101.714 125.765 101.419 125.886C101.124 126.007 99.1523 126.52 98.7443 126.693C98.1122 127.119 97.509 127.585 96.9386 128.09C96.4701 128.437 94.3924 128.792 94.3017 128.965C94.2111 129.139 93.2742 131.056 92.9795 131.169C92.3524 131.243 91.7313 131.362 91.1209 131.524C90.7129 131.75 90.4787 132.799 90.4787 133.32C90.4787 133.841 91.3551 134.135 91.3551 134.482C91.3551 134.829 90.8866 135.826 91.1209 136.113C91.4513 136.564 91.8905 136.925 92.3977 137.162C92.8662 137.275 94.0297 136.928 94.6115 137.162C95.2224 137.256 95.8441 137.256 96.455 137.162C96.8781 137.162 97.3692 136.203 97.5581 136.09C97.747 135.977 97.9888 136.784 98.3136 136.965C98.6385 137.147 99.0087 138.935 98.6612 139.23C98.0422 139.46 97.361 139.46 96.7421 139.23C96.3946 139.056 96.8177 139.516 95.9035 139.637C94.9893 139.758 93.7124 139.343 93.5386 139.637C93.3648 139.932 93.9466 140.799 93.9466 141.147C93.9466 141.494 93.3119 141.962 93.0777 142.022C92.8435 142.083 93.1306 143.184 93.3648 143.237C93.9836 143.328 94.6123 143.328 95.231 143.237C95.5181 143.124 96.4701 144.347 95.9035 144.747C95.3368 145.147 94.551 146.022 94.2791 145.788C94.0071 145.554 93.6595 144.452 93.3648 144.626C93.0702 144.8 93.1911 145.962 93.1911 146.369C93.1911 146.777 93.4857 147.652 93.9466 147.826C94.4075 148 94.9515 148.815 94.2791 148.988C93.6476 149.079 93.0065 149.079 92.3751 148.988C92.2013 148.988 92.088 147.479 91.8537 147.358C91.6195 147.237 90.9244 147.532 90.456 147.705C89.9876 147.879 88.9449 147.298 88.5369 147.245C88.1289 147.192 88.0156 146.603 87.6076 146.603C87.1996 146.603 87.0787 148 86.9049 148.407C86.7312 148.815 85.7414 149.162 85.5676 149.336C85.3939 149.509 85.4543 150.611 85.2201 150.845C84.9859 151.079 83.709 151.019 83.3615 151.2C83.0139 151.381 82.7192 152.302 82.3717 152.415C82.0241 152.528 81.6161 151.781 81.3215 151.253C81.0125 150.849 80.8309 150.363 80.8002 149.856C80.853 149.449 81.669 149.336 81.9637 149.222C82.2584 149.109 82.6588 150.211 83.1272 150.03C83.6986 149.717 84.2101 149.305 84.6383 148.815C84.8121 148.581 83.8828 148 83.9432 147.652C84.0037 147.305 84.6383 147.071 84.6383 146.717C84.6383 146.362 83.8223 146.022 83.8828 145.735C83.9432 145.449 84.9859 145.207 85.1596 144.86C85.3334 144.513 84.4041 143.584 84.4041 143.29C84.4041 142.996 84.7516 142.422 84.2303 142.128C83.709 141.833 82.893 142.649 82.5455 142.769C82.1979 142.89 81.6086 142.596 81.2082 142.475C80.8077 142.354 80.0446 143.003 79.5157 142.822C78.9869 142.641 78.9944 142.067 78.8735 141.841C78.7526 141.615 80.0446 140.792 80.3317 140.384C80.6188 139.977 80.5659 138.988 80.0446 138.928C79.4687 138.939 78.8979 139.038 78.3522 139.222C78.1784 139.282 78.2389 140.965 78.0651 141.026C77.8913 141.086 77.5362 141.433 77.1282 141.607C76.7202 141.781 76.8411 143.003 76.6069 143.23C76.3727 143.456 75.2091 143.584 74.922 143.698C74.6349 143.811 75.0354 144.86 74.922 145.154C74.8087 145.449 75.5567 145.554 75.3829 145.962C75.2091 146.369 75.0958 147.358 75.4434 147.418C75.6822 147.53 75.8942 147.691 76.065 147.892C76.2358 148.092 76.3613 148.327 76.4331 148.581C76.4936 148.988 76.8411 149.509 76.4936 149.917C76.146 150.324 75.5567 150.845 75.5567 151.253C75.5567 151.66 75.8514 152.996 75.6171 153.29C75.0317 153.763 74.3592 154.117 73.6376 154.332C73.1163 154.453 72.8292 155.962 72.4741 156.256C72.119 156.551 73.8718 157.011 73.9852 157.298C74.0985 157.585 73.2296 158.173 72.8745 158.287C72.5194 158.4 70.7212 159.102 70.3132 158.755C69.9052 158.407 70.0261 157.245 69.5577 157.124C69.0097 156.997 68.5313 156.665 68.2204 156.196C67.7745 155.539 67.1755 155.001 66.4751 154.626C66.0671 154.513 65.372 154.8 64.9036 154.453C64.4351 154.105 64.7902 152.709 64.4956 152.536C64.2009 152.362 63.6267 152.822 63.3925 152.649C63.1582 152.475 63.0978 152.007 62.8711 151.547C62.6445 151.087 61.9343 150.845 61.7605 150.558C61.5867 150.271 62.7502 149.569 62.7502 149.275C62.7502 148.981 62.9845 148.113 62.4631 147.886C61.9418 147.66 61.5867 148.694 61.2996 148.694C61.0125 148.694 60.5969 147.532 60.3098 147.358C60.0227 147.185 59.3201 146.777 59.5543 146.43C59.7885 146.083 60.8916 145.381 60.7707 145.094C60.6498 144.807 59.9774 143.698 59.5014 143.584C59.0254 143.471 58.8516 144.747 58.4436 144.747C58.0357 144.747 56.3508 144.8 56.0033 144.747C55.6557 144.694 55.3006 143.524 54.953 143.403C54.6055 143.283 53.85 143.871 53.5024 143.758C53.1549 143.645 52.0442 142.535 51.5758 142.249C51.1073 141.962 51.81 141.267 51.5758 140.973C51.4068 140.742 51.1727 140.567 50.9034 140.47C50.6342 140.374 50.3421 140.359 50.0647 140.43C49.3091 140.626 49.4829 141.728 49.1354 141.788C48.326 141.946 47.5089 142.062 46.6874 142.135C46.1661 142.135 45.9319 140.739 45.6976 140.739C45.4634 140.739 45.1763 141.32 44.8288 141.494C43.8712 141.641 42.9038 141.714 41.9351 141.713" stroke="#F2F2F2" stroke-width="0.5" stroke-miterlimit="10"/>
<path d="M77.7783 141.252C77.7783 141.252 76.4561 140.603 76.2672 140.452C76.0783 140.301 75.7988 139.365 75.4512 139.313C75.1037 139.26 74.9299 140.588 74.5823 140.935C74.2348 141.282 74.877 142.271 74.9601 142.505C75.0432 142.739 74.4766 143.456 75.5192 143.592" stroke="#F2F2F2" stroke-width="0.5" stroke-miterlimit="10"/>
<path d="M70.3285 158.785C70.3889 159.306 70.2152 160.06 70.3285 160.408C70.4418 160.755 71.492 161.109 71.492 161.517C71.2632 162.135 70.8422 162.664 70.2907 163.026C70.0414 163.087 69.2254 163.14 69.1121 163.374C68.9987 163.608 69.5729 165.177 69.3992 165.351C69.2254 165.525 67.9485 165.525 67.7143 165.698C67.4801 165.872 68.2356 167.208 68.2356 167.562C68.2356 167.917 67.4801 168.838 67.669 169.185C67.9971 169.631 68.4609 169.96 68.9912 170.121C69.3387 170.174 70.2756 168.898 70.5627 168.838C70.8498 168.778 71.1445 169.215 71.492 169.547C71.8396 169.879 72.308 170.121 71.9605 170.702C71.6129 171.283 71.2654 172.272 71.6658 172.559C72.3418 172.972 73.0646 173.304 73.8191 173.547C74.1742 173.608 74.5746 172.732 74.96 172.793C75.5377 172.856 76.0738 173.124 76.4711 173.547C77.1057 174.189 77.015 175.464 77.7328 175.464C78.4343 175.408 79.1393 175.408 79.8408 175.464C80.5434 175.585 80.483 174.944 80.9514 174.883C81.4199 174.823 81.7674 175.2 82.2887 175.48C82.81 175.759 84.0945 175.178 84.5025 175.117C85.0921 175.214 85.6495 175.453 86.1269 175.812C86.4744 176.046 86.0136 177.849 86.1269 178.136C86.2402 178.423 87.2375 178.491 87.6984 178.717C87.9474 178.821 88.2145 178.874 88.4842 178.874C88.7539 178.874 89.0209 178.821 89.2699 178.717C89.5646 178.544 89.2699 177.615 89.6175 177.502C89.965 177.389 91.0152 177.615 91.3099 177.329C91.6046 177.042 90.6677 175.698 91.3099 175.464C91.8822 175.254 92.3989 174.916 92.821 174.476C93.0552 174.189 92.9343 173.253 93.2894 173.08C93.6445 172.906 93.8712 173.08 94.5059 173.14C95.1405 173.2 95.2085 172.151 95.6694 172.091C96.1303 172.03 95.6694 172.906 96.4249 172.966C97.1805 173.027 97.5507 172.038 98.0116 172.038C98.5964 172.159 99.1512 172.395 99.6435 172.732C100.339 173.08 100.868 174.189 100.46 174.302C100.052 174.415 98.48 174.129 98.4196 174.423C98.3591 174.717 98.7671 175.178 98.9484 175.464C99.1298 175.751 100.52 175.812 100.868 176.106C101.576 176.434 102.374 176.516 103.134 176.34C103.89 176.166 104.645 175.231 105 174.883C105.355 174.536 105.695 173.781 106.338 173.781C106.877 173.737 107.419 173.755 107.955 173.834C108.317 173.955 107.735 174.77 108.257 174.883C108.941 175.066 109.604 175.319 110.236 175.638C110.525 175.782 110.843 175.856 111.166 175.856C111.488 175.856 111.806 175.782 112.095 175.638C112.624 175.291 112.39 173.955 112.737 173.834C113.085 173.714 114.014 174.015 114.482 173.781C114.951 173.547 114.89 172.619 115.298 172.619C115.706 172.619 115.993 173.374 116.696 173.434C117.399 173.495 118.268 173.608 118.381 173.955C118.494 174.302 118.268 175.178 118.729 175.178C119.189 175.178 119.545 174.302 120.126 174.423C120.708 174.544 121.056 175.004 121.758 174.883C122.417 174.709 123.059 174.476 123.677 174.189C124.025 174.068 124.085 173.487 124.493 173.661C124.901 173.834 124.78 174.77 125.362 175.057C125.944 175.344 125.71 176.748 126.004 176.8C126.299 176.853 126.76 176.166 127.055 176.28C127.349 176.393 128.037 177.034 128.332 176.8C128.725 176.096 129.057 175.359 129.321 174.597C129.555 174.129 128.566 173.2 128.8 172.853C129.034 172.506 129.684 172.272 129.911 171.804C130.137 171.336 130.19 169.359 130.311 169.072C130.432 168.785 131.127 168.778 131.648 168.4C131.892 168.244 132.097 168.036 132.248 167.79C132.4 167.545 132.495 167.268 132.525 166.981C132.638 166.279 131.935 165.472 132.525 165.238C133.207 164.886 133.927 164.613 134.67 164.423C134.965 164.483 135.026 165.645 135.547 165.464C136.221 165.253 136.851 164.921 137.406 164.483C137.829 163.852 138.107 163.136 138.222 162.385C138.282 161.977 138.63 160.875 139.158 160.702C139.687 160.528 139.793 159.54 139.967 159.132C140.141 158.724 141.078 159.192 141.538 158.785C142.047 158.22 142.355 157.504 142.415 156.747C142.354 156.339 140.904 156.634 140.549 156.339C140.194 156.045 140.027 155.004 139.559 154.83C138.99 154.659 138.383 154.659 137.814 154.83C137.406 155.004 137.179 155.298 136.71 155.177C136.242 155.056 136.363 153.668 136.363 153.321C136.363 152.973 137.232 152.619 137.232 152.332C137.232 152.045 136.302 150.936 136.537 150.641C136.771 150.347 137.64 150.528 137.934 150.641C138.229 150.754 138.75 152.271 139.038 152.098C139.325 151.924 139.559 151.343 140.088 151.283C140.617 151.222 141.017 152.332 141.886 152.037C142.755 151.743 144.334 151.237 144.742 151.668C145.15 152.098 145.845 151.819 146.14 151.668C146.434 151.517 147.825 150.641 147.825 150.641" stroke="#F2F2F2" stroke-width="0.5" stroke-miterlimit="10"/>
<path d="M69.1121 163.532C68.5375 163.463 67.9566 163.463 67.3819 163.532C67.1477 163.668 67.7673 164.589 67.6615 164.679C67.5557 164.77 68.4699 164.913 68.4775 165.54" stroke="#F2F2F2" stroke-width="0.5" stroke-miterlimit="10"/>
<path d="M67.9936 169.547C67.9936 169.547 66.9132 168.959 66.7998 169.185C66.6865 169.411 66.9132 170.174 66.7998 170.408C66.6865 170.642 65.6288 170.347 65.4021 170.702C65.1754 171.057 65.6288 171.691 65.4021 172.038C65.1754 172.385 64.6994 172.559 64.7599 173.027C64.8203 173.495 65.1679 174.302 65.5154 174.302C65.863 174.302 66.5052 173.2 66.7394 173.079C66.9736 172.959 67.6838 173.2 67.9936 173.253C68.5253 173.295 69.06 173.277 69.5878 173.2C69.7616 173.14 70.0562 174.242 69.5878 174.302C69.1193 174.363 68.0767 174.242 67.6612 174.302C67.2456 174.363 66.3918 174.536 66.2181 175.057C66.0443 175.578 66.5656 176.28 66.2181 176.393C65.8705 176.506 64.979 176.921 64.7523 177.034C64.5256 177.147 63.8306 176.453 63.483 176.627C63.1355 176.8 63.6568 177.555 64.0648 177.736C64.4728 177.917 65.2283 177.502 65.4021 178.023C65.5759 178.544 66.1576 180 66.0367 180.521C65.9159 181.042 65.2812 181.397 64.9336 181.631C64.5861 181.865 64.4123 182.672 64.0648 182.672C63.7172 182.672 62.7804 181.804 62.3119 181.857C61.8435 181.91 61.6772 180.868 61.443 180.868C61.2088 180.868 60.627 181.857 60.5666 182.265C60.5062 182.672 61.2088 182.385 61.3826 182.672C61.4479 182.929 61.456 183.198 61.4064 183.459C61.3568 183.719 61.2507 183.966 61.0955 184.182C60.8008 184.476 61.2693 185.812 60.9746 186.106C60.6799 186.401 60.3928 185.525 59.8111 186.106C59.2293 186.687 58.8213 187.729 58.2395 187.729C57.5754 187.673 56.946 187.409 56.4413 186.974C56.2071 186.687 56.3204 185.638 56.0333 185.638C55.6278 185.688 55.2264 185.766 54.832 185.872" stroke="#F2F2F2" stroke-width="0.5" stroke-miterlimit="10"/>
<path d="M194.305 122.822C194.708 123.205 195.073 123.627 195.393 124.082C195.452 124.317 195.431 124.565 195.332 124.787C195.233 125.008 195.064 125.191 194.849 125.305C194.351 125.478 192.84 126.112 192.719 126.52C192.499 127.445 192.226 128.357 191.903 129.252C191.729 129.486 192.893 130.067 193.127 130.414C193.332 130.771 193.511 131.141 193.663 131.524C193.882 131.984 193.905 133.441 193.663 133.554C193.421 133.667 192.311 133.267 192.152 133.554C191.925 134.032 191.673 134.499 191.397 134.95C191.162 135.244 191.805 135.999 191.918 136.407C192.031 136.814 191.918 137.448 192.213 137.796C192.554 138.229 192.81 138.724 192.968 139.252C192.986 140.3 192.948 141.348 192.855 142.392C192.855 142.913 192.099 143.207 192.039 143.667C191.978 144.128 192.212 145.411 191.865 145.992C191.315 146.646 190.688 147.231 189.999 147.735C189.538 148.143 188.601 148.09 188.14 148.143C187.679 148.196 188.427 149.018 188.427 149.366C188.427 149.713 188.473 150.211 187.989 150.483C187.3 150.692 186.586 150.806 185.866 150.822C185.518 150.875 185.231 150.12 184.997 150.007C184.763 149.894 183.886 150.151 183.773 150.483C183.66 150.815 184.007 151.924 183.773 151.992C183.29 152.019 182.806 152.019 182.322 151.992C181.914 151.992 181.506 152.686 180.811 152.86C180.116 153.034 180.177 154.143 180.056 154.37C179.935 154.596 178.484 154.317 178.137 154.37C177.789 154.422 177.668 153.328 177.381 153.381C177.094 153.434 176.973 154.437 176.626 154.468C176.278 154.498 175.575 154.468 175.462 154.837C175.349 155.207 176.044 156.875 175.462 157.222C174.88 157.57 175.87 157.977 176.452 157.977C177.023 157.999 177.581 158.16 178.076 158.445C178.484 158.672 178.484 159.373 179.013 159.373C179.743 159.238 180.479 159.14 181.219 159.079C181.454 159.2 180.758 160.77 180.985 161.177C181.212 161.585 182.035 161.577 182.443 161.698C182.851 161.819 182.73 162.86 183.025 163.094C183.32 163.328 184.128 163.147 184.362 163.381C184.597 163.615 184.128 164.362 184.189 164.687C184.249 165.011 185.178 165.358 185.065 165.706C184.952 166.053 184.189 166.46 184.075 166.868C183.962 167.276 184.189 167.623 184.71 167.977C185.231 168.332 186.108 167.623 186.342 167.977C186.576 168.332 186.455 169.691 186.863 169.789C187.271 169.887 187.853 169.427 188.201 169.487C188.641 169.537 189.072 169.644 189.485 169.804C190.16 170.419 190.759 171.113 191.268 171.872" stroke="#F2F2F2" stroke-width="0.5" stroke-miterlimit="10"/>
<path d="M193.61 116.776C193.61 116.776 193.822 117.916 194.464 117.976C195.106 118.037 195.28 117.418 195.688 117.38C196.096 117.342 196.557 117.871 196.912 117.984C197.267 118.097 197.955 116.852 198.189 116.776C198.745 116.738 199.303 116.738 199.859 116.776" stroke="#F2F2F2" stroke-width="0.5" stroke-miterlimit="10"/>
<path d="M209.643 120.059C209.755 120.772 209.755 121.498 209.643 122.21C209.424 122.618 210.398 122.852 210.293 123.146C209.815 123.603 209.282 123.998 208.706 124.323" stroke="#F2F2F2" stroke-width="0.5" stroke-miterlimit="10"/>
<path d="M210.678 131.426C210.678 131.426 211.222 131.29 211.222 130.942C211.222 130.595 210.739 128.791 210.95 128.618C211.162 128.444 213.028 127.508 213.61 127.108C214.191 126.708 214.834 126.354 215.181 126.588C215.529 126.822 215.529 127.863 215.997 127.863C216.466 127.863 217.622 127.576 218.151 127.576C218.679 127.576 219.193 126.822 219.548 126.935C219.903 127.048 220.183 128.158 220.478 128.331C220.772 128.505 221.294 127.576 221.528 127.576C221.762 127.576 221.928 128.391 222.691 128.157C223.454 127.924 224.142 127.403 224.55 127.282C224.958 127.161 224.255 126.007 224.55 125.773C224.845 125.539 225.887 125.712 226.122 125.486C226.356 125.259 226.764 124.474 227.172 124.339C227.58 124.203 228.161 125.131 228.509 125.131C228.857 125.131 230.428 124.55 230.715 124.61C231.002 124.671 231.184 125.539 231.531 125.833C231.879 126.127 230.889 127.169 230.889 127.516C230.889 127.863 231.274 128.505 231.645 128.391C232.187 128.179 232.746 128.007 233.314 127.878C233.609 127.878 233.956 128.973 234.478 129.259C234.999 129.546 234.599 130.769 234.886 130.89C235.173 131.01 236.17 131.531 236.284 131.818C236.397 132.105 235.641 132.98 235.468 133.448C235.294 133.916 232.944 134.724 232.944 134.724" stroke="#F2F2F2" stroke-width="0.5" stroke-miterlimit="10"/>
<path d="M229.144 116.618C229.722 116.7 230.305 116.741 230.889 116.738C231.418 116.738 232.287 115.131 232.695 115.01C233.103 114.889 234.206 115.304 234.674 115.01C235.143 114.716 236.654 116.233 237.062 116.172C237.47 116.112 238.867 114.821 239.094 114.972C239.321 115.123 241.655 114.738 242.184 114.972C242.713 115.206 243.174 114.089 243.401 113.742C243.627 113.395 243.114 112.693 243.401 112.285C244.22 111.489 245.096 110.752 246.022 110.082C246.43 109.787 246.717 108.972 246.891 108.799C247.065 108.625 246.665 107.757 246.891 107.523C247.029 107.391 247.196 107.296 247.379 107.244C247.563 107.193 247.756 107.188 247.941 107.229C248.289 107.349 248.644 108.217 249.045 108.165C249.445 108.112 251.258 106.708 251.84 106.414C252.772 105.996 253.725 105.628 254.696 105.312C255.278 105.138 255.565 104.149 256.207 104.036C256.823 103.944 257.45 103.944 258.066 104.036C258.36 104.089 258.942 102.753 259.229 102.753C259.924 102.635 260.634 102.635 261.33 102.753C261.851 102.987 260.975 104.036 261.33 104.323C261.685 104.61 260.453 105.138 260.574 105.546C260.695 105.953 261.103 107.463 261.216 107.81C261.33 108.157 262.554 108.338 262.727 108.512C262.901 108.685 261.919 110.308 261.738 110.542C261.556 110.776 259.992 110.489 259.766 110.542C259.539 110.595 258.194 110.368 258.02 110.95C257.911 111.576 257.713 112.183 257.431 112.753C257.144 113.101 256.502 113.161 255.92 113.274C255.338 113.387 254.93 114.384 254.643 114.557C254.356 114.731 253.419 114.263 253.072 114.557C252.724 114.852 252.777 115.72 252.603 116.24C252.429 116.761 251.387 116.572 251.032 116.754C250.429 117.06 249.863 117.435 249.347 117.871C248.939 118.278 249.521 119.32 249.286 119.614C248.865 119.919 248.356 120.08 247.836 120.074C247.428 120.074 246.672 122.014 246.325 122.21C245.977 122.406 246.151 123.924 246.325 124.324C246.498 124.724 246.408 125.833 245.962 126.007C245.516 126.18 244.171 126.875 244.118 126.648C244.066 126.422 243.945 125.252 243.771 125.365C243.597 125.478 242.834 127.576 242.486 127.81C241.9 128.2 241.371 128.67 240.915 129.207C240.802 129.493 241.731 130.135 242.026 130.422C242.32 130.709 242.547 131.705 242.199 131.992C241.852 132.278 240.975 132.286 240.802 132.52C240.628 132.754 240.333 134.671 240.22 134.724C240.106 134.777 240.741 135.305 240.681 135.652C240.62 135.999 239.343 136.12 239.29 136.588C239.238 137.056 239.29 138.618 239.23 139.147C239.17 139.675 239.751 139.781 239.751 140.188C239.751 140.596 239.17 142.981 239.464 143.501C239.759 144.022 242.486 144.392 242.486 144.392" stroke="#F2F2F2" stroke-width="0.5" stroke-miterlimit="10"/>
<path d="M252.837 128.791C252.837 128.791 251.961 129.093 251.727 128.791C251.492 128.49 251.379 127.161 251.145 127.161C250.699 127.263 250.267 127.421 249.86 127.629C249.626 127.742 249.339 129.078 249.044 129.199C248.412 129.126 247.801 128.929 247.246 128.618C246.406 128.7 245.582 128.9 244.798 129.214C244.451 129.373 244.798 130.535 244.798 130.724C244.591 131.293 244.23 131.795 243.756 132.173C243.225 132.226 242.69 132.167 242.184 131.999" stroke="#F2F2F2" stroke-width="0.5" stroke-miterlimit="10"/>
<path d="M231.75 139.35C231.75 139.35 232.506 140.648 232.642 140.935C232.778 141.222 231.886 142.799 232.196 143.086C232.506 143.373 233.223 143.26 233.45 143.494C233.677 143.728 234.387 144.105 234.734 144.384C235.082 144.664 235.429 144.075 235.837 143.728C236.245 143.381 235.55 142.452 235.837 142.158C236.125 141.864 236.827 141.169 237.001 141.056C237.175 140.943 236.827 140.007 237.001 139.947C237.175 139.886 237.93 141.169 238.165 141.169C238.399 141.169 239.63 140.92 239.63 140.92" stroke="#F2F2F2" stroke-width="0.5" stroke-miterlimit="10"/>
<path d="M233.261 148.588C233.086 148.005 232.955 147.41 232.868 146.807C232.868 146.4 233.51 146.113 233.624 145.645C233.646 144.924 233.588 144.202 233.45 143.494" stroke="#F2F2F2" stroke-width="0.5" stroke-miterlimit="10"/>
<path d="M256.471 113.161C256.3 113.822 256.212 114.501 256.207 115.184C256.453 115.661 256.741 116.116 257.068 116.542" stroke="#F2F2F2" stroke-width="0.5" stroke-miterlimit="10"/>
<path d="M154.194 144.535C155.004 144.752 155.841 144.851 156.68 144.83C157.11 144.631 157.488 144.334 157.783 143.962C157.956 143.788 158.077 142.799 158.425 142.799C158.772 142.799 159.067 143.26 159.301 143.381C159.536 143.501 159.18 144.739 159.528 144.89C159.876 145.041 160.926 144.505 161.273 144.566C161.621 144.626 162.384 146.769 162.784 146.83C163.185 146.89 163.653 145.901 164.001 145.841C164.348 145.781 164.703 144.392 164.991 144.332C165.479 144.315 165.968 144.353 166.449 144.445C166.796 144.505 166.562 145.788 166.917 145.901C167.583 145.936 168.25 145.857 168.889 145.667C169.297 145.554 170 144.218 170.347 144.098C170.695 143.977 172.387 143.984 172.735 143.811C173.181 143.622 173.536 143.267 173.725 142.822C173.838 142.354 173.838 141.132 174.072 141.079C174.306 141.026 176.513 141.713 176.868 141.773C177.223 141.833 177.155 142.875 177.389 143.23C177.623 143.584 178.9 143.403 179.021 143.577C179.142 143.75 179.542 145.32 179.829 145.381C180.46 145.227 181.067 144.991 181.635 144.679C182.043 144.505 181.575 142.996 181.983 142.935C182.391 142.875 183.675 143.169 184.196 143.109C184.922 142.925 185.572 142.518 186.055 141.947C186.116 141.66 185.768 139.448 186.055 138.981C186.492 138.428 187.024 137.957 187.627 137.592C188.035 137.358 187.8 136.196 188.208 135.962C188.616 135.728 189.493 136.429 189.78 136.309L191.525 135.614" stroke="#F2F2F2" stroke-width="0.5" stroke-miterlimit="10"/>
<path d="M152.728 148.951C152.728 148.951 153.929 150.762 154.156 150.996C154.555 151.273 155.004 151.47 155.478 151.577C155.773 151.63 156.12 152.619 156.408 152.853C156.695 153.087 156.06 153.902 156.408 154.075C156.755 154.249 158.1 153.554 158.447 153.668C158.795 153.781 158.213 154.77 158.1 155.124C157.987 155.479 158.667 156.513 158.553 156.747C158.44 156.981 159.377 157.041 159.49 157.328C159.603 157.615 159.029 158.256 159.203 158.551C159.747 159.119 160.353 159.625 161.009 160.06C161.447 160.123 161.876 160.239 162.286 160.407C162.459 160.581 161.643 161.691 161.296 161.977C160.948 162.264 159.316 162.966 158.969 163.2C158.621 163.434 159.263 164.589 159.437 164.709C159.611 164.83 160.601 164.709 160.888 164.974C161.175 165.238 161.47 166.31 161.817 166.43C162.165 166.551 162.641 165.676 163.419 165.615C164.197 165.555 164.174 164.74 164.673 164.709C165.172 164.679 166.305 165.147 167 165.147C167.623 165.105 168.233 164.957 168.806 164.709C168.98 164.626 169.441 166.483 169.441 166.838C169.441 167.193 168.103 167.359 168.164 167.827C168.224 168.294 169.327 168.694 169.441 168.989C169.554 169.283 170.604 168.808 170.899 168.989C171.193 169.17 171.654 167.532 171.949 167.532C172.244 167.532 172.878 168.46 173.339 168.634C173.8 168.808 174.964 168.174 175.258 168.174C175.553 168.174 175.727 169.389 175.961 169.336C176.572 169.212 177.147 168.954 177.646 168.581C178.001 168.174 177.646 166.891 177.646 166.317C177.646 165.743 178.288 165.094 178.001 164.717C177.714 164.34 176.716 164.43 176.837 164.038C176.958 163.645 177.419 162.891 177.706 162.891C177.993 162.891 178.522 163.789 178.809 164.038C179.096 164.287 179.973 164.166 180.268 164.4C180.562 164.634 180.502 165.623 181.136 165.683C182.165 165.936 183.174 166.259 184.159 166.649" stroke="#F2F2F2" stroke-width="0.5" stroke-miterlimit="10"/>
<path d="M159.437 164.679C159.437 164.679 159.898 165.872 159.437 166.189C158.976 166.506 158.213 166.068 157.866 166.189C157.518 166.309 156.702 167.698 156.407 167.819C156.113 167.94 155.244 167.872 154.836 168.513C154.687 168.695 154.605 168.923 154.605 169.159C154.605 169.394 154.687 169.622 154.836 169.804C155.01 170.023 155.712 170.891 155.478 171.155C155.244 171.419 154.08 172.468 153.733 172.876C153.324 173.237 152.983 173.669 152.728 174.151C152.569 174.619 153.325 175.608 153.091 175.955C152.714 176.326 152.283 176.639 151.814 176.883C151.466 177.117 151.285 178.219 150.884 178.453C150.484 178.687 148.958 178.046 148.55 177.932C148.142 177.819 147.213 177.578 146.986 177.872C146.783 178.365 146.606 178.869 146.457 179.381C146.283 179.676 145.588 179.442 145.354 179.849C145.12 180.257 145.293 181.359 145.006 181.359C144.719 181.359 144.13 181.072 143.956 181.359C143.782 181.646 144.069 183.163 143.956 183.51C143.803 184.083 143.687 184.665 143.609 185.253C143.548 185.721 144.598 186.008 144.712 186.242C144.766 186.745 144.666 187.254 144.425 187.699C144.19 188.159 144.538 189.035 144.885 189.087C145.233 189.14 146.049 189.035 146.578 189.087C147.069 189.175 147.518 189.421 147.855 189.789C148.028 190.023 147.099 191.767 146.691 191.94C146.283 192.114 145.626 190.831 145.664 190.657C145.701 190.484 145.354 190.37 144.772 190.197C144.19 190.023 143.661 190.952 143.609 190.831C143.556 190.71 143.435 189.495 143.201 189.321C142.966 189.148 141.569 188.914 141.221 188.74C140.874 188.567 140.171 187.872 139.823 188.046C139.476 188.219 139.068 189.789 138.894 190.076C138.72 190.363 139.997 190.778 140.352 190.891C140.707 191.004 140.874 191.993 140.874 192.461C140.874 192.929 140.639 194.031 140.874 194.265C141.361 194.631 141.888 194.943 142.445 195.193C142.732 195.306 142.271 197.057 142.271 197.518C142.271 197.978 143.314 199.027 143.314 199.382C143.109 199.953 142.748 200.455 142.271 200.831C141.977 201.005 141.977 201.993 141.629 202.227C141.282 202.461 140.526 202.288 140.118 202.575C139.71 202.861 139.997 203.91 139.77 204.265C139.402 204.85 138.949 205.376 138.426 205.827C138.078 206.009 137.209 205.948 136.801 206.182C136.393 206.416 137.088 207.692 136.801 207.926C136.514 208.16 135.925 208.68 135.638 208.854C135.35 209.028 135.343 211.412 135.638 211.473C136.272 211.586 136.922 211.586 137.557 211.473C137.965 211.292 138.252 210.19 138.781 209.963C139.31 209.737 141.221 209.035 141.742 208.801C142.264 208.567 142.966 209.616 143.488 209.269C144.009 208.922 144.477 207.812 144.712 207.586C144.946 207.36 144.425 206.71 144.425 206.19C144.425 205.669 143.435 205.08 143.896 204.733C144.357 204.386 145.407 203.163 145.664 203.224C145.921 203.284 145.996 204.793 146.17 205.027C146.344 205.261 146.457 207.058 146.986 207.058C147.583 206.972 148.169 206.817 148.731 206.597C149.139 206.477 148.61 205.141 148.784 205.027C148.958 204.914 149.895 205.782 150.356 205.722C150.816 205.661 151.285 204.326 151.58 203.978C151.874 203.631 150.65 202.99 150.884 202.756C151.119 202.522 151.64 201.307 151.988 201.186C152.335 201.065 153.559 201.359 153.967 201.246C154.375 201.133 154.375 199.563 154.602 199.442C154.828 199.322 153.62 198.808 153.62 198.808C153.62 198.808 153.793 198.054 154.315 197.993C154.836 197.933 155.947 198.106 156.407 198.106C156.868 198.106 156.642 199.329 157.05 199.79C157.458 200.25 157.805 199.329 158.387 199.737C158.969 200.144 159.384 201.307 159.641 201.42C159.898 201.533 161.764 201.186 162.406 201.186C163.049 201.186 163.389 199.269 163.57 199.035C164.003 198.661 164.522 198.402 165.081 198.28C165.753 198.059 166.401 197.771 167.015 197.42" stroke="#F2F2F2" stroke-width="0.5" stroke-miterlimit="10"/>
<path d="M135.638 211.45C134.977 211.333 134.345 211.095 133.771 210.748C133.424 210.575 132.555 211.397 132.147 211.503C131.739 211.609 131.271 210.884 131.036 210.424C130.802 209.963 131.505 208.62 131.444 208.326C131.384 208.031 130.341 207.284 129.933 207.111C129.554 206.993 129.149 206.993 128.77 207.111C128.475 207.163 129.057 205.948 128.77 205.541C128.483 205.133 127.372 203.39 127.024 203.276C126.677 203.163 125.8 203.571 125.34 203.571C124.879 203.571 124.524 202.175 124.289 202.114C123.708 202.148 123.125 202.148 122.544 202.114C122.076 202.001 121.433 201.654 121.433 201.073C121.494 200.375 121.494 199.673 121.433 198.974C121.32 198.393 120.799 198.341 120.912 197.699C121.025 197.057 121.728 196.416 121.788 195.835C121.849 195.254 120.391 193.805 119.922 193.631C119.454 193.457 118.933 194.386 118.472 194.559C117.816 194.654 117.154 194.692 116.492 194.672C116.145 194.733 115.442 193.586 115.094 193.608C114.747 193.631 114.686 195.118 114.278 195.201C113.519 195.115 112.775 194.919 112.072 194.62C111.43 194.386 111.256 193.337 111.082 193.05C110.909 192.763 110.327 191.593 109.858 191.54C109.39 191.487 107.531 191.827 107.237 191.54C106.942 191.254 106.307 190.144 106.134 190.197C105.987 190.31 105.88 190.466 105.827 190.644C105.774 190.821 105.778 191.011 105.839 191.186C106.02 191.593 106.595 192.408 106.368 192.695C106.141 192.982 106.307 194.786 106.194 195.073C106.081 195.359 105.031 195.306 104.623 195.54C104.215 195.774 104.796 196.876 104.91 197.11C105.023 197.344 104.154 197.518 103.746 197.691C103.338 197.865 103.164 196.235 102.703 196.061C102.243 195.888 102.061 197.05 101.653 197.518C101.245 197.986 100.021 198.68 100.256 199.141C100.49 199.601 101.767 200.363 101.887 200.537C102.008 200.71 101.419 201.646 101.306 202.107C101.188 202.662 101.13 203.229 101.132 203.797C101.132 204.258 99.9684 203.737 99.5 203.85C99.0315 203.963 98.9786 204.786 98.7444 205.186C98.5102 205.586 99.1524 206.235 98.7444 206.348C98.3364 206.461 96.7045 205.012 96.2965 205.133C95.8885 205.254 95.4276 206.175 95.0801 206.529C94.7325 206.884 94.8458 208.099 94.4378 208.212C94.0298 208.326 93.2139 207.631 92.9268 207.865C92.6396 208.099 92.4583 209.896 92.0503 210.19C91.6423 210.484 91.4685 211.352 91.3552 211.933C91.2562 212.181 91.0735 212.386 90.8388 212.513C90.6042 212.64 90.3324 212.68 90.0708 212.628C89.7837 212.514 89.1415 211.76 88.9073 211.933C88.673 212.107 88.0913 213.209 87.6833 213.33C87.2753 213.45 86.6406 213.503 86.4668 213.85C86.2931 214.198 87.8042 215.42 87.6833 215.594C87.5624 215.767 86.4064 215.654 85.9984 215.594C85.5904 215.533 83.4371 216.062 83.15 215.941C82.8629 215.82 81.926 214.318 81.2838 214.198C80.6416 214.077 80.5283 215.745 80.2412 215.964C79.9541 216.182 80.6492 217.224 80.6492 217.632C80.6492 218.039 80.823 218.847 80.5283 219.081C80.2336 219.315 78.783 218.439 78.2617 218.62C77.7403 218.801 77.3324 218.809 77.0377 219.118C76.743 219.428 76.9244 220.243 76.5693 220.303C76.1258 220.312 75.6871 220.211 75.2924 220.009C75.1186 219.896 75.1186 218.733 74.6502 218.733C74.1817 218.733 73.1391 220.145 72.9049 220.311C72.6707 220.477 73.3129 221.526 72.9049 221.579C72.4969 221.632 71.9151 220.998 71.5071 221.171C71.0991 221.345 70.6382 222.515 70.2907 222.515C69.9432 222.515 69.7089 221.639 69.3538 221.873C68.9987 222.107 67.7294 223.149 67.3214 223.149C66.9134 223.149 67.4952 224.605 67.3214 225.066C67.1476 225.526 67.9636 225.82 68.2507 225.768C68.4301 225.771 68.6066 225.814 68.7673 225.893C68.9281 225.973 69.0691 226.087 69.1801 226.228C69.3538 226.462 68.3112 227.277 68.1374 227.624C67.9636 227.971 68.3641 229.368 68.1374 229.836C67.7493 230.441 67.2789 230.99 66.7396 231.466C66.5689 231.65 66.3619 231.796 66.1318 231.896C65.9016 231.996 65.6533 232.047 65.4023 232.047C64.8206 231.987 63.9441 232.349 63.5966 232.047C63.249 231.745 62.9015 230.07 62.5464 230.009C62.1913 229.949 61.8286 231.058 61.8286 231.058" stroke="#F2F2F2" stroke-width="0.5" stroke-miterlimit="10"/>
<path d="M65.115 232.085C65.0222 231.683 65.0222 231.264 65.115 230.862C65.292 230.316 65.67 229.857 66.1727 229.579C66.7394 229.353 67.1851 231.089 67.1851 231.089C67.1851 231.089 66.9132 233.262 66.8905 233.723C66.8678 234.183 67.7291 234.425 67.6082 234.832C67.4873 235.24 66.5051 234.885 66.6185 235.24C66.7318 235.594 66.5051 236.576 66.6185 237.157C66.7318 237.738 67.2154 238.085 67.0416 238.372C66.7781 238.707 66.4875 239.02 66.1727 239.308" stroke="#F2F2F2" stroke-width="0.5" stroke-miterlimit="10"/>
<path d="M98.7446 206.386C99.1028 206.712 99.4154 207.086 99.6739 207.495C99.9081 207.956 98.669 208.597 98.737 208.945C98.805 209.292 99.5606 209.76 99.7041 210.054C99.8477 210.348 99.2432 210.688 98.7295 210.982C98.2157 211.277 97.8682 213.42 97.8153 213.828C97.7624 214.235 99.1979 214.001 99.7268 214.235C100.256 214.469 99.1904 215.05 98.737 215.345C98.2837 215.639 97.2864 215.926 97.1126 216.447C96.9388 216.967 97.2864 217.956 97.1126 218.658C96.9388 219.36 97.7548 219.413 97.9286 220.047C98.1024 220.681 97.3468 221.971 97.3468 222.432C97.3468 222.892 98.601 223.594 98.465 224.002C98.329 224.409 96.954 225.745 97.0597 225.979C97.1655 226.213 98.4726 226.673 98.465 226.854C98.4575 227.036 98.2761 229.594 97.989 229.564C96.8842 229.503 95.777 229.503 94.6722 229.564C94.2038 229.639 93.4482 230.922 93.2745 231.383C93.1007 231.843 94.1433 232.432 94.3171 232.779C94.4909 233.126 93.6447 232.892 93.2518 233.126C92.8589 233.36 92.4963 235.451 92.6927 235.745C92.8891 236.04 94.0904 236.56 94.3775 236.908C94.6646 237.255 94.7855 239.27 94.4984 239.308C93.8708 239.19 93.2523 239.029 92.6474 238.825C91.8918 238.651 91.7634 238.009 91.3554 238.243C90.9474 238.477 91.2345 239.64 91.3554 240.221C91.3858 240.764 91.2195 241.3 90.8869 241.73C90.5724 242.326 90.3749 242.977 90.3052 243.647C90.3656 244.002 91.7029 244.402 92.1714 244.583C92.6398 244.764 92.1109 245.746 91.9372 246.266C91.7634 246.787 92.1714 246.847 92.3451 247.315C92.5189 247.783 92.8665 248.53 93.5616 248.704C94.2567 248.878 94.9593 248.764 95.6015 248.998C96.1431 249.234 96.6352 249.569 97.0522 249.987C97.2335 250.161 96.3571 250.855 96.5308 251.21C96.7046 251.565 97.5206 252.599 97.8153 252.659C98.5189 252.569 99.209 252.394 99.8703 252.138C100.142 252.017 99.7872 250.855 100.142 250.742C100.497 250.629 100.603 249.927 101.072 249.814C101.53 249.624 102.027 249.543 102.522 249.58C102.93 249.693 102.409 251.029 102.522 251.149C102.636 251.27 103.399 250.915 103.686 251.149C103.973 251.383 103.285 252.085 103.399 252.659C103.512 253.232 103.92 252.712 104.449 252.946C104.98 253.291 105.544 253.582 106.134 253.814C106.716 253.934 106.776 254.976 106.716 255.497C106.724 255.774 106.827 256.04 107.007 256.251C107.187 256.462 107.433 256.606 107.705 256.659C108.227 256.78 107.645 257.595 107.705 258.229C107.766 258.863 106.889 258.523 106.776 258.87C106.663 259.218 106.889 260.327 106.655 260.561C106.421 260.795 105.318 260.327 105.031 260.561C104.744 260.795 104.91 261.542 104.849 261.95C104.789 262.357 106.02 263.346 106.481 263.233C106.942 263.12 107.622 261.369 107.924 260.969C108.227 260.569 108.68 259.346 109.103 259.052C109.526 258.757 109.685 258.297 110.146 258.184C110.607 258.07 110.901 259.052 111.717 259.172C112.512 259.229 113.31 259.229 114.105 259.172C114.8 259.172 114.339 257.889 114.86 257.836C115.382 257.784 115.971 258.063 116.432 257.889C116.893 257.716 116.492 256.033 117.014 255.859C117.631 255.636 118.303 255.615 118.933 255.799C119.401 256.033 119.341 257.074 119.688 257.134C120.186 257.187 120.69 257.106 121.146 256.901C121.32 256.727 121.434 255.972 121.615 255.685C121.796 255.399 122.99 254.176 122.99 254.176" stroke="#F2F2F2" stroke-width="0.5" stroke-miterlimit="10"/>
<path d="M93.9694 245.859C94.5134 245.595 95.133 245.338 95.541 245.859C95.949 246.379 96.5912 247.368 96.8783 247.429C97.1654 247.489 95.4956 248.432 95.9565 249.164C96.0527 249.3 96.1164 249.455 96.1427 249.619C96.169 249.782 96.1572 249.95 96.1083 250.108C96.0593 250.267 95.9745 250.412 95.8604 250.532C95.7463 250.652 95.606 250.745 95.4503 250.802C94.9592 250.855 94.7477 250.048 94.6343 250.387C94.521 250.727 94.4379 251.497 93.9694 251.61C93.3558 251.731 92.7244 251.731 92.1108 251.61C91.7028 251.497 92.2846 250.448 92.4584 250.274C92.6321 250.1 92.2921 249.346 91.9673 249.172C91.6424 248.998 90.1237 247.489 90.2975 247.255C90.4713 247.021 91.5441 247.21 92.0881 246.915C92.6321 246.621 93.1837 247.134 93.5992 246.961C94.0148 246.787 93.5917 246.04 93.9694 245.859Z" stroke="#F2F2F2" stroke-width="0.5" stroke-miterlimit="10"/>
<path d="M72.187 261.361C72.187 261.361 72.9426 260.855 73.3128 260.916C73.683 260.976 74.2421 262.365 74.5972 262.712C74.9523 263.059 75.9874 262.312 76.2821 262.712C76.5623 263.229 76.8939 263.717 77.2718 264.169C77.6194 264.463 76.9772 265.504 77.2718 265.852C77.5665 266.199 78.5487 267.248 79.0776 267.829C79.6064 268.41 80.3544 268.297 80.6491 268.531C80.9438 268.765 81.2309 269.572 81.5784 269.867C81.926 270.161 82.9762 269.927 83.3237 269.867C83.6713 269.806 84.3664 270.908 84.7215 271.09C85.2193 271.388 85.7714 271.586 86.3459 271.671C86.6388 271.672 86.9274 271.741 87.1894 271.872C87.4514 272.003 87.6798 272.192 87.857 272.425C88.2045 272.886 88.4916 273.12 89.6552 273.007C90.3231 272.957 90.975 272.777 91.5742 272.478C91.8689 272.365 91.6347 271.203 91.8689 271.029C92.1031 270.856 92.2769 271.844 93.0929 271.844C93.6175 271.857 94.1423 271.836 94.6644 271.784C95.3595 271.724 95.2991 270.795 95.4804 270.735C95.6617 270.674 96.1151 271.844 96.4626 271.724C96.8101 271.603 96.3039 270.448 96.9084 270.154C97.5128 269.859 98.0341 270.101 98.5026 269.867C98.971 269.633 99.9003 268.297 100.074 268.237C100.248 268.176 99.7266 267.218 99.4923 266.969C99.2581 266.72 98.0341 266.923 97.5128 266.969C96.9915 267.014 98.4421 265.852 98.7368 265.625C99.0315 265.399 98.7368 264.342 98.563 263.935C98.3892 263.527 97.5732 263.18 97.8075 262.712C98.1166 262.273 98.4882 261.881 98.9106 261.55C99.0843 261.376 99.4319 262.425 99.8399 262.191C100.248 261.957 100.014 260.568 100.361 260.335C100.89 260.154 101.464 260.154 101.993 260.335C102.635 260.448 102.696 261.67 102.983 261.784C103.625 261.721 104.254 261.563 104.849 261.316" stroke="#F2F2F2" stroke-width="0.5" stroke-miterlimit="10"/>
<path d="M86.3459 271.671C86.3763 272.231 86.3763 272.793 86.3459 273.354C86.293 273.527 84.7743 273.641 84.661 273.822C84.5477 274.003 84.7441 274.629 85.5148 274.75C86.0823 274.81 86.6547 274.81 87.2223 274.75C87.4565 274.75 87.9174 275.739 88.0912 275.965C88.2649 276.192 87.3961 276.667 87.3961 276.901C87.3961 277.135 88.9071 276.78 89.2547 276.901C89.6022 277.022 90.5542 278.35 90.2822 278.818C90.0102 279.286 89.028 279.279 88.9071 279.633C88.7862 279.988 89.3756 280.154 89.7836 280.267C90.1916 280.38 90.9471 280.214 91.1209 280.969C91.2946 281.724 91.4684 283.173 91.1209 283.467C90.7733 283.762 90.5542 283.762 90.2822 283.988C90.0102 284.215 90.1916 286.433 90.5391 286.781C90.8867 287.128 91.7026 286.781 92.0502 286.781C92.3977 286.781 92.4582 285.558 93.04 285.384C93.6217 285.211 94.7853 286.199 95.1328 286.373C95.4803 286.547 95.2537 288.056 95.1328 288.35C95.0119 288.645 94.3168 288.464 94.143 288.992C93.9693 289.52 94.3168 290.645 94.4377 291.332C94.5586 292.018 93.871 292.252 93.599 292.652C93.3271 293.052 93.9693 293.92 94.4981 293.981C95.027 294.041 95.367 293.226 95.6617 293.347C95.9564 293.468 96.7648 294.456 96.591 294.856C96.1401 295.678 95.614 296.456 95.0195 297.181C94.551 297.702 93.7502 297.468 93.599 297.815C93.3357 298.35 93.1476 298.919 93.04 299.505C93.1004 299.739 94.4377 300.547 94.551 301.015C94.6644 301.483 93.9693 302.585 93.7955 302.872C93.6217 303.158 93.1533 302.872 92.9795 303.226C92.8057 303.581 93.5084 304.849 93.448 305.317C93.2457 305.819 92.9481 306.278 92.5715 306.668" stroke="#F2F2F2" stroke-width="0.5" stroke-miterlimit="10"/>
<path d="M128.362 176.8C128.362 176.8 128.362 177.91 128.014 178.083C127.666 178.257 126.503 178.257 126.269 178.491C126.034 178.725 126.503 179.94 126.269 180.408C126.034 180.876 127.07 181.049 127.281 181.276C127.493 181.502 126.442 183.427 126.526 183.721C126.609 184.016 127.334 184.129 127.629 184.363C127.923 184.597 127.213 186.453 127.304 186.801C127.394 187.148 125.944 186.393 125.793 186.801C125.666 187.228 125.57 187.665 125.506 188.106C125.392 188.544 126.322 188.604 126.956 188.861C127.591 189.118 127.243 190.076 126.956 190.484C126.669 190.891 126.261 191.82 126.609 192.174C126.956 192.529 127.538 192.695 128.006 193.155C128.475 193.616 128.301 194.499 128.702 194.612C129.102 194.725 129.986 194.786 130.046 195.193C129.955 195.913 129.673 196.596 129.23 197.171C128.936 197.405 128.407 195.835 127.772 195.948C127.157 196.121 126.583 196.419 126.087 196.823C125.42 197.219 124.829 197.73 124.342 198.333C124.168 198.74 124.629 199.495 124.984 199.903C125.339 200.31 124.342 202.167 124.342 202.167" stroke="#F2F2F2" stroke-width="0.5" stroke-miterlimit="10"/>
</g>
</g>
</mask>
<g mask="url(#mask0_13_32627)">
<g filter="url(#filter0_b_13_32627)">
<rect width="280" height="292" rx="32" fill="url(#paint0_linear_13_32627)"/>
<rect x="0.5" y="0.5" width="279" height="291" rx="31.5" stroke="url(#paint1_radial_13_32627)" stroke-opacity="0.1"/>
</g>
<g filter="url(#filter1_f_13_32627)">
<path d="M355 28L0 28L1.31134e-06 13C2.85637e-06 -4.67313 14.3269 -19 32 -19L323 -19C340.673 -19 355 -4.67309 355 13L355 28Z" fill="black"/>
</g>
<g filter="url(#filter2_f_13_32627)">
<path d="M0 126H280V268C280 285.673 265.673 300 248 300H32C14.3269 300 0 285.673 0 268V126Z" fill="black"/>
</g>
</g>
</g>
<defs>
<filter id="filter0_b_13_32627" x="-60" y="-60" width="400" height="412" filterUnits="userSpaceOnUse" color-interpolation-filters="sRGB">
<feFlood flood-opacity="0" result="BackgroundImageFix"/>
<feGaussianBlur in="BackgroundImageFix" stdDeviation="30"/>
<feComposite in2="SourceAlpha" operator="in" result="effect1_backgroundBlur_13_32627"/>
<feBlend mode="normal" in="SourceGraphic" in2="effect1_backgroundBlur_13_32627" result="shape"/>
</filter>
<filter id="filter1_f_13_32627" x="-48" y="-67" width="451" height="143" filterUnits="userSpaceOnUse" color-interpolation-filters="sRGB">
<feFlood flood-opacity="0" result="BackgroundImageFix"/>
<feBlend mode="normal" in="SourceGraphic" in2="BackgroundImageFix" result="shape"/>
<feGaussianBlur stdDeviation="24" result="effect1_foregroundBlur_13_32627"/>
</filter>
<filter id="filter2_f_13_32627" x="-48" y="78" width="376" height="270" filterUnits="userSpaceOnUse" color-interpolation-filters="sRGB">
<feFlood flood-opacity="0" result="BackgroundImageFix"/>
<feBlend mode="normal" in="SourceGraphic" in2="BackgroundImageFix" result="shape"/>
<feGaussianBlur stdDeviation="24" result="effect1_foregroundBlur_13_32627"/>
</filter>
<linearGradient id="paint0_linear_13_32627" x1="140" y1="0" x2="140" y2="292" gradientUnits="userSpaceOnUse">
<stop stop-color="#FFFDFD"/>
<stop offset="1" stop-color="#FFFDFD" stop-opacity="0"/>
</linearGradient>
<radialGradient id="paint1_radial_13_32627" cx="0" cy="0" r="1" gradientUnits="userSpaceOnUse" gradientTransform="translate(135.466 178.034) rotate(-141.279) scale(182.193 598.265)">
<stop stop-color="#9D9D9D"/>
<stop offset="1" stop-color="#AEAEAE" stop-opacity="0"/>
</radialGradient>
<clipPath id="clip0_13_32627">
<rect width="280" height="295" fill="white"/>
</clipPath>
<clipPath id="clip1_13_32627">
<rect width="259" height="290" fill="white" transform="translate(15 19)"/>
</clipPath>
</defs>
</svg>
