<svg width="280" height="300" viewBox="0 0 280 300" fill="none" xmlns="http://www.w3.org/2000/svg">
<g opacity="0.4">
<mask id="mask0_13_32676" style="mask-type:alpha" maskUnits="userSpaceOnUse" x="0" y="0" width="280" height="300">
<g clip-path="url(#clip0_13_32676)">
<path d="M53.504 78.64C49.9627 78.64 46.9333 78.2133 44.416 77.36C41.9413 76.5067 39.9147 75.44 38.336 74.16C36.8 72.8373 35.6693 71.4293 34.944 69.936C34.2187 68.4427 33.8347 67.056 33.792 65.776C33.792 65.392 33.92 65.072 34.176 64.816C34.432 64.5173 34.752 64.368 35.136 64.368H45.76C46.3147 64.368 46.7413 64.4747 47.04 64.688C47.3387 64.8587 47.616 65.136 47.872 65.52C48.1707 66.032 48.576 66.48 49.088 66.864C49.6 67.2053 50.2187 67.4613 50.944 67.632C51.6693 67.76 52.544 67.824 53.568 67.824C55.4027 67.824 56.7893 67.4187 57.728 66.608C58.6667 65.7547 59.136 64.6453 59.136 63.28C59.136 61.9147 58.6667 60.9333 57.728 60.336C56.7893 59.696 55.4453 59.376 53.696 59.376H46.144C45.6747 59.376 45.2693 59.2053 44.928 58.864C44.6293 58.5227 44.48 58.1387 44.48 57.712V53.296C44.48 52.6987 44.5867 52.208 44.8 51.824C45.056 51.3973 45.3333 51.0987 45.632 50.928L55.296 44.08H38.016C37.5467 44.08 37.1413 43.9093 36.8 43.568C36.5013 43.2267 36.352 42.8427 36.352 42.416V34.864C36.352 34.3947 36.5013 34.0107 36.8 33.712C37.1413 33.3707 37.5467 33.2 38.016 33.2H69.12C69.5893 33.2 69.9733 33.3707 70.272 33.712C70.6133 34.0107 70.784 34.3947 70.784 34.864V41.648C70.784 42.2027 70.6773 42.672 70.464 43.056C70.2507 43.44 69.9947 43.7387 69.696 43.952L61.056 50.992L61.312 51.12C63.5733 51.5467 65.6213 52.272 67.456 53.296C69.2907 54.2773 70.7413 55.664 71.808 57.456C72.8747 59.248 73.408 61.5093 73.408 64.24C73.408 67.1413 72.5333 69.68 70.784 71.856C69.0773 73.9893 66.7307 75.6533 63.744 76.848C60.8 78.0427 57.3867 78.64 53.504 78.64ZM95.206 78.64C92.0487 78.64 89.2967 78.2133 86.95 77.36C84.6033 76.5067 82.6407 75.3333 81.062 73.84C79.526 72.3467 78.3313 70.5973 77.478 68.592C76.6247 66.544 76.134 64.3467 76.006 62C75.9207 60.848 75.8567 59.4827 75.814 57.904C75.814 56.3253 75.814 54.7467 75.814 53.168C75.8567 51.5467 75.9207 50.1387 76.006 48.944C76.134 46.5973 76.6247 44.4427 77.478 42.48C78.374 40.4747 79.6327 38.7467 81.254 37.296C82.8753 35.8027 84.838 34.6507 87.142 33.84C89.446 32.9867 92.134 32.56 95.206 32.56C98.2353 32.56 100.902 32.9867 103.206 33.84C105.553 34.6507 107.515 35.8027 109.094 37.296C110.715 38.7467 111.953 40.4747 112.806 42.48C113.702 44.4427 114.235 46.5973 114.406 48.944C114.491 50.1387 114.534 51.5467 114.534 53.168C114.534 54.7467 114.534 56.3253 114.534 57.904C114.534 59.4827 114.491 60.848 114.406 62C114.235 64.3467 113.723 66.544 112.87 68.592C112.059 70.5973 110.865 72.3467 109.286 73.84C107.707 75.3333 105.745 76.5067 103.398 77.36C101.051 78.2133 98.3207 78.64 95.206 78.64ZM95.206 67.696C96.9127 67.696 98.15 67.1413 98.918 66.032C99.686 64.9227 100.091 63.472 100.134 61.68C100.219 60.4427 100.262 59.0987 100.262 57.648C100.262 56.1973 100.262 54.7467 100.262 53.296C100.262 51.8027 100.219 50.48 100.134 49.328C100.091 47.6213 99.686 46.2133 98.918 45.104C98.1927 43.952 96.9553 43.3547 95.206 43.312C93.4567 43.3547 92.2193 43.952 91.494 45.104C90.7687 46.2133 90.3633 47.6213 90.278 49.328C90.2353 50.48 90.1927 51.8027 90.15 53.296C90.15 54.7467 90.15 56.1973 90.15 57.648C90.1927 59.0987 90.2353 60.4427 90.278 61.68C90.3633 63.472 90.7687 64.9227 91.494 66.032C92.262 67.1413 93.4993 67.696 95.206 67.696ZM137.076 78.64C133.919 78.64 131.167 78.2133 128.82 77.36C126.473 76.5067 124.511 75.3333 122.932 73.84C121.396 72.3467 120.201 70.5973 119.348 68.592C118.495 66.544 118.004 64.3467 117.876 62C117.791 60.848 117.727 59.4827 117.684 57.904C117.684 56.3253 117.684 54.7467 117.684 53.168C117.727 51.5467 117.791 50.1387 117.876 48.944C118.004 46.5973 118.495 44.4427 119.348 42.48C120.244 40.4747 121.503 38.7467 123.124 37.296C124.745 35.8027 126.708 34.6507 129.012 33.84C131.316 32.9867 134.004 32.56 137.076 32.56C140.105 32.56 142.772 32.9867 145.076 33.84C147.423 34.6507 149.385 35.8027 150.964 37.296C152.585 38.7467 153.823 40.4747 154.676 42.48C155.572 44.4427 156.105 46.5973 156.276 48.944C156.361 50.1387 156.404 51.5467 156.404 53.168C156.404 54.7467 156.404 56.3253 156.404 57.904C156.404 59.4827 156.361 60.848 156.276 62C156.105 64.3467 155.593 66.544 154.74 68.592C153.929 70.5973 152.735 72.3467 151.156 73.84C149.577 75.3333 147.615 76.5067 145.268 77.36C142.921 78.2133 140.191 78.64 137.076 78.64ZM137.076 67.696C138.783 67.696 140.02 67.1413 140.788 66.032C141.556 64.9227 141.961 63.472 142.004 61.68C142.089 60.4427 142.132 59.0987 142.132 57.648C142.132 56.1973 142.132 54.7467 142.132 53.296C142.132 51.8027 142.089 50.48 142.004 49.328C141.961 47.6213 141.556 46.2133 140.788 45.104C140.063 43.952 138.825 43.3547 137.076 43.312C135.327 43.3547 134.089 43.952 133.364 45.104C132.639 46.2133 132.233 47.6213 132.148 49.328C132.105 50.48 132.063 51.8027 132.02 53.296C132.02 54.7467 132.02 56.1973 132.02 57.648C132.063 59.0987 132.105 60.4427 132.148 61.68C132.233 63.472 132.639 64.9227 133.364 66.032C134.132 67.1413 135.369 67.696 137.076 67.696ZM178.946 78.64C175.789 78.64 173.037 78.2133 170.69 77.36C168.343 76.5067 166.381 75.3333 164.802 73.84C163.266 72.3467 162.071 70.5973 161.218 68.592C160.365 66.544 159.874 64.3467 159.746 62C159.661 60.848 159.597 59.4827 159.554 57.904C159.554 56.3253 159.554 54.7467 159.554 53.168C159.597 51.5467 159.661 50.1387 159.746 48.944C159.874 46.5973 160.365 44.4427 161.218 42.48C162.114 40.4747 163.373 38.7467 164.994 37.296C166.615 35.8027 168.578 34.6507 170.882 33.84C173.186 32.9867 175.874 32.56 178.946 32.56C181.975 32.56 184.642 32.9867 186.946 33.84C189.293 34.6507 191.255 35.8027 192.834 37.296C194.455 38.7467 195.693 40.4747 196.546 42.48C197.442 44.4427 197.975 46.5973 198.146 48.944C198.231 50.1387 198.274 51.5467 198.274 53.168C198.274 54.7467 198.274 56.3253 198.274 57.904C198.274 59.4827 198.231 60.848 198.146 62C197.975 64.3467 197.463 66.544 196.61 68.592C195.799 70.5973 194.605 72.3467 193.026 73.84C191.447 75.3333 189.485 76.5067 187.138 77.36C184.791 78.2133 182.061 78.64 178.946 78.64ZM178.946 67.696C180.653 67.696 181.89 67.1413 182.658 66.032C183.426 64.9227 183.831 63.472 183.874 61.68C183.959 60.4427 184.002 59.0987 184.002 57.648C184.002 56.1973 184.002 54.7467 184.002 53.296C184.002 51.8027 183.959 50.48 183.874 49.328C183.831 47.6213 183.426 46.2133 182.658 45.104C181.933 43.952 180.695 43.3547 178.946 43.312C177.197 43.3547 175.959 43.952 175.234 45.104C174.509 46.2133 174.103 47.6213 174.018 49.328C173.975 50.48 173.933 51.8027 173.89 53.296C173.89 54.7467 173.89 56.1973 173.89 57.648C173.933 59.0987 173.975 60.4427 174.018 61.68C174.103 63.472 174.509 64.9227 175.234 66.032C176.002 67.1413 177.239 67.696 178.946 67.696ZM205.712 78C204.731 78 204.24 77.5733 204.24 76.72C204.24 76.464 204.325 76.2293 204.496 76.016L236.048 34.416C236.347 34.032 236.645 33.7333 236.944 33.52C237.285 33.3067 237.755 33.2 238.352 33.2H243.984C244.965 33.2 245.456 33.6267 245.456 34.48C245.456 34.736 245.371 34.9707 245.2 35.184L213.584 76.784C213.285 77.168 212.987 77.4667 212.688 77.68C212.389 77.8933 211.941 78 211.344 78H205.712ZM239.184 78.32C236.24 78.32 233.851 77.552 232.016 76.016C230.224 74.48 229.243 72.432 229.072 69.872C228.987 68.7627 228.944 67.7813 228.944 66.928C228.987 66.032 229.029 64.9867 229.072 63.792C229.243 61.1893 230.181 59.12 231.888 57.584C233.637 56.048 236.069 55.28 239.184 55.28C242.299 55.28 244.709 56.048 246.416 57.584C248.165 59.12 249.104 61.1893 249.232 63.792C249.317 64.9867 249.36 66.032 249.36 66.928C249.36 67.7813 249.317 68.7627 249.232 69.872C249.104 72.432 248.123 74.48 246.288 76.016C244.496 77.552 242.128 78.32 239.184 78.32ZM239.184 72.048C239.739 72.048 240.165 71.9413 240.464 71.728C240.763 71.472 240.997 71.152 241.168 70.768C241.339 70.3413 241.424 69.9147 241.424 69.488C241.509 68.592 241.552 67.696 241.552 66.8C241.552 65.904 241.509 65.0293 241.424 64.176C241.381 63.4933 241.189 62.896 240.848 62.384C240.507 61.872 239.952 61.616 239.184 61.616C238.373 61.616 237.797 61.872 237.456 62.384C237.115 62.896 236.923 63.4933 236.88 64.176C236.837 65.0293 236.816 65.904 236.816 66.8C236.816 67.696 236.837 68.592 236.88 69.488C236.923 69.9147 237.008 70.3413 237.136 70.768C237.307 71.152 237.541 71.472 237.84 71.728C238.181 71.9413 238.629 72.048 239.184 72.048ZM210.704 55.856C207.76 55.856 205.392 55.1093 203.6 53.616C201.808 52.08 200.805 50.032 200.592 47.472C200.507 46.3627 200.464 45.3813 200.464 44.528C200.507 43.632 200.549 42.5867 200.592 41.392C200.763 38.7893 201.723 36.72 203.472 35.184C205.221 33.648 207.632 32.88 210.704 32.88C213.819 32.88 216.229 33.648 217.936 35.184C219.685 36.72 220.645 38.7893 220.816 41.392C220.901 42.5867 220.944 43.632 220.944 44.528C220.944 45.3813 220.901 46.3627 220.816 47.472C220.645 50.032 219.643 52.08 217.808 53.616C216.016 55.1093 213.648 55.856 210.704 55.856ZM210.704 49.648C211.259 49.648 211.685 49.5413 211.984 49.328C212.283 49.072 212.517 48.752 212.688 48.368C212.859 47.9413 212.944 47.5147 212.944 47.088C213.029 46.1493 213.072 45.2533 213.072 44.4C213.072 43.504 213.029 42.6293 212.944 41.776C212.901 41.0933 212.709 40.496 212.368 39.984C212.069 39.472 211.515 39.216 210.704 39.216C209.893 39.216 209.317 39.472 208.976 39.984C208.635 40.496 208.443 41.0933 208.4 41.776C208.357 42.6293 208.336 43.504 208.336 44.4C208.336 45.2533 208.357 46.1493 208.4 47.088C208.443 47.5147 208.528 47.9413 208.656 48.368C208.827 48.752 209.083 49.072 209.424 49.328C209.765 49.5413 210.192 49.648 210.704 49.648ZM37.632 136C37.2053 136 36.8213 135.851 36.48 135.552C36.1387 135.211 35.968 134.805 35.968 134.336V92.864C35.968 92.3947 36.1387 92.0107 36.48 91.712C36.8213 91.3707 37.2053 91.2 37.632 91.2H55.872C61.6747 91.2 66.2187 92.5227 69.504 95.168C72.832 97.8133 74.496 101.504 74.496 106.24C74.496 109.227 73.8133 111.765 72.448 113.856C71.0827 115.947 69.2907 117.589 67.072 118.784L75.392 133.888C75.52 134.144 75.584 134.379 75.584 134.592C75.584 134.976 75.456 135.317 75.2 135.616C74.944 135.872 74.624 136 74.24 136H63.424C62.6133 136 61.9947 135.808 61.568 135.424C61.1413 134.997 60.864 134.613 60.736 134.272L54.336 121.088H49.728V134.336C49.728 134.805 49.5573 135.211 49.216 135.552C48.9173 135.851 48.5333 136 48.064 136H37.632ZM49.728 110.528H55.808C57.3013 110.528 58.4107 110.123 59.136 109.312C59.8613 108.459 60.224 107.413 60.224 106.176C60.224 104.896 59.8613 103.808 59.136 102.912C58.4533 102.016 57.344 101.568 55.808 101.568H49.728V110.528ZM80.002 136C79.5753 136 79.1913 135.851 78.85 135.552C78.5087 135.211 78.338 134.805 78.338 134.336V92.864C78.338 92.3947 78.5087 92.0107 78.85 91.712C79.1913 91.3707 79.5753 91.2 80.002 91.2H111.362C111.831 91.2 112.237 91.3707 112.578 91.712C112.919 92.0107 113.09 92.3947 113.09 92.864V100.416C113.09 100.843 112.919 101.227 112.578 101.568C112.237 101.909 111.831 102.08 111.362 102.08H91.586V108.416H109.954C110.423 108.416 110.829 108.587 111.17 108.928C111.511 109.227 111.682 109.611 111.682 110.08V116.992C111.682 117.461 111.511 117.867 111.17 118.208C110.829 118.507 110.423 118.656 109.954 118.656H91.586V125.12H111.874C112.343 125.12 112.749 125.291 113.09 125.632C113.431 125.973 113.602 126.379 113.602 126.848V134.336C113.602 134.805 113.431 135.211 113.09 135.552C112.749 135.851 112.343 136 111.874 136H80.002ZM128.854 136C128.385 136 127.98 135.851 127.638 135.552C127.34 135.211 127.19 134.805 127.19 134.336V103.104H116.182C115.713 103.104 115.308 102.955 114.966 102.656C114.668 102.315 114.518 101.909 114.518 101.44V92.864C114.518 92.3947 114.668 92.0107 114.966 91.712C115.308 91.3707 115.713 91.2 116.182 91.2H152.151C152.62 91.2 153.004 91.3707 153.302 91.712C153.644 92.0107 153.814 92.3947 153.814 92.864V101.44C153.814 101.909 153.644 102.315 153.302 102.656C153.004 102.955 152.62 103.104 152.151 103.104H141.142V134.336C141.142 134.805 140.972 135.211 140.63 135.552C140.332 135.851 139.948 136 139.478 136H128.854ZM175.789 136.64C171.821 136.64 168.322 136.021 165.293 134.784C162.306 133.547 159.959 131.627 158.253 129.024C156.589 126.379 155.757 123.051 155.757 119.04V92.864C155.757 92.3947 155.927 92.0107 156.269 91.712C156.61 91.3707 156.994 91.2 157.421 91.2H167.853C168.322 91.2 168.706 91.3707 169.005 91.712C169.346 92.0107 169.517 92.3947 169.517 92.864V118.848C169.517 121.024 170.05 122.667 171.117 123.776C172.183 124.885 173.719 125.44 175.725 125.44C177.73 125.44 179.245 124.885 180.269 123.776C181.335 122.667 181.869 121.024 181.869 118.848V92.864C181.869 92.3947 182.039 92.0107 182.381 91.712C182.722 91.3707 183.127 91.2 183.597 91.2H193.965C194.434 91.2 194.818 91.3707 195.117 91.712C195.458 92.0107 195.629 92.3947 195.629 92.864V119.04C195.629 123.051 194.797 126.379 193.133 129.024C191.469 131.627 189.143 133.547 186.157 134.784C183.17 136.021 179.714 136.64 175.789 136.64ZM202.049 136C201.623 136 201.239 135.851 200.897 135.552C200.556 135.211 200.385 134.805 200.385 134.336V92.864C200.385 92.3947 200.556 92.0107 200.897 91.712C201.239 91.3707 201.623 91.2 202.049 91.2H220.289C226.092 91.2 230.636 92.5227 233.921 95.168C237.249 97.8133 238.913 101.504 238.913 106.24C238.913 109.227 238.231 111.765 236.865 113.856C235.5 115.947 233.708 117.589 231.489 118.784L239.809 133.888C239.937 134.144 240.001 134.379 240.001 134.592C240.001 134.976 239.873 135.317 239.617 135.616C239.361 135.872 239.041 136 238.657 136H227.841C227.031 136 226.412 135.808 225.985 135.424C225.559 134.997 225.281 134.613 225.153 134.272L218.753 121.088H214.145V134.336C214.145 134.805 213.975 135.211 213.633 135.552C213.335 135.851 212.951 136 212.481 136H202.049ZM214.145 110.528H220.225C221.719 110.528 222.828 110.123 223.553 109.312C224.279 108.459 224.641 107.413 224.641 106.176C224.641 104.896 224.279 103.808 223.553 102.912C222.871 102.016 221.761 101.568 220.225 101.568H214.145V110.528ZM244.42 136C243.993 136 243.609 135.851 243.268 135.552C242.926 135.211 242.756 134.805 242.756 134.336V92.864C242.756 92.3947 242.926 92.0107 243.268 91.712C243.609 91.3707 243.993 91.2 244.42 91.2H252.932C253.7 91.2 254.254 91.3707 254.596 91.712C254.937 92.0533 255.172 92.3307 255.3 92.544L268.484 113.728V92.864C268.484 92.3947 268.654 92.0107 268.996 91.712C269.337 91.3707 269.742 91.2 270.212 91.2H279.812C280.281 91.2 280.665 91.3707 280.964 91.712C281.305 92.0107 281.476 92.3947 281.476 92.864V134.336C281.476 134.805 281.305 135.211 280.964 135.552C280.665 135.851 280.281 136 279.812 136H271.364C270.596 136 270.02 135.829 269.636 135.488C269.294 135.104 269.06 134.827 268.932 134.656L255.748 114.624V134.336C255.748 134.805 255.577 135.211 255.236 135.552C254.937 135.851 254.553 136 254.084 136H244.42ZM304.354 136.64C299.874 136.64 296.14 136.021 293.154 134.784C290.21 133.504 287.991 131.861 286.498 129.856C285.047 127.808 284.279 125.653 284.194 123.392C284.194 123.008 284.322 122.688 284.578 122.432C284.834 122.176 285.154 122.048 285.538 122.048H295.714C296.311 122.048 296.78 122.155 297.122 122.368C297.463 122.539 297.826 122.795 298.21 123.136C298.594 123.605 299.042 124.053 299.554 124.48C300.066 124.864 300.727 125.184 301.538 125.44C302.348 125.653 303.287 125.76 304.354 125.76C306.316 125.76 307.831 125.504 308.898 124.992C309.964 124.437 310.498 123.691 310.498 122.752C310.498 122.027 310.199 121.429 309.602 120.96C309.047 120.491 308.087 120.064 306.722 119.68C305.356 119.296 303.5 118.891 301.154 118.464C297.868 117.909 295.031 117.099 292.642 116.032C290.252 114.923 288.418 113.451 287.138 111.616C285.9 109.739 285.282 107.435 285.282 104.704C285.282 101.931 286.05 99.4773 287.586 97.344C289.164 95.2107 291.34 93.5467 294.114 92.352C296.93 91.1573 300.194 90.56 303.906 90.56C306.978 90.56 309.687 90.9653 312.034 91.776C314.423 92.5867 316.428 93.6533 318.05 94.976C319.671 96.256 320.908 97.6427 321.762 99.136C322.615 100.629 323.063 102.059 323.106 103.424C323.106 103.808 322.956 104.149 322.658 104.448C322.402 104.704 322.103 104.832 321.762 104.832H311.074C310.562 104.832 310.135 104.747 309.794 104.576C309.452 104.405 309.111 104.128 308.77 103.744C308.556 103.147 308.023 102.613 307.17 102.144C306.316 101.675 305.228 101.44 303.906 101.44C302.455 101.44 301.346 101.696 300.578 102.208C299.81 102.677 299.426 103.381 299.426 104.32C299.426 104.96 299.66 105.515 300.13 105.984C300.599 106.453 301.431 106.88 302.626 107.264C303.82 107.605 305.484 107.989 307.618 108.416C311.671 109.013 314.935 109.867 317.41 110.976C319.927 112.085 321.762 113.536 322.914 115.328C324.066 117.12 324.642 119.36 324.642 122.048C324.642 125.077 323.767 127.68 322.018 129.856C320.268 132.032 317.858 133.717 314.786 134.912C311.756 136.064 308.279 136.64 304.354 136.64Z" fill="url(#paint0_linear_13_32676)" fill-opacity="0.4"/>
</g>
</mask>
<g mask="url(#mask0_13_32676)">
<g filter="url(#filter0_b_13_32676)">
<rect width="280" height="298.851" rx="32" fill="#FFFDFD"/>
<rect x="0.5" y="0.5" width="279" height="297.851" rx="31.5" stroke="url(#paint1_radial_13_32676)" stroke-opacity="0.1"/>
</g>
<g filter="url(#filter1_f_13_32676)">
<path d="M505 32.184L0 32.1839L1.67502e-06 10.161C3.0192e-06 -7.51215 14.3269 -21.839 32 -21.839L473 -21.839C490.673 -21.839 505 -7.51209 505 10.161L505 32.184Z" fill="black"/>
</g>
<g filter="url(#filter2_f_13_32676)">
<path d="M0 144.828H280V312.828C280 330.501 265.673 344.828 248 344.828H32C14.3269 344.828 0 330.501 0 312.828V144.828Z" fill="black"/>
</g>
</g>
</g>
<defs>
<filter id="filter0_b_13_32676" x="-60" y="-60" width="400" height="418.851" filterUnits="userSpaceOnUse" color-interpolation-filters="sRGB">
<feFlood flood-opacity="0" result="BackgroundImageFix"/>
<feGaussianBlur in="BackgroundImageFix" stdDeviation="30"/>
<feComposite in2="SourceAlpha" operator="in" result="effect1_backgroundBlur_13_32676"/>
<feBlend mode="normal" in="SourceGraphic" in2="effect1_backgroundBlur_13_32676" result="shape"/>
</filter>
<filter id="filter1_f_13_32676" x="-48" y="-69.839" width="601" height="150.023" filterUnits="userSpaceOnUse" color-interpolation-filters="sRGB">
<feFlood flood-opacity="0" result="BackgroundImageFix"/>
<feBlend mode="normal" in="SourceGraphic" in2="BackgroundImageFix" result="shape"/>
<feGaussianBlur stdDeviation="24" result="effect1_foregroundBlur_13_32676"/>
</filter>
<filter id="filter2_f_13_32676" x="-48" y="96.8276" width="376" height="296" filterUnits="userSpaceOnUse" color-interpolation-filters="sRGB">
<feFlood flood-opacity="0" result="BackgroundImageFix"/>
<feBlend mode="normal" in="SourceGraphic" in2="BackgroundImageFix" result="shape"/>
<feGaussianBlur stdDeviation="24" result="effect1_foregroundBlur_13_32676"/>
</filter>
<linearGradient id="paint0_linear_13_32676" x1="179.5" y1="27" x2="179.5" y2="143" gradientUnits="userSpaceOnUse">
<stop stop-color="#D9D9D9"/>
<stop offset="1" stop-color="#D9D9D9" stop-opacity="0"/>
</linearGradient>
<radialGradient id="paint1_radial_13_32676" cx="0" cy="0" r="1" gradientUnits="userSpaceOnUse" gradientTransform="translate(135.466 182.211) rotate(-140.629) scale(183.877 606.692)">
<stop stop-color="#9D9D9D"/>
<stop offset="1" stop-color="#AEAEAE" stop-opacity="0"/>
</radialGradient>
<clipPath id="clip0_13_32676">
<rect width="280" height="300" fill="white"/>
</clipPath>
</defs>
</svg>
