<svg width="24" height="24" viewBox="0 0 24 24" fill="none" xmlns="http://www.w3.org/2000/svg">
<path d="M15.75 11.75H15.375V9.875C15.375 8.02344 13.8516 6.5 12 6.5C10.125 6.5 8.625 8.02344 8.625 9.875V11.75H8.25C7.40625 11.75 6.75 12.4297 6.75 13.25V17C6.75 17.8438 7.40625 18.5 8.25 18.5H15.75C16.5703 18.5 17.25 17.8438 17.25 17V13.25C17.25 12.4297 16.5703 11.75 15.75 11.75ZM10.125 9.875C10.125 8.84375 10.9453 8 12 8C13.0312 8 13.875 8.84375 13.875 9.875V11.75H10.125V9.875Z" fill="white"/>
</svg>
