<svg width="24" height="24" viewBox="0 0 24 24" fill="none" xmlns="http://www.w3.org/2000/svg">
<path d="M6 16.0156V17C6 17.8438 7.99219 18.5 10.5 18.5C12.9609 18.5 15 17.8438 15 17V16.0156C14.0156 16.6953 12.2578 17 10.5 17C8.71875 17 6.96094 16.6953 6 16.0156ZM13.5 9.5C15.9609 9.5 18 8.84375 18 8C18 7.17969 15.9609 6.5 13.5 6.5C10.9922 6.5 9 7.17969 9 8C9 8.84375 10.9922 9.5 13.5 9.5ZM6 13.5547V14.75C6 15.5938 7.99219 16.25 10.5 16.25C12.9609 16.25 15 15.5938 15 14.75V13.5547C14.0156 14.3516 12.2578 14.75 10.5 14.75C8.71875 14.75 6.96094 14.3516 6 13.5547ZM15.75 13.8125C17.0859 13.5547 18 13.0625 18 12.5V11.5156C17.4375 11.8906 16.6406 12.1484 15.75 12.3125V13.8125ZM10.5 10.25C7.99219 10.25 6 11.0938 6 12.125C6 13.1797 7.99219 14 10.5 14C12.9609 14 15 13.1797 15 12.125C15 11.0938 12.9609 10.25 10.5 10.25ZM15.6328 11.5859C17.0391 11.3281 18 10.8359 18 10.25V9.26562C17.1562 9.85156 15.7266 10.1562 14.2266 10.25C14.9062 10.5781 15.4219 11.0234 15.6328 11.5859Z" fill="white"/>
</svg>
