<svg width="24" height="24" viewBox="0 0 24 24" fill="none" xmlns="http://www.w3.org/2000/svg">
<path d="M13.5 6.5V9.5H16.5L13.5 6.5ZM12.75 9.5V6.5H8.625C7.99219 6.5 7.5 7.01562 7.5 7.625V17.375C7.5 18.0078 7.99219 18.5 8.625 18.5H15.375C15.9844 18.5 16.5 18.0078 16.5 17.375V10.25H13.5C13.0781 10.25 12.75 9.92188 12.75 9.5ZM13.875 16.25H10.125C9.91406 16.25 9.75 16.0859 9.75 15.875C9.75 15.6875 9.91406 15.5 10.125 15.5H13.875C14.0625 15.5 14.25 15.6875 14.25 15.875C14.25 16.0859 14.0625 16.25 13.875 16.25ZM13.875 14.75H10.125C9.91406 14.75 9.75 14.5859 9.75 14.375C9.75 14.1875 9.91406 14 10.125 14H13.875C14.0625 14 14.25 14.1875 14.25 14.375C14.25 14.5859 14.0625 14.75 13.875 14.75ZM14.25 12.875C14.25 13.0859 14.0625 13.25 13.875 13.25H10.125C9.91406 13.25 9.75 13.0859 9.75 12.875C9.75 12.6875 9.91406 12.5 10.125 12.5H13.875C14.0625 12.5 14.25 12.6875 14.25 12.875Z" fill="white"/>
</svg>
