<svg width="880" height="474" viewBox="0 0 880 474" fill="none" xmlns="http://www.w3.org/2000/svg">
<g filter="url(#filter0_bii_9_10721)">
<mask id="path-1-inside-1_9_10721" fill="white">
<path fill-rule="evenodd" clip-rule="evenodd" d="M395 72C384.713 72 375.526 76.7066 369.474 84.0839C361.804 81.4373 353.57 80 345 80C312.001 80 283.979 101.312 273.948 130.923C268.502 129.665 262.829 129 257 129C236.786 129 218.439 136.997 204.952 150H162C122.935 150 103.402 150 87.4271 154.505C47.2433 165.838 15.8384 197.243 4.50537 237.427C0 253.402 0 272.935 0 312C0 351.065 0 370.598 4.50537 386.573C15.8384 426.757 47.2433 458.162 87.4271 469.495C103.402 474 122.935 474 162 474H718C757.065 474 776.598 474 792.573 469.495C832.757 458.162 864.162 426.757 875.495 386.573C880 370.598 880 351.065 880 312C880 272.935 880 253.402 875.495 237.427C864.162 197.243 832.757 165.838 792.573 154.505C776.598 150 757.065 150 718 150H681.256C665.849 129.362 641.235 116 613.5 116C607.802 116 602.236 116.564 596.854 117.639C583.642 96.2518 559.985 82 533 82C522.142 82 511.824 84.3072 502.508 88.458C500.432 79.0435 492.038 72 482 72C475.779 72 470.189 74.7054 466.344 79.004C450.688 56.049 439.5 29.2151 439.5 0C439.5 28.6623 428.732 55.0325 413.54 77.6966C408.256 74.1013 401.873 72 395 72Z"/>
</mask>
<path fill-rule="evenodd" clip-rule="evenodd" d="M395 72C384.713 72 375.526 76.7066 369.474 84.0839C361.804 81.4373 353.57 80 345 80C312.001 80 283.979 101.312 273.948 130.923C268.502 129.665 262.829 129 257 129C236.786 129 218.439 136.997 204.952 150H162C122.935 150 103.402 150 87.4271 154.505C47.2433 165.838 15.8384 197.243 4.50537 237.427C0 253.402 0 272.935 0 312C0 351.065 0 370.598 4.50537 386.573C15.8384 426.757 47.2433 458.162 87.4271 469.495C103.402 474 122.935 474 162 474H718C757.065 474 776.598 474 792.573 469.495C832.757 458.162 864.162 426.757 875.495 386.573C880 370.598 880 351.065 880 312C880 272.935 880 253.402 875.495 237.427C864.162 197.243 832.757 165.838 792.573 154.505C776.598 150 757.065 150 718 150H681.256C665.849 129.362 641.235 116 613.5 116C607.802 116 602.236 116.564 596.854 117.639C583.642 96.2518 559.985 82 533 82C522.142 82 511.824 84.3072 502.508 88.458C500.432 79.0435 492.038 72 482 72C475.779 72 470.189 74.7054 466.344 79.004C450.688 56.049 439.5 29.2151 439.5 0C439.5 28.6623 428.732 55.0325 413.54 77.6966C408.256 74.1013 401.873 72 395 72Z" fill="black" fill-opacity="0.1"/>
<path d="M369.474 84.0839L369.148 85.0292L369.806 85.2562L370.247 84.7182L369.474 84.0839ZM273.948 130.923L273.723 131.897L274.605 132.101L274.895 131.244L273.948 130.923ZM204.952 150V151H205.355L205.646 150.72L204.952 150ZM87.4271 154.505L87.6986 155.468L87.4271 154.505ZM4.50537 237.427L3.54292 237.156L4.50537 237.427ZM4.50537 386.573L5.46783 386.301L4.50537 386.573ZM87.4271 469.495L87.1557 470.457L87.4271 469.495ZM792.573 469.495L792.844 470.457L792.573 469.495ZM875.495 386.573L874.532 386.301L875.495 386.573ZM875.495 237.427L874.532 237.699L875.495 237.427ZM792.573 154.505L792.844 153.543L792.573 154.505ZM681.256 150L680.455 150.598L680.755 151H681.256V150ZM596.854 117.639L596.003 118.165L596.368 118.756L597.05 118.62L596.854 117.639ZM502.508 88.458L501.531 88.6733L501.795 89.8702L502.914 89.3714L502.508 88.458ZM466.344 79.004L465.518 79.5674L466.237 80.6228L467.089 79.6707L466.344 79.004ZM413.54 77.6966L412.978 78.5234L413.81 79.0898L414.371 78.2534L413.54 77.6966ZM370.247 84.7182C376.117 77.5625 385.025 73 395 73V71C384.401 71 374.935 75.8508 368.701 83.4497L370.247 84.7182ZM345 81C353.457 81 361.581 82.4183 369.148 85.0292L369.8 83.1386C362.026 80.4562 353.682 79 345 79V81ZM274.895 131.244C284.793 102.027 312.442 81 345 81V79C311.559 79 283.165 100.598 273.001 130.602L274.895 131.244ZM257 130C262.752 130 268.35 130.656 273.723 131.897L274.173 129.949C268.654 128.674 262.905 128 257 128V130ZM205.646 150.72C218.954 137.889 237.055 130 257 130V128C236.517 128 217.924 136.105 204.258 149.28L205.646 150.72ZM162 151H204.952V149H162V151ZM87.6986 155.468C103.507 151.009 122.867 151 162 151V149C123.002 149 103.297 148.991 87.1557 153.543L87.6986 155.468ZM5.46783 237.699C16.7064 197.85 47.8496 166.706 87.6986 155.468L87.1557 153.543C46.637 164.97 14.9704 196.637 3.54292 237.156L5.46783 237.699ZM1 312C1 272.867 1.00946 253.507 5.46783 237.699L3.54292 237.156C-1.00946 253.297 -1 273.002 -1 312H1ZM5.46783 386.301C1.00946 370.493 1 351.133 1 312H-1C-1 350.998 -1.00946 370.703 3.54292 386.844L5.46783 386.301ZM87.6986 468.532C47.8496 457.294 16.7064 426.15 5.46783 386.301L3.54292 386.844C14.9704 427.363 46.637 459.03 87.1557 470.457L87.6986 468.532ZM162 473C122.867 473 103.507 472.991 87.6986 468.532L87.1557 470.457C103.297 475.009 123.002 475 162 475V473ZM718 473H162V475H718V473ZM792.301 468.532C776.493 472.991 757.133 473 718 473V475C756.998 475 776.703 475.009 792.844 470.457L792.301 468.532ZM874.532 386.301C863.294 426.15 832.15 457.294 792.301 468.532L792.844 470.457C833.363 459.03 865.03 427.363 876.457 386.844L874.532 386.301ZM879 312C879 351.133 878.991 370.493 874.532 386.301L876.457 386.844C881.009 370.703 881 350.998 881 312H879ZM874.532 237.699C878.991 253.507 879 272.867 879 312H881C881 273.002 881.009 253.297 876.457 237.156L874.532 237.699ZM792.301 155.468C832.15 166.706 863.294 197.85 874.532 237.699L876.457 237.156C865.03 196.637 833.363 164.97 792.844 153.543L792.301 155.468ZM718 151C757.133 151 776.493 151.009 792.301 155.468L792.844 153.543C776.703 148.991 756.998 149 718 149V151ZM681.256 151H718V149H681.256V151ZM613.5 117C640.906 117 665.228 130.202 680.455 150.598L682.057 149.402C666.47 128.522 641.564 115 613.5 115V117ZM597.05 118.62C602.367 117.557 607.868 117 613.5 117V115C607.736 115 602.104 115.571 596.658 116.659L597.05 118.62ZM533 83C559.624 83 582.966 97.0599 596.003 118.165L597.704 117.114C584.318 95.4437 560.346 81 533 81V83ZM502.914 89.3714C512.105 85.2766 522.285 83 533 83V81C522 81 511.542 83.3378 502.101 87.5445L502.914 89.3714ZM482 73C491.559 73 499.554 79.7073 501.531 88.6733L503.484 88.2426C501.309 78.3796 492.518 71 482 71V73ZM467.089 79.6707C470.753 75.5752 476.075 73 482 73V71C475.482 71 469.625 73.8356 465.598 78.3372L467.089 79.6707ZM438.5 0C438.5 29.4752 449.787 56.5029 465.518 79.5674L467.17 78.4405C451.589 55.5951 440.5 28.9551 440.5 0H438.5ZM414.371 78.2534C429.636 55.4793 440.5 28.9175 440.5 0H438.5C438.5 28.4071 427.827 54.5858 412.71 77.1399L414.371 78.2534ZM395 73C401.666 73 407.854 75.0374 412.978 78.5234L414.103 76.8698C408.658 73.1653 402.08 71 395 71V73Z" fill="url(#paint0_linear_9_10721)" fill-opacity="0.1" mask="url(#path-1-inside-1_9_10721)"/>
</g>
<defs>
<filter id="filter0_bii_9_10721" x="-257" y="-257" width="1394" height="988" filterUnits="userSpaceOnUse" color-interpolation-filters="sRGB">
<feFlood flood-opacity="0" result="BackgroundImageFix"/>
<feGaussianBlur in="BackgroundImageFix" stdDeviation="128.5"/>
<feComposite in2="SourceAlpha" operator="in" result="effect1_backgroundBlur_9_10721"/>
<feBlend mode="normal" in="SourceGraphic" in2="effect1_backgroundBlur_9_10721" result="shape"/>
<feColorMatrix in="SourceAlpha" type="matrix" values="0 0 0 0 0 0 0 0 0 0 0 0 0 0 0 0 0 0 127 0" result="hardAlpha"/>
<feOffset dx="-10" dy="-10"/>
<feGaussianBlur stdDeviation="28"/>
<feComposite in2="hardAlpha" operator="arithmetic" k2="-1" k3="1"/>
<feColorMatrix type="matrix" values="0 0 0 0 1 0 0 0 0 1 0 0 0 0 1 0 0 0 0.05 0"/>
<feBlend mode="normal" in2="shape" result="effect2_innerShadow_9_10721"/>
<feColorMatrix in="SourceAlpha" type="matrix" values="0 0 0 0 0 0 0 0 0 0 0 0 0 0 0 0 0 0 127 0" result="hardAlpha"/>
<feOffset dx="8" dy="10"/>
<feGaussianBlur stdDeviation="23"/>
<feComposite in2="hardAlpha" operator="arithmetic" k2="-1" k3="1"/>
<feColorMatrix type="matrix" values="0 0 0 0 1 0 0 0 0 1 0 0 0 0 1 0 0 0 0.05 0"/>
<feBlend mode="normal" in2="effect2_innerShadow_9_10721" result="effect3_innerShadow_9_10721"/>
</filter>
<linearGradient id="paint0_linear_9_10721" x1="872.499" y1="474" x2="-21.0014" y2="104.001" gradientUnits="userSpaceOnUse">
<stop stop-color="#9D9D9D"/>
<stop offset="1" stop-color="#AEAEAE" stop-opacity="0"/>
</linearGradient>
</defs>
</svg>
