<svg width="390" height="662" viewBox="0 0 390 662" fill="none" xmlns="http://www.w3.org/2000/svg">
<g filter="url(#filter0_bii_216_14399)">
<mask id="path-1-inside-1_216_14399" fill="white">
<path fill-rule="evenodd" clip-rule="evenodd" d="M194.5 0C194.5 28.6623 183.731 55.0325 168.54 77.6966C163.256 74.1013 156.873 72 150 72C131.775 72 117 86.7746 117 105C117 107.599 117.3 110.128 117.869 112.554C112.737 111.534 107.431 111 102 111C57.2649 111 21 147.265 21 192C21 199.207 21.9411 206.193 23.7071 212.844C-27.5367 227.691 -65 274.97 -65 331C-65 372.193 -44.7501 408.657 -13.6619 430.979C-33.1495 452.743 -45 481.488 -45 513C-45 580.931 10.069 636 78 636C99.5482 636 119.802 630.459 137.415 620.724C152.98 645.518 180.565 662 212 662C254.025 662 289.169 632.542 297.911 593.149C318.197 604.518 341.591 611 366.5 611C444.096 611 507 548.096 507 470.5C507 401.838 457.747 344.68 392.644 332.428C398.625 320.752 402 307.52 402 293.5C402 263.038 386.069 236.297 362.085 221.153C364.629 213.055 366 204.437 366 195.5C366 148.292 327.74 110.02 280.537 110C280.841 108.212 281 106.375 281 104.5C281 86.5507 266.449 72 248.5 72C238.799 72 230.09 76.2507 224.135 82.9913C207.035 59.1795 194.5 30.9238 194.5 0ZM172.129 151.439C173.386 151.28 174.648 151.133 175.913 151H171.872C171.958 151.146 172.043 151.293 172.129 151.439Z"/>
</mask>
<path fill-rule="evenodd" clip-rule="evenodd" d="M194.5 0C194.5 28.6623 183.731 55.0325 168.54 77.6966C163.256 74.1013 156.873 72 150 72C131.775 72 117 86.7746 117 105C117 107.599 117.3 110.128 117.869 112.554C112.737 111.534 107.431 111 102 111C57.2649 111 21 147.265 21 192C21 199.207 21.9411 206.193 23.7071 212.844C-27.5367 227.691 -65 274.97 -65 331C-65 372.193 -44.7501 408.657 -13.6619 430.979C-33.1495 452.743 -45 481.488 -45 513C-45 580.931 10.069 636 78 636C99.5482 636 119.802 630.459 137.415 620.724C152.98 645.518 180.565 662 212 662C254.025 662 289.169 632.542 297.911 593.149C318.197 604.518 341.591 611 366.5 611C444.096 611 507 548.096 507 470.5C507 401.838 457.747 344.68 392.644 332.428C398.625 320.752 402 307.52 402 293.5C402 263.038 386.069 236.297 362.085 221.153C364.629 213.055 366 204.437 366 195.5C366 148.292 327.74 110.02 280.537 110C280.841 108.212 281 106.375 281 104.5C281 86.5507 266.449 72 248.5 72C238.799 72 230.09 76.2507 224.135 82.9913C207.035 59.1795 194.5 30.9238 194.5 0ZM172.129 151.439C173.386 151.28 174.648 151.133 175.913 151H171.872C171.958 151.146 172.043 151.293 172.129 151.439Z" fill="black" fill-opacity="0.1"/>
<path d="M168.54 77.6966L167.978 78.5234L168.81 79.0898L169.371 78.2534L168.54 77.6966ZM117.869 112.554L117.674 113.535L119.196 113.837L118.842 112.326L117.869 112.554ZM23.7071 212.844L23.9854 213.804L24.9246 213.532L24.6737 212.587L23.7071 212.844ZM-13.6619 430.979L-12.9169 431.646L-12.1739 430.817L-13.0786 430.167L-13.6619 430.979ZM137.415 620.724L138.262 620.192L137.759 619.391L136.931 619.849L137.415 620.724ZM297.911 593.149L298.399 592.277L297.226 591.619L296.934 592.933L297.911 593.149ZM392.644 332.428L391.754 331.972L391.144 333.163L392.459 333.411L392.644 332.428ZM362.085 221.153L361.131 220.853L360.9 221.587L361.551 221.998L362.085 221.153ZM280.537 110L279.551 109.832L279.352 111L280.536 111L280.537 110ZM224.135 82.9913L223.323 83.5746L224.054 84.5932L224.884 83.6534L224.135 82.9913ZM175.913 151L176.018 151.994L175.913 150V151ZM172.129 151.439L171.263 151.941L171.596 152.515L172.254 152.431L172.129 151.439ZM171.872 151V150H170.124L171.01 151.507L171.872 151ZM169.371 78.2534C184.636 55.4793 195.5 28.9175 195.5 0H193.5C193.5 28.4071 182.827 54.5858 167.71 77.1399L169.371 78.2534ZM150 73C156.666 73 162.854 75.0374 167.978 78.5234L169.103 76.8698C163.658 73.1653 157.08 71 150 71V73ZM118 105C118 87.3269 132.327 73 150 73V71C131.222 71 116 86.2223 116 105H118ZM118.842 112.326C118.292 109.974 118 107.522 118 105H116C116 107.676 116.309 110.282 116.895 112.782L118.842 112.326ZM102 112C107.365 112 112.606 112.528 117.674 113.535L118.063 111.573C112.868 110.541 107.497 110 102 110V112ZM22 192C22 147.817 57.8172 112 102 112V110C56.7127 110 20 146.713 20 192H22ZM24.6737 212.587C22.9296 206.02 22 199.119 22 192H20C20 199.294 20.9526 206.367 22.7406 213.101L24.6737 212.587ZM-64 331C-64 275.427 -26.8424 228.531 23.9854 213.804L23.4289 211.883C-28.231 226.851 -66 274.513 -66 331H-64ZM-13.0786 430.167C-43.9165 408.024 -64 371.858 -64 331H-66C-66 372.529 -45.5838 409.289 -14.2451 431.792L-13.0786 430.167ZM-44 513C-44 481.743 -32.2467 453.234 -12.9169 431.646L-14.4069 430.312C-34.0523 452.252 -46 481.232 -46 513H-44ZM78 635C10.6213 635 -44 580.379 -44 513H-46C-46 581.483 9.51669 637 78 637V635ZM136.931 619.849C119.463 629.504 99.3748 635 78 635V637C99.7217 637 120.142 631.414 137.899 621.599L136.931 619.849ZM212 661C180.923 661 153.652 644.707 138.262 620.192L136.568 621.256C152.308 646.329 180.207 663 212 663V661ZM296.934 592.933C288.292 631.878 253.546 661 212 661V663C254.503 663 290.046 633.207 298.887 593.366L296.934 592.933ZM366.5 610C341.767 610 318.54 603.564 298.399 592.277L297.422 594.022C317.853 605.472 341.416 612 366.5 612V610ZM506 470.5C506 547.544 443.544 610 366.5 610V612C444.648 612 508 548.648 508 470.5H506ZM392.459 333.411C457.098 345.575 506 402.328 506 470.5H508C508 401.348 458.396 343.784 392.829 331.445L392.459 333.411ZM401 293.5C401 307.358 397.665 320.434 391.754 331.972L393.534 332.884C399.586 321.07 403 307.682 403 293.5H401ZM361.551 221.998C385.258 236.967 401 263.395 401 293.5H403C403 262.681 386.881 235.626 362.619 220.307L361.551 221.998ZM365 195.5C365 204.335 363.645 212.851 361.131 220.853L363.039 221.452C365.613 213.258 367 204.54 367 195.5H365ZM280.536 111C327.188 111.02 365 148.844 365 195.5H367C367 147.74 328.293 109.02 280.537 109L280.536 111ZM280 104.5C280 106.318 279.846 108.099 279.551 109.832L281.522 110.168C281.836 108.325 282 106.431 282 104.5H280ZM248.5 73C265.897 73 280 87.103 280 104.5H282C282 85.9985 267.002 71 248.5 71V73ZM224.884 83.6534C230.658 77.1186 239.097 73 248.5 73V71C238.5 71 229.522 75.3829 223.386 82.3293L224.884 83.6534ZM193.5 0C193.5 31.1987 206.145 59.6553 223.323 83.5746L224.947 82.408C207.924 58.7037 195.5 30.6488 195.5 0H193.5ZM175.808 150.006C174.536 150.14 173.267 150.287 172.003 150.447L172.254 152.431C173.505 152.273 174.759 152.127 176.018 151.994L175.808 150.006ZM171.872 152H175.913V150H171.872V152ZM172.994 150.938C172.908 150.789 172.821 150.641 172.734 150.493L171.01 151.507C171.095 151.651 171.179 151.796 171.263 151.941L172.994 150.938Z" fill="url(#paint0_linear_216_14399)" fill-opacity="0.1" mask="url(#path-1-inside-1_216_14399)"/>
</g>
<defs>
<filter id="filter0_bii_216_14399" x="-322" y="-257" width="1086" height="1176" filterUnits="userSpaceOnUse" color-interpolation-filters="sRGB">
<feFlood flood-opacity="0" result="BackgroundImageFix"/>
<feGaussianBlur in="BackgroundImageFix" stdDeviation="128.5"/>
<feComposite in2="SourceAlpha" operator="in" result="effect1_backgroundBlur_216_14399"/>
<feBlend mode="normal" in="SourceGraphic" in2="effect1_backgroundBlur_216_14399" result="shape"/>
<feColorMatrix in="SourceAlpha" type="matrix" values="0 0 0 0 0 0 0 0 0 0 0 0 0 0 0 0 0 0 127 0" result="hardAlpha"/>
<feOffset dx="-10" dy="-10"/>
<feGaussianBlur stdDeviation="28"/>
<feComposite in2="hardAlpha" operator="arithmetic" k2="-1" k3="1"/>
<feColorMatrix type="matrix" values="0 0 0 0 1 0 0 0 0 1 0 0 0 0 1 0 0 0 0.05 0"/>
<feBlend mode="normal" in2="shape" result="effect2_innerShadow_216_14399"/>
<feColorMatrix in="SourceAlpha" type="matrix" values="0 0 0 0 0 0 0 0 0 0 0 0 0 0 0 0 0 0 127 0" result="hardAlpha"/>
<feOffset dx="8" dy="10"/>
<feGaussianBlur stdDeviation="23"/>
<feComposite in2="hardAlpha" operator="arithmetic" k2="-1" k3="1"/>
<feColorMatrix type="matrix" values="0 0 0 0 1 0 0 0 0 1 0 0 0 0 1 0 0 0 0.05 0"/>
<feBlend mode="normal" in2="effect2_innerShadow_216_14399" result="effect3_innerShadow_216_14399"/>
</filter>
<linearGradient id="paint0_linear_216_14399" x1="456.104" y1="474.001" x2="-138.035" y2="325.639" gradientUnits="userSpaceOnUse">
<stop stop-color="#9D9D9D"/>
<stop offset="1" stop-color="#AEAEAE" stop-opacity="0"/>
</linearGradient>
</defs>
</svg>
