<svg width="135" height="32" viewBox="0 0 135 32" fill="none" xmlns="http://www.w3.org/2000/svg">
<path d="M18.6416 3.2594e-06C20.557 3.27903 22.4724 6.52127 24.3168 9.8003C21.2953 15.1419 18.2737 20.5228 15.1419 25.8276C13.9254 27.8533 12.7824 29.9185 11.5686 31.9442C7.70098 31.981 3.83078 31.981 -5.58531e-06 31.9442C0.110346 31.6868 0.220698 31.4293 0.367834 31.1718C6.48186 20.7803 12.5985 10.4283 18.6416 3.2594e-06ZM102.651 8.03206C104.787 12.0126 106.926 15.9905 109.062 19.9711C108.326 19.9711 107.551 19.9343 106.815 19.9711C106.3 19.0856 105.856 18.166 105.378 17.2806C103.5 17.207 101.584 17.2806 99.7029 17.2438C99.2615 18.166 98.7439 19.0489 98.2657 19.9343L96.0561 19.9343C98.1922 15.9537 100.365 11.9758 102.651 8.03206ZM100.623 15.5859C101.913 15.5859 103.203 15.5859 104.49 15.6227C103.828 14.4062 103.274 13.1897 102.575 12.0126C101.895 13.1876 101.244 14.379 100.623 15.5859ZM110.276 7.99527C113.481 10.7961 116.723 13.597 119.892 16.4319C119.966 13.8518 119.892 11.3111 119.966 8.73096C120.665 8.73096 121.329 8.76774 122.028 8.76774C121.991 12.7115 122.028 16.6894 122.028 20.6332C119.929 18.8649 117.864 17.0231 115.801 15.2181C114.621 14.2223 113.481 13.2291 112.375 12.1597C112.338 14.7767 112.375 17.3542 112.338 19.9711L110.276 19.9711C110.276 15.9538 110.239 11.9758 110.276 7.99527ZM42.1859 19.9343C44.3956 15.9537 46.5711 11.939 48.8544 7.99526C50.9905 11.9758 53.0924 15.9537 55.2653 19.9343L52.982 19.9343C52.5055 19.0488 52.0508 18.1517 51.6184 17.2438C49.703 17.207 47.8244 17.2438 45.9064 17.2438C45.4282 18.1292 44.9474 19.0488 44.4324 19.9343C43.6599 19.9711 42.9216 19.9711 42.1859 19.9343ZM46.8286 15.5859L50.733 15.5859C50.0709 14.3694 49.5165 13.1529 48.8176 11.9758C48.1187 13.1897 47.4907 14.3694 46.8286 15.5859ZM73.8727 9.06463C74.9789 8.51287 76.2321 8.47609 77.4092 8.69679C78.4418 8.91749 79.2511 9.6558 79.879 10.4283C79.3273 10.7225 78.7729 10.98 78.2211 11.2769C77.4854 10.134 75.7513 9.76615 74.6846 10.6516C74.1328 11.0562 74.1696 12.052 74.7949 12.3463C76.2321 13.1187 77.9636 13.3053 79.2169 14.372C80.507 15.4782 80.4702 17.6511 79.2537 18.794C77.9636 20.0841 75.9379 20.3783 74.2432 19.9001C72.806 19.5323 71.7366 18.2422 71.5527 16.805C72.2516 16.6579 72.9531 16.5475 73.652 16.4372C73.7256 17.0993 73.9831 17.8744 74.6478 18.2054C75.6436 18.7572 77.1176 18.6101 77.8165 17.6169C78.2947 16.9548 78.1475 15.9222 77.4854 15.444C76.085 14.5218 74.2432 14.4482 72.9531 13.2711C72.291 12.7194 72.0309 11.7604 72.2542 10.9117C72.4355 10.0578 73.137 9.43247 73.8727 9.06463ZM55.93 8.80714C56.7025 8.69679 57.5144 8.73357 58.2894 8.73357C59.1381 9.98685 59.9841 11.2401 60.796 12.4908C61.6815 11.2375 62.5275 9.98423 63.4129 8.77036C64.2248 8.73357 65.034 8.73357 65.8459 8.77036C64.5559 10.5386 63.2658 12.3069 62.0151 14.1119C63.3052 16.1009 64.7424 17.9795 66.0325 20.0079L63.7124 20.0079C62.7167 18.6074 61.7603 17.1702 60.8013 15.7698C59.8055 17.1702 58.7755 18.5707 57.7797 20.0079L55.4597 20.0079C56.8233 18.0189 58.2238 16.1035 59.661 14.1487C58.3972 12.3437 57.1465 10.5754 55.93 8.80714ZM67.7561 8.76773C68.4431 8.73094 69.1316 8.73094 69.8186 8.76773L69.8186 19.9684L67.7193 19.9684C67.7561 16.2112 67.7193 12.4908 67.7561 8.76773ZM87.9846 8.73095C89.7529 8.80452 91.6683 8.47346 93.3262 9.35628C94.9105 10.2049 95.2784 12.7457 93.8044 13.8886C94.7266 14.2564 95.6462 14.9579 95.8669 15.9511C96.2715 17.2044 95.5726 18.568 94.4665 19.2301C92.4775 20.3363 90.1549 19.8187 87.982 19.9658C87.9478 16.248 87.9846 12.4908 87.9846 8.73095ZM90.0498 10.3547L90.0498 13.5602C90.8222 13.5234 91.6709 13.5602 92.333 13.082C92.9951 12.4934 92.9951 11.2401 92.2227 10.7225C91.5973 10.3153 90.7855 10.3547 90.0498 10.3547ZM90.0498 15.0315L90.0498 18.3105C91.0824 18.2738 92.1859 18.4577 93.1449 17.9427C93.9935 17.5381 94.1407 16.1744 93.3656 15.6227C92.4434 14.8476 91.1901 15.0315 90.0498 15.0315ZM124.464 8.73096L126.526 8.73096L126.526 13.1529C128.221 11.6421 129.952 10.2049 131.684 8.69417L134.522 8.69417C132.496 10.3521 130.467 12.0468 128.442 13.7782C130.431 15.8776 132.459 17.8691 134.485 19.8949C133.563 19.8949 132.606 19.9685 131.684 19.8581C130.063 18.237 128.479 16.5791 126.894 14.9212L126.563 15.3626C126.526 16.8734 126.563 18.3841 126.526 19.8949L124.427 19.8949C124.427 16.2112 124.427 12.4908 124.464 8.73096ZM18.6416 19.8975C22.5092 19.8975 26.3794 19.8607 30.2469 19.9343C32.5669 23.9516 34.9264 27.9295 37.2096 31.9837C33.342 32.0204 29.4718 31.9837 25.6043 31.9837C23.321 27.9295 20.9248 23.949 18.6416 19.8975Z" fill="white"/>
</svg>
