<svg width="82" height="32" viewBox="0 0 82 32" fill="none" xmlns="http://www.w3.org/2000/svg">
<path d="M18.5323 12.3029C18.5323 17.8044 15.7556 22.1722 11.5853 22.1722C7.50861 22.1722 4.57588 17.9916 4.57588 12.2405C4.57588 6.72863 7.34222 2.37114 11.5229 2.37114C15.5996 2.36074 18.5323 6.54144 18.5323 12.3029ZM23.1082 12.1469C23.1082 5.94865 18.3763 1.02957 11.5853 1.02957C5.32467 1.02957 0 5.51186 0 12.3965C0 18.5947 4.73188 23.5138 11.5229 23.5138C17.7732 23.5138 23.1082 19.0211 23.1082 12.1469ZM33.196 14.3828C33.196 16.5668 32.1976 18.4283 30.648 18.4283C29.1505 18.4283 27.9649 16.7748 27.9649 14.2476C27.9649 12.0949 28.9633 10.2021 30.5544 10.2021C32.0208 10.2125 33.2064 11.8557 33.196 14.3828ZM43.7829 5.82385C43.7829 4.26389 42.3789 3.11992 39.7998 3.11992C36.2535 3.11992 33.508 5.42866 33.508 8.94378C33.508 9.22457 33.5392 9.44296 33.5392 9.66136C32.624 9.28697 31.636 9.09977 30.648 9.09977C27.8505 9.09977 24.481 10.8157 24.481 14.518C24.481 16.234 25.4482 17.8148 27.1329 18.7507C24.637 19.0939 23.2122 20.4355 23.2122 22.5154C23.2122 24.637 24.897 26.1449 28.0377 25.781L32.5824 25.2194C34.8599 24.9386 35.5983 25.7498 35.5983 26.9353C35.5983 28.9945 33.664 30.6376 30.5856 30.6376C28.1209 30.6376 27.2265 29.7641 27.2265 28.5161C27.2265 28.3393 27.2577 28.0793 27.2577 27.8921C27.2577 27.1433 26.7897 26.6233 26.0409 26.5817C25.1674 26.5817 24.637 27.2057 24.637 28.1105C24.637 30.1697 26.6025 32 30.6168 32C35.1303 32 38.0006 29.0777 38.0006 25.7082C38.0006 23.0354 35.8479 21.5691 32.8944 21.9435L27.6945 22.5986C25.9786 22.817 25.4482 22.2554 25.4482 21.3819C25.4482 20.3523 26.5713 19.5411 30.4608 19.5411H30.5336C33.3624 19.5411 36.7007 17.8252 36.7007 14.1228C36.7007 12.9581 36.2535 11.8245 35.4527 10.9821C35.1615 10.4205 35.0783 9.85895 35.0783 9.04777C35.0783 6.30224 36.9503 4.75268 38.8742 4.75268C39.6854 4.75268 39.935 4.87748 39.935 5.43906C39.935 5.59506 39.9038 5.71986 39.9038 5.90705C39.9246 6.97822 40.819 7.83101 41.9006 7.81021C42.9613 7.78941 43.8141 6.89503 43.7829 5.82385ZM53.4339 22.1722L51.9051 22.0162C51.6763 21.9851 51.5203 21.7771 51.5411 21.5483V0L46.0501 1.40396V2.05915L47.61 2.55834C47.8388 2.63113 47.974 2.85993 47.9532 3.09912V21.4651C47.9532 21.8083 47.6724 22.0579 47.2668 22.0579L45.8733 22.089L44.3965 22.0579C43.9909 22.0579 43.7101 21.8083 43.7101 21.4651V9.02697L38.2294 10.4309V11.0861L39.779 11.5853C40.0078 11.6581 40.143 11.8765 40.1222 12.1157V21.5483C40.143 21.7771 39.9766 21.9851 39.7478 22.0162L38.479 22.1722V23.1706H53.4235L53.4339 22.1722ZM81.8668 10.5245V9.55736H76.5421V10.4933L77.7901 10.7429C78.2268 10.8365 78.3516 11.1797 78.0708 11.8661L75.2005 18.7819C75.0757 19.0627 74.9197 19.0627 74.8261 18.7819L72.143 11.8765C71.8622 11.1589 72.0182 10.8469 72.455 10.7533L73.703 10.5037V9.55736H62.6272V10.4933L63.8752 10.7429C64.312 10.8365 64.468 11.1797 64.1872 11.8661L61.4209 19.1563C61.2961 19.4371 61.1401 19.4371 61.0465 19.1563L58.2385 11.8661C57.989 11.1485 58.1137 10.8365 58.5505 10.7429L59.7985 10.4933V9.55736H52.7579V10.5245L53.4443 10.6805C53.8707 10.7533 54.2346 11.0445 54.3802 11.4605L59.1329 23.1706H61.2857L66.0487 11.4605C66.2983 10.8365 66.5791 10.5869 67.0783 10.5869H67.2551C67.6607 10.5869 67.9727 10.7429 68.2223 11.3357L73.2038 23.4826L71.8622 26.6545C70.9886 28.7761 70.3334 29.1505 69.5327 29.1505C69.1895 29.1505 68.8047 29.0881 68.4407 29.0881C67.4735 29.0881 66.8807 29.7745 66.8807 30.5232C66.8807 31.3656 67.5671 31.9584 68.6591 31.9584C70.219 31.9584 71.7478 30.7104 73.0166 27.7257L79.8076 11.8245C80.1196 11.1069 80.5252 10.7949 81.1804 10.6701L81.8668 10.5245Z" fill="white"/>
</svg>
