<svg width="131" height="32" viewBox="0 0 131 32" fill="none" xmlns="http://www.w3.org/2000/svg">
<path d="M39.9865 12.8789C40.5229 12.8789 41.0473 12.7198 41.4934 12.4218C41.9394 12.1237 42.2871 11.7001 42.4924 11.2045C42.6977 10.7089 42.7514 10.1635 42.6467 9.63733C42.5421 9.11118 42.2837 8.62788 41.9044 8.24854C41.5251 7.86921 41.0418 7.61088 40.5156 7.50622C39.9895 7.40156 39.4441 7.45527 38.9485 7.66057C38.4528 7.86586 38.0292 8.21352 37.7312 8.65957C37.4331 9.10562 37.2741 9.63004 37.2741 10.1665C37.2741 10.5227 37.3442 10.8754 37.4805 11.2045C37.6168 11.5336 37.8166 11.8326 38.0685 12.0844C38.3204 12.3363 38.6194 12.5361 38.9485 12.6724C39.2775 12.8087 39.6303 12.8789 39.9865 12.8789ZM129.477 22.1472C129.063 21.8553 128.741 21.8067 128.48 22.3722C123.925 32.2305 116.25 27.3105 117.016 27.7423C118.719 26.9638 123.195 23.3757 122.489 18.4192C122.082 15.3784 119.448 14.0405 116.718 14.527C111.901 15.3663 110.132 20.5599 111.032 25.1637C111.191 25.8827 111.434 26.5807 111.755 27.2436C106.282 31.671 104.147 23.2784 103.898 22.2749C103.898 22.2202 108.106 18.7111 109.274 10.3429C110.49 1.56712 107.705 0.00415432 104.847 0.00415432C99.5495 0.0953782 98.1204 11.1578 100.042 20.3775C99.3738 20.6746 98.6563 20.8457 97.9257 20.8823C97.0622 18.1577 93.3585 15.7676 92.3915 16.686C89.9589 18.9909 92.9997 23.4913 95.0978 23.8501C93.8268 31.6892 85.8599 29.7492 87.3438 19.9214C89.9345 15.1047 91.9111 7.94671 91.5583 3.6227C91.5365 3.14334 91.4203 2.673 91.2164 2.2386C91.0126 1.8042 90.725 1.41428 90.3703 1.09116C90.0155 0.768035 89.6005 0.518059 89.149 0.355537C88.6975 0.193016 88.2184 0.121142 87.7391 0.144033C82.8191 0.338644 82.2657 11.4011 82.8738 19.2585C82.303 20.0246 81.4804 20.5651 80.5507 20.7849C80.0763 18.1334 75.8131 15.4757 74.8096 16.7529C72.9304 19.149 76.1841 23.4122 77.7288 23.7102C76.4517 31.5494 68.4909 29.6093 69.9748 19.7815C72.5655 14.9649 74.536 7.80684 74.1893 3.48282C74.1675 3.00347 74.0513 2.53313 73.8474 2.09873C73.6436 1.66433 73.356 1.2744 73.0013 0.95128C72.6465 0.628157 72.2315 0.37818 71.78 0.215659C71.3285 0.0531375 70.8494 -0.0187365 70.3701 0.00415432C65.4501 0.198765 64.8966 11.2612 65.5048 19.1186C64.9133 19.9183 64.0468 20.4707 63.0722 20.6694C62.9992 17.2333 58.7177 15.6582 57.69 16.7529C55.8655 18.705 58.1096 22.7189 60.1956 23.7102C58.9184 31.5494 50.9576 29.6093 52.4415 19.7815C55.0323 14.9649 57.0027 7.80684 56.6561 3.48282C56.6342 3.00347 56.5181 2.53313 56.3142 2.09873C56.1103 1.66433 55.8228 1.2744 55.468 0.95128C55.1133 0.628157 54.6983 0.37818 54.2468 0.215659C53.7953 0.0531375 53.3162 -0.0187365 52.8369 0.00415432C47.9168 0.198765 47.5215 11.8207 48.0993 19.672C46.4755 26.6233 41.0386 35.2956 41.744 17.9205C41.817 16.7042 41.89 16.2359 41.2818 15.7798C40.8257 15.4271 39.7918 15.5974 39.2263 15.6095C38.539 15.6399 38.3627 16.0413 38.2106 16.6495C37.8835 18.3528 37.7266 20.0844 37.7423 21.8188C37.7202 22.7559 37.5582 23.6845 37.2619 24.5738C36.8848 25.8996 34.7502 28.32 33.6129 27.9187C31.9952 27.3592 32.5243 22.7858 32.8284 19.6416C33.0838 17.1603 32.275 16.0413 30.1951 15.6399C29.1117 15.5004 28.0375 15.2973 26.9779 15.0318C25.7616 14.6547 25.5123 12.3863 22.958 13.1404C21.5592 13.5539 22.4593 16.5157 22.1248 18.705C20.4706 29.4938 17.0406 29.7857 15.4351 24.5495C22.6053 6.98582 17.5089 0.058891 14.5289 0.058891C11.4212 0.058891 7.83917 2.19961 9.37173 15.871C8.81142 15.6531 8.21535 15.5417 7.61415 15.5426C3.08337 15.5426 0 19.1916 0 23.7224C0 28.2531 3.08337 31.896 7.61415 31.896C8.78741 31.911 9.94625 31.6363 10.988 31.0964C12.0297 30.5564 12.9222 29.7678 13.5863 28.8005C14.5107 30.1263 15.6418 31.9203 17.7096 31.8413C23.8702 31.6345 25.6582 19.0395 25.9015 18.3037C26.5583 18.401 27.1847 18.5956 27.7929 18.699C28.8024 18.851 28.8754 19.2524 28.8511 20.268C28.5835 28.8552 30.1708 31.8656 33.765 31.8656C35.7658 31.8656 37.5538 29.8952 38.7823 28.4903C39.7006 30.3817 41.1663 31.8048 43.1306 31.8656C47.8864 31.9812 49.7048 24.3974 49.5406 25.3948C49.4129 26.1793 51.0854 31.823 55.981 31.8413C62.0626 31.8413 63.1816 25.1941 63.3154 24.0751C63.3154 23.8562 63.3154 23.8744 63.3154 24.0751C63.3124 24.0973 63.3124 24.1198 63.3154 24.142C64.4015 23.9698 65.415 23.4884 66.2346 22.7554C66.2346 22.7554 67.7793 31.9447 73.5325 31.8413C79.4864 31.7318 80.6054 25.705 80.7513 24.5434C80.7513 24.2636 80.7513 24.3001 80.7513 24.5434V24.5799C83.038 23.7467 83.6401 22.9135 83.6401 22.9135C83.6401 22.9135 84.8564 31.9203 90.938 31.9994C96.3263 32.0663 98.3211 26.526 98.3332 24.2393C99.2073 24.1836 100.067 23.9907 100.881 23.6676C100.881 23.6676 102.858 31.5737 108.368 31.9507C110.959 32.1393 112.899 30.4973 114.005 29.7431C116.602 31.8534 125.262 34.5415 130.736 25.2732C131.502 23.9413 129.848 22.3662 129.556 22.1655L129.477 22.1472ZM7.4013 28.8735C4.76189 28.8735 3.06512 26.4408 3.06512 23.7953C3.06512 21.1499 4.62201 18.7233 7.26142 18.7233C7.76386 18.6693 8.27204 18.7239 8.75155 18.8834C9.23105 19.0429 9.67069 19.3035 10.0407 19.6477C10.2049 20.3045 10.6854 21.831 10.9165 22.5243C11.2266 23.4548 11.5915 24.2454 11.9686 25.1029C11.758 26.1602 11.1882 27.1122 10.3557 27.7972C9.52321 28.4822 8.47939 28.8582 7.4013 28.8613V28.8735ZM13.8417 19.7511C13.7322 19.5808 13.7566 19.6842 13.6288 19.52C12.7367 17.0804 12.222 14.5189 12.1024 11.9241C11.9807 8.14132 12.6132 3.71393 14.4681 3.71393C15.727 3.71393 17.0649 12.6904 13.8599 19.7511H13.8417ZM51.0428 15.8163C50.7448 13.5722 50.7265 3.58013 53.1288 3.8538C54.4546 4.38898 52.2895 13.8215 51.0428 15.8163ZM68.5638 15.8163C68.2658 13.5722 68.2476 3.58013 70.6498 3.8538C71.9756 4.38898 69.8106 13.8215 68.5638 15.8163ZM85.945 15.9562C85.647 13.7121 85.6288 3.72 88.031 3.99368C89.3568 4.52886 87.1917 13.9614 85.945 15.9562ZM105.132 3.2274C107.328 3.00238 107.237 12.5809 102.834 18.626C102.268 16.4427 101.398 3.97543 105.132 3.2274ZM114.358 23.844C113.653 20.2802 115.471 17.9448 117.35 17.6894C117.732 17.638 118.12 17.721 118.447 17.924C118.774 18.127 119.021 18.4375 119.144 18.8024C119.455 20.2984 119.102 22.5243 114.887 25.3401C114.637 24.8696 114.455 24.3658 114.346 23.844H114.358Z" fill="white"/>
</svg>
