<svg width="112" height="32" viewBox="0 0 112 32" fill="none" xmlns="http://www.w3.org/2000/svg">
<path fill-rule="evenodd" clip-rule="evenodd" d="M110.219 31.3594C109.859 31.3567 109.514 31.2128 109.259 30.9586C109.005 30.7045 108.86 30.3606 108.858 30.0013C108.879 29.6548 109.032 29.3296 109.285 29.0918C109.539 28.854 109.874 28.7216 110.222 28.7216C110.57 28.7216 110.905 28.854 111.159 29.0918C111.412 29.3296 111.565 29.6548 111.586 30.0013C111.585 30.3619 111.44 30.7074 111.184 30.9619C110.928 31.2165 110.581 31.3594 110.219 31.3594ZM110.219 28.3869C110.007 28.3863 109.796 28.4275 109.599 28.5084C109.402 28.5893 109.224 28.7082 109.073 28.8583C108.923 29.0083 108.804 29.1865 108.722 29.3827C108.641 29.5789 108.6 29.7891 108.601 30.0013C108.601 30.893 109.325 31.59 110.219 31.59C111.119 31.59 111.843 30.893 111.843 30.0013C111.843 29.1095 111.119 28.3921 110.219 28.3921V28.3869ZM109.911 29.8783V29.3658H110.219C110.384 29.3658 110.579 29.417 110.579 29.6118C110.579 29.8322 110.363 29.8783 110.178 29.8783H109.911ZM110.903 29.6169C110.903 29.2274 110.569 29.0839 110.23 29.0839H109.592V30.8981H109.916V30.1397H110.153L110.579 30.8981H110.975L110.481 30.1038C110.738 30.0525 110.903 29.8783 110.903 29.6169ZM100.697 6.61115C101.132 6.61115 101.563 6.52565 101.965 6.35952C102.367 6.1934 102.733 5.94992 103.041 5.64297C103.348 5.33602 103.592 4.97161 103.759 4.57056C103.926 4.16951 104.011 3.73967 104.011 3.30557C104.011 2.87148 103.926 2.44164 103.759 2.04059C103.592 1.63953 103.348 1.27513 103.041 0.96818C102.733 0.661229 102.367 0.417742 101.965 0.251622C101.563 0.0855012 101.132 -6.4685e-09 100.697 0C99.8175 1.30637e-08 98.9744 0.348265 98.3528 0.96818C97.7312 1.5881 97.3819 2.42888 97.3819 3.30557C97.3819 4.18227 97.7312 5.02305 98.3528 5.64297C98.9744 6.26288 99.8175 6.61115 100.697 6.61115ZM91.806 9.46573V14.3139H97.9524V31.3645H103.441V14.3139H109.587V9.47085L91.806 9.46573ZM43.9353 6.61115C44.3706 6.61115 44.8017 6.52565 45.2038 6.35952C45.606 6.1934 45.9714 5.94992 46.2792 5.64297C46.587 5.33602 46.8312 4.97161 46.9977 4.57056C47.1643 4.16951 47.2501 3.73967 47.2501 3.30557C47.2501 2.87148 47.1643 2.44164 46.9977 2.04059C46.8312 1.63953 46.587 1.27513 46.2792 0.96818C45.9714 0.661229 45.606 0.417742 45.2038 0.251622C44.8017 0.0855012 44.3706 -6.4685e-09 43.9353 0C43.0562 1.30637e-08 42.2131 0.348265 41.5915 0.96818C40.9699 1.5881 40.6206 2.42888 40.6206 3.30557C40.6206 4.18227 40.9699 5.02305 41.5915 5.64297C42.2131 6.26288 43.0562 6.61115 43.9353 6.61115ZM35.0498 14.3139H41.2013V31.3645H46.6848V14.3139H52.8363V9.47085H35.0498V14.319V14.3139ZM82.4786 31.3645H87.9671V9.4811H82.4786V31.3645ZM71.3781 21.5144C71.3781 24.4356 69.7285 27.4439 66.2544 27.4439C62.7342 27.4439 62.1432 24.205 62.1432 21.6067V9.4811H56.6546V23.1544C56.6546 27.6284 59.034 32 64.7487 32C67.9914 32 70.597 30.0423 71.558 27.8488H71.6505V31.3645H76.8615V9.4811H71.3781V21.5144ZM24.155 8.84049C20.9071 8.84049 18.3015 10.8033 17.3405 12.9917H17.248V9.4811H12.0421V31.3645H17.5307V19.3261C17.5307 16.4049 19.1752 13.4017 22.6492 13.4017C26.1695 13.4017 26.7605 16.6355 26.7605 19.2389V31.3645H32.249V17.681C32.249 13.2172 29.8748 8.84049 24.1601 8.84049H24.155ZM0.936523 31.3645H6.42508V9.4811H0.936523V31.3645Z" fill="white"/>
</svg>
